<?xml version="1.0" encoding="UTF-8" standalone="no"?>
<svg
   xmlns="http://www.w3.org/2000/svg"
   height="1125px"
   width="900px">
  <path
     fill="#231f20"
     d="M 0,0 H 900 V 675 H 825 V 75 H 75 v 600 h 825 v 75 H 0 Z m 0,900 h 900 v 225 H 150 v -75 h 75 v -75 h 75 v 75 h 75 v -75 h 75 v 75 h 75 v -75 h 75 v 75 h 75 v -75 h 75 v -75 h -75 v 75 h -75 v -75 h -75 v 75 h -75 v -75 h -75 v 75 h -75 v -75 h -75 v 75 h -75 v 150 H 0 Z m 75,-75 h 750 v 75 H 75 Z m 225,-75 h 300 v 75 H 300 Z" />
  <path
     d="m 150,150 h 150 v 150 h 75 v -75 h -75 v -75 h 150 v 150 h 75 V 225 H 450 V 150 H 750 V 375 H 450 v 75 H 600 V 375 H 750 V 600 H 150 V 375 h 75 v 75 H 375 V 375 H 150 v -75 h 75 v -75 h -75 z"
     fill="#231f20" />
</svg>
