<?xml version="1.0" encoding="UTF-8" standalone="no"?>
<svg
   xmlns:dc="http://purl.org/dc/elements/1.1/"
   xmlns:cc="http://creativecommons.org/ns#"
   xmlns:rdf="http://www.w3.org/1999/02/22-rdf-syntax-ns#"
   xmlns:svg="http://www.w3.org/2000/svg"
   xmlns="http://www.w3.org/2000/svg"
   xmlns:sodipodi="http://sodipodi.sourceforge.net/DTD/sodipodi-0.dtd"
   xmlns:inkscape="http://www.inkscape.org/namespaces/inkscape"
   viewBox="0 0 597 946.99994"
   version="1.1"
   id="svg2"
   inkscape:version="0.91 r13725"
   sodipodi:docname="new.svg"
   width="597"
   height="946.99994">
  <metadata
     id="metadata13">
    <rdf:RDF>
      <cc:Work
         rdf:about="">
        <dc:format>image/svg+xml</dc:format>
        <dc:type
           rdf:resource="http://purl.org/dc/dcmitype/StillImage" />
        <dc:title></dc:title>
      </cc:Work>
    </rdf:RDF>
  </metadata>
  <defs
     id="defs11" />
  <sodipodi:namedview
     pagecolor="#ffffff"
     bordercolor="#666666"
     borderopacity="1"
     objecttolerance="10"
     gridtolerance="10"
     guidetolerance="10"
     inkscape:pageopacity="0"
     inkscape:pageshadow="2"
     inkscape:window-width="1600"
     inkscape:window-height="1135"
     id="namedview9"
     showgrid="false"
     fit-margin-top="1"
     fit-margin-left="1"
     fit-margin-bottom="1"
     fit-margin-right="1"
     inkscape:zoom="0.38995236"
     inkscape:cx="320.62083"
     inkscape:cy="-413.72788"
     inkscape:window-x="1600"
     inkscape:window-y="0"
     inkscape:window-maximized="1"
     inkscape:current-layer="svg2" />
  <path
     id="shackle"
     d="m 508.5,508.49991 0,-260 a 210,210 0 1 0 -420,0 l 0,260"
     inkscape:connector-curvature="0"
     style="fill:none;stroke:#ec0000;stroke-width:75" />
  <path
     style="fill:#ec0000;stroke:none;stroke-width:75"
     d="m 298.5,350.99991 a 297.5,297.5 0 0 0 -297.5,297.5 297.5,297.5 0 0 0 297.5,297.5 297.5,297.5 0 0 0 297.5,-297.5 297.5,297.5 0 0 0 -297.5,-297.5 z m 0,207.5 a 90,90 0 0 1 90,90 90,90 0 0 1 -90,90 90,90 0 0 1 -90,-90 90,90 0 0 1 90,-90 z"
     id="circle9"
     inkscape:connector-curvature="0" />
</svg>
