<?xml version="1.0" standalone="no"?>
<!DOCTYPE svg PUBLIC "-//W3C//DTD SVG 1.1//EN" "http://www.w3.org/Graphics/SVG/1.1/DTD/svg11.dtd" >
<svg xmlns="http://www.w3.org/2000/svg">
<metadata>Generated by IcoMoon</metadata>
<defs>
<font id="makeit-icons" horiz-adv-x="1024">
<font-face units-per-em="1024" ascent="960" descent="-64" />
<missing-glyph horiz-adv-x="1024" />
<glyph unicode="&#x20;" horiz-adv-x="512" d="" />
<glyph unicode="&#xe900;" glyph-name="makeit-arrow-down" d="M821.76 273.92c-17.92 17.92-53.76 15.36-69.12 0l-192-179.2v816.64c0 28.16-23.040 48.64-48.64 48.64s-48.64-20.48-48.64-48.64v-816.64l-192 179.2c-17.92 17.92-51.2 20.48-69.12 0s-12.8-53.76 5.12-69.12l271.36-256c7.68-7.68 20.48-12.8 33.28-12.8s23.040 5.12 33.28 12.8l271.36 256c15.36 17.92 23.040 51.2 5.12 69.12z" />
<glyph unicode="&#xe901;" glyph-name="makeit-arrow-left" d="M12.8 481.28l256 271.36c15.36 17.92 51.2 23.040 69.12 5.12 20.48-17.92 15.36-53.76 0-69.12l-179.2-192h816.64c28.16 0 48.64-23.040 48.64-48.64s-20.48-48.64-48.64-48.64h-816.64l179.2-192c17.92-17.92 17.92-51.2 0-69.12s-51.2-10.24-69.12 5.12l-256 271.36c-7.68 7.68-12.8 23.040-12.8 33.28 0 12.8 5.12 23.040 12.8 33.28z" />
<glyph unicode="&#xe902;" glyph-name="makeit-arrow-right" d="M1024 448c0-10.24-5.12-25.6-12.8-33.28l-256-271.36c-17.92-15.36-51.2-23.040-69.12-5.12s-17.92 51.2 0 69.12l179.2 192h-816.64c-28.16 0-48.64 23.040-48.64 48.64s20.48 48.64 48.64 48.64h816.64l-179.2 192c-15.36 15.36-20.48 51.2 0 69.12 17.92 17.92 53.76 12.8 69.12-5.12l256-271.36c7.68-10.24 12.8-20.48 12.8-33.28z" />
<glyph unicode="&#xe903;" glyph-name="makeit-arrow-up" d="M512 960c-10.24 0-25.6-5.12-33.28-12.8l-271.36-256c-15.36-17.92-23.040-51.2-5.12-69.12s51.2-17.92 69.12 0l192 179.2v-816.64c0-25.6 20.48-48.64 48.64-48.64s48.64 20.48 48.64 48.64v816.64l192-179.2c15.36-15.36 51.2-20.48 69.12 0 17.92 17.92 12.8 53.76-5.12 69.12l-271.36 256c-10.24 7.68-20.48 12.8-33.28 12.8z" />
<glyph unicode="&#xe904;" glyph-name="makeit-backtotop" d="M998.4 94.72l-435.2 435.2c-25.6 25.6-79.36 25.6-104.96 0l-435.2-435.2c-25.6-33.28-25.6-79.36 0-104.96s79.36-25.6 104.96 0l384 384 389.12-389.12c12.8-12.8 33.28-20.48 53.76-20.48s38.4 7.68 53.76 20.48c23.040 35.84 23.040 84.48-10.24 110.080zM71.68 788.48h865.28c35.84 0 61.44 33.28 61.44 71.68s-20.48 74.24-53.76 74.24h-872.96c-33.28 0-58.88-33.28-58.88-74.24s25.6-71.68 58.88-71.68z" />
<glyph unicode="&#xe905;" glyph-name="makeit-check" d="M952.32 952.32c-38.4 23.040-87.040 10.24-110.080-28.16l-458.24-765.44-212.48 245.76c-28.16 33.28-79.36 38.4-115.2 7.68-33.28-28.16-38.4-79.36-7.68-115.2l286.72-332.8c15.36-17.92 38.4-28.16 61.44-28.16 2.56 0 5.12 0 7.68 0 25.6 2.56 48.64 17.92 61.44 38.4l514.56 867.84c23.040 38.4 10.24 87.040-28.16 110.080z" />
<glyph unicode="&#xe906;" glyph-name="makeit-close" d="M998.4 81.92c0 0 0 0 0 0l-371.2 371.2 371.2 360.96c33.28 33.28 33.28 87.040 0 120.32 0 0 0 0 0 0-33.28 33.28-87.040 33.28-120.32 0l-371.2-360.96-360.96 360.96c-33.28 33.28-87.040 33.28-120.32 0s-33.28-87.040 0-120.32c0 0 0 0 0 0l360.96-360.96-360.96-371.2c-33.28-33.28-33.28-87.040 0-120.32s87.040-33.28 120.32 0l360.96 360.96 371.2-360.96c33.28-33.28 87.040-33.28 120.32 0s33.28 87.040 0 120.32z" />
<glyph unicode="&#xe907;" glyph-name="makeit-externallink" d="M929.28 960h-737.28c-51.2 0-94.72-43.52-94.72-94.72s43.52-94.72 94.72-94.72h501.76l-665.6-670.72c-35.84-38.4-35.84-97.28 0-135.68 17.92-17.92 40.96-28.16 66.56-28.16s48.64 10.24 66.56 28.16l670.72 675.84v-517.12c0-53.76 43.52-94.72 94.72-94.72 53.76 0 94.72 43.52 94.72 94.72v742.4c2.56 51.2-40.96 94.72-92.16 94.72z" />
<glyph unicode="&#xe908;" glyph-name="makeit-filter-closed" d="M1011.2 716.8l-465.92-596.48c-5.12-10.24-20.48-15.36-33.28-15.36s-28.16 5.12-35.84 15.36l-465.92 596.48c-10.24 12.8-12.8 30.72-5.12 46.080s23.040 25.6 38.4 25.6h934.4c15.36 0 30.72-10.24 38.4-25.6s5.12-33.28-5.12-46.080z" />
<glyph unicode="&#xe909;" glyph-name="makeit-filter-open" d="M1011.2 176.64l-465.92 596.48c-5.12 10.24-20.48 15.36-33.28 15.36s-28.16-5.12-35.84-15.36l-465.92-596.48c-10.24-12.8-12.8-30.72-5.12-46.080s23.040-25.6 38.4-25.6h934.4c15.36 0 30.72 10.24 38.4 25.6s5.12 33.28-5.12 46.080z" />
<glyph unicode="&#xe90a;" glyph-name="makeit-fullscreen" d="M281.6 53.76h-163.84v163.84c0 33.28-25.6 58.88-58.88 58.88s-58.88-25.6-58.88-58.88v-222.72c0-33.28 25.6-58.88 58.88-58.88h222.72c33.28 0 58.88 25.6 58.88 58.88s-25.6 58.88-58.88 58.88zM58.88 619.52c0 0 0 0 0 0 33.28 0 58.88 25.6 58.88 58.88v163.84h163.84c33.28 0 58.88 25.6 58.88 58.88s-25.6 58.88-58.88 58.88h-222.72c-33.28 0-58.88-25.6-58.88-58.88v-222.72c0-33.28 25.6-58.88 58.88-58.88zM965.12 276.48v0c-33.28 0-58.88-25.6-58.88-58.88v-163.84h-163.84c-33.28 0-58.88-25.6-58.88-58.88s25.6-58.88 58.88-58.88h222.72c33.28 0 58.88 25.6 58.88 58.88v222.72c0 33.28-25.6 58.88-58.88 58.88zM742.4 842.24h163.84v-163.84c0-33.28 25.6-58.88 58.88-58.88s58.88 25.6 58.88 58.88v222.72c0 33.28-25.6 58.88-58.88 58.88h-222.72c0 0 0 0 0 0-33.28 0-58.88-25.6-58.88-58.88s25.6-58.88 58.88-58.88z" />
<glyph unicode="&#xe90b;" glyph-name="makeit-hamburger" d="M960 186.88h-896c-35.84 0-64-28.16-64-64s28.16-64 64-64h896c35.84 0 64 28.16 64 64s-28.16 64-64 64zM64 709.12h896c35.84 0 64 28.16 64 64s-28.16 64-64 64h-896c-35.84 2.56-64-28.16-64-64s28.16-64 64-64zM960 512h-896c-35.84 0-64-28.16-64-64s28.16-64 64-64h896c35.84 0 64 28.16 64 64s-28.16 64-64 64z" />
<glyph unicode="&#xe90c;" glyph-name="makeit-logo-cnbc" d="M143.36 207.36c17.92-2.56 30.72-7.68 35.84-25.6h76.8c0 40.96-53.76 56.32-107.52 58.88-97.28 2.56-145.92-35.84-148.48-87.040-2.56-74.24 61.44-89.6 135.68-89.6 35.84 0 117.76 12.8 120.32 61.44h-76.8c0-15.36-28.16-25.6-35.84-25.6-53.76 0-61.44 25.6-61.44 53.76-2.56 17.92 7.68 58.88 61.44 53.76zM908.8 99.84c-53.76 0-61.44 25.6-61.44 53.76 0 17.92 10.24 58.88 64 53.76 17.92-2.56 30.72-7.68 35.84-25.6h76.8c0 40.96-53.76 56.32-107.52 58.88-97.28 2.56-145.92-35.84-148.48-87.040-2.56-74.24 61.44-87.040 135.68-87.040 35.84 0 117.76 12.8 120.32 61.44h-76.8c0-17.92-28.16-28.16-38.4-28.16zM455.68 115.2v0l-87.040 120.32h-97.28v-166.4h61.44v120.32h2.56l89.6-120.32h94.72v166.4h-64zM706.56 156.16v0c30.72 5.12 46.080 23.040 46.080 38.4 0 25.6-33.28 40.96-92.16 40.96h-122.88v-166.4h120.32c64 0 97.28 15.36 97.28 46.080 2.56 15.36-10.24 38.4-48.64 40.96zM609.28 204.8h25.6c28.16 0 40.96-5.12 40.96-17.92s-15.36-15.36-46.080-15.36h-20.48v33.28zM629.76 104.96h-20.48v35.84h25.6c28.16 0 46.080-5.12 46.080-17.92-2.56-15.36-15.36-17.92-51.2-17.92zM532.48 668.16l43.52-284.16v2.56l122.88 281.6c15.36 28.16 25.6 69.12 10.24 99.84-5.12 12.8-15.36 25.6-28.16 35.84-28.16 25.6-76.8 30.72-110.080 10.24-30.72-17.92-51.2-48.64-51.2-84.48v-2.56h40.96c2.56-2.56 7.68-2.56 7.68-5.12-10.24-15.36-38.4-25.6-35.84-53.76zM578.56 314.88v0l261.12 181.76c15.36 12.8 35.84 23.040 48.64 40.96 17.92 28.16 23.040 71.68 5.12 99.84-12.8 28.16-43.52 46.080-71.68 51.2-40.96 5.12-81.92-12.8-102.4-51.2l-138.24-314.88-2.56-7.68zM829.44 453.12l-258.56-181.76h309.76c33.28 0 58.88 12.8 79.36 38.4s25.6 69.12 12.8 99.84c-10.24 20.48-30.72 43.52-51.2 51.2-28.16 12.8-69.12 10.24-92.16-7.68zM151.040 517.12l291.84-202.24h2.56l-143.36 325.12c-25.6 43.52-76.8 61.44-122.88 43.52-28.16-10.24-51.2-38.4-58.88-66.56-10.24-35.84 2.56-74.24 30.72-99.84zM145.92 271.36h309.76l-261.12 181.76c-25.6 15.36-64 20.48-92.16 5.12-20.48-7.68-40.96-30.72-51.2-51.2-15.36-30.72-7.68-74.24 12.8-99.84 20.48-23.040 48.64-35.84 81.92-35.84zM432.64 409.6l12.8-25.6c0 0 0 0 0 0l51.2 325.12c2.56 23.040-2.56 46.080-12.8 64s-28.16 33.28-46.080 40.96c-35.84 17.92-79.36 10.24-104.96-17.92-25.6-25.6-38.4-64-25.6-102.4l125.44-284.16z" />
<glyph unicode="&#xe90d;" glyph-name="makeit-mail" d="M271.36 565.76c0 10.24-7.68 17.92-17.92 17.92h-238.080c-10.24 0-17.92-7.68-17.92-17.92s7.68-17.92 17.92-17.92h238.080c10.24 0 17.92 7.68 17.92 17.92zM253.44 317.44h-145.92c-10.24 0-17.92-7.68-17.92-17.92s7.68-17.92 17.92-17.92h145.92c10.24 0 17.92 7.68 17.92 17.92s-7.68 17.92-17.92 17.92zM253.44 458.24h-192c-10.24 0-17.92-7.68-17.92-17.92s7.68-17.92 17.92-17.92h194.56c10.24 0 17.92 7.68 17.92 17.92-2.56 10.24-10.24 17.92-20.48 17.92zM975.36 670.72h-614.4c-25.6 0-46.080-20.48-46.080-46.080v-366.080c0-12.8 5.12-25.6 15.36-33.28 0 0 0 0 2.56-2.56 7.68-7.68 17.92-10.24 28.16-10.24h614.4c10.24 0 20.48 5.12 28.16 10.24 0 0 0 0 2.56 2.56 7.68 7.68 15.36 20.48 15.36 33.28v366.080c0 25.6-20.48 46.080-46.080 46.080zM954.88 632.32l-286.72-256-286.72 256h573.44zM350.72 271.36v340.48l189.44-168.96-189.44-171.52zM381.44 250.88l186.88 166.4 87.040-79.36c0 0 0 0 0 0 2.56 0 2.56-2.56 5.12-2.56 0 0 0 0 0 0 2.56 0 2.56 0 5.12 0v0 0 0 0c2.56 0 5.12 0 5.12 0s0 0 0 0c2.56 0 2.56 2.56 5.12 2.56 0 0 0 0 0 0l87.040 79.36 186.88-166.4h-568.32zM985.6 271.36l-189.44 168.96 189.44 168.96v-337.92z" />
<glyph unicode="&#xe90e;" glyph-name="makeit-mute" d="M783.36 834.56l38.4 64c12.8 20.48 5.12 43.52-15.36 56.32s-43.52 5.12-56.32-15.36l-84.48-140.8-281.6-163.84h-120.32c-66.56 0-120.32-53.76-120.32-120.32v-220.16c0-66.56 53.76-120.32 120.32-120.32h30.72l-104.96-174.080c-12.8-20.48-5.12-43.52 15.36-56.32 5.12-5.12 12.8-7.68 17.92-7.68 12.8 0 28.16 7.68 35.84 20.48l128 215.040 340.48-197.12c5.12-2.56 12.8-5.12 20.48-5.12 66.56 0 120.32 53.76 120.32 120.32v627.2c2.56 56.32-33.28 102.4-84.48 117.76zM337.92 250.88h-76.8c-25.6 0-43.52 20.48-43.52 43.52v220.16c0 25.6 20.48 43.52 43.52 43.52h130.56c7.68 0 12.8 2.56 20.48 5.12l174.080 99.84-248.32-412.16zM791.040 92.16c0-20.48-15.36-38.4-35.84-43.52l-330.24 189.44 307.2 509.44 25.6 15.36c20.48-5.12 35.84-23.040 35.84-43.52v-627.2z" />
<glyph unicode="&#xe90f;" glyph-name="makeit-pause" d="M890.88 960h-181.76c-20.48 0-35.84-28.16-35.84-64v-896c0-35.84 15.36-64 35.84-64h181.76c20.48 0 35.84 28.16 35.84 64v896c0 35.84-15.36 64-35.84 64zM314.88 960h-181.76c-20.48 0-35.84-28.16-35.84-64v-896c0-35.84 15.36-64 35.84-64h181.76c20.48 0 35.84 28.16 35.84 64v896c2.56 35.84-15.36 64-35.84 64z" />
<glyph unicode="&#xe910;" glyph-name="makeit-play" d="M929.28 468.48c-2.56 5.12-7.68 10.24-12.8 12.8l-770.56 473.6c-10.24 5.12-20.48 7.68-30.72 5.12s-20.48-10.24-25.6-17.92c-2.56-7.68-5.12-15.36-5.12-23.040v-942.080c0-23.040 17.92-40.96 40.96-40.96 7.68 0 15.36 2.56 20.48 5.12l770.56 471.040c17.92 12.8 25.6 38.4 12.8 56.32z" />
<glyph unicode="&#xe911;" glyph-name="makeit-questionnaire" d="M1011.2 688.64c-12.8 64-58.88 107.52-125.44 122.88-46.080 10.24-117.76 15.36-199.68 15.36s-158.72-5.12-209.92-15.36c-58.88-12.8-92.16-35.84-107.52-81.92-92.16 2.56-179.2-5.12-230.4-15.36-66.56-15.36-112.64-58.88-125.44-122.88-20.48-104.96-10.24-207.36 0-286.72 5.12-33.28 25.6-92.16 104.96-117.76 2.56-35.84-5.12-64-20.48-92.16l-25.6-40.96 48.64 10.24c76.8 17.92 151.040 94.72 174.080 117.76 38.4 0 189.44-5.12 250.88 0 56.32 5.12 94.72 35.84 115.2 94.72 30.72 0 58.88 0 71.68 2.56 23.040-23.040 97.28-99.84 174.080-117.76l48.64-10.24-25.6 40.96c-17.92 28.16-23.040 56.32-20.48 92.16 79.36 23.040 99.84 81.92 104.96 117.76 7.68 76.8 17.92 179.2-2.56 286.72zM540.16 225.28c-66.56-5.12-253.44 0-256 0h-10.24l-5.12-7.68c0 0-56.32-64-117.76-94.72 7.68 25.6 7.68 53.76 5.12 84.48l-2.56 15.36-15.36 2.56c-51.2 12.8-81.92 40.96-87.040 87.040-10.24 74.24-20.48 174.080 0 273.92 10.24 46.080 43.52 79.36 92.16 89.6 46.080 10.24 125.44 15.36 212.48 15.36-12.8-74.24-17.92-225.28 0-296.96s58.88-107.52 122.88-112.64c17.92-2.56 48.64-2.56 87.040-2.56 15.36 0 33.28 0 48.64 0-15.36-35.84-38.4-51.2-74.24-53.76zM970.24 407.040c-5.12-46.080-35.84-74.24-87.040-87.040l-12.8-2.56-2.56-15.36c-2.56-23.040-5.12-53.76 5.12-84.48-61.44 33.28-115.2 94.72-117.76 94.72l-5.12 7.68h-10.24c0 0-94.72-2.56-171.52-2.56-38.4 0-66.56 0-84.48 2.56-46.080 2.56-71.68 28.16-84.48 81.92-17.92 66.56-12.8 215.040 0 284.16 10.24 53.76 28.16 71.68 87.040 84.48 48.64 10.24 122.88 15.36 202.24 15.36s148.48-5.12 192-15.36c51.2-10.24 84.48-43.52 92.16-89.6 17.92-99.84 7.68-199.68-2.56-273.92z" />
<glyph unicode="&#xe912;" glyph-name="makeit-quote" d="M936.96 870.4l30.72-48.64c-189.44-107.52-307.2-276.48-307.2-422.4 0-25.6 7.68-35.84 28.16-35.84 38.4 0 53.76 56.32 151.040 56.32s176.64-76.8 176.64-192-92.16-204.8-220.16-204.8c-153.6 0-243.2 120.32-243.2 299.52-2.56 232.96 179.2 445.44 384 547.84zM376.32 870.4l30.72-48.64c-189.44-107.52-307.2-276.48-307.2-422.4 0-25.6 7.68-35.84 28.16-35.84 38.4 0 53.76 56.32 151.040 56.32s176.64-76.8 176.64-192-92.16-204.8-220.16-204.8c-153.6 0-243.2 120.32-243.2 299.52-2.56 232.96 181.76 445.44 384 547.84z" />
<glyph unicode="&#xe913;" glyph-name="makeit-search" d="M1008.64 48.64l-225.28 225.28c51.2 71.68 81.92 158.72 81.92 250.88 0 238.080-192 430.080-430.080 430.080s-430.080-192-430.080-430.080c0-238.080 192-430.080 430.080-430.080 94.72 0 181.76 30.72 250.88 81.92l225.28-225.28c12.8-12.8 30.72-20.48 48.64-20.48s35.84 7.68 48.64 20.48c25.6 28.16 25.6 69.12 0 97.28zM140.8 524.8c0 161.28 130.56 294.4 294.4 294.4 161.28 0 294.4-130.56 294.4-294.4 0-161.28-130.56-294.4-294.4-294.4-163.84 2.56-294.4 133.12-294.4 294.4z" />
<glyph unicode="&#xe914;" glyph-name="makeit-trending-bug" d="M821.76 916.48h-622.080c-58.88 0-107.52-48.64-107.52-107.52v-527.36c0-58.88 48.64-107.52 107.52-107.52h168.96l140.8-192 140.8 192h168.96c58.88 0 107.52 48.64 107.52 107.52v529.92c2.56 56.32-43.52 104.96-104.96 104.96zM701.44 565.76l-87.040-71.68 28.16-110.080c5.12-20.48-17.92-35.84-35.84-25.6l-94.72 58.88-94.72-58.88c-17.92-10.24-40.96 5.12-35.84 25.6l28.16 110.080-87.040 74.24c-15.36 12.8-7.68 40.96 12.8 40.96l112.64 7.68 40.96 104.96c7.68 20.48 35.84 20.48 43.52 0l40.96-104.96 112.64-7.68c23.040-5.12 30.72-30.72 15.36-43.52z" />
<glyph unicode="&#xe915;" glyph-name="makeit-unmute" d="M522.24 844.8c-5.12 0-12.8-2.56-15.36-5.12l-299.52-181.76h-102.4c-58.88 0-104.96-48.64-104.96-110.080v-199.68c0-61.44 46.080-110.080 104.96-110.080h104.96l296.96-181.76c5.12-2.56 10.24-5.12 15.36-5.12 58.88 0 104.96 48.64 104.96 110.080v573.44c0 58.88-46.080 110.080-104.96 110.080zM560.64 161.28c0-20.48-12.8-35.84-30.72-38.4l-296.96 179.2c-5.12 2.56-10.24 5.12-15.36 5.12h-112.64c-20.48 0-38.4 17.92-38.4 40.96v199.68c0 23.040 17.92 40.96 38.4 40.96h112.64c5.12 0 12.8 2.56 15.36 5.12l296.96 179.2c17.92-2.56 30.72-20.48 30.72-38.4v-573.44zM742.4 640c-15.36-10.24-20.48-30.72-7.68-48.64 35.84-48.64 53.76-104.96 53.76-163.84 0-56.32-17.92-112.64-51.2-158.72-10.24-15.36-7.68-35.84 10.24-46.080 5.12-5.12 12.8-5.12 20.48-5.12 10.24 0 23.040 5.12 30.72 15.36 40.96 58.88 64 125.44 64 197.12s-23.040 143.36-66.56 202.24c-15.36 15.36-38.4 17.92-53.76 7.68zM934.4 727.040c-12.8 17.92-35.84 23.040-56.32 12.8-17.92-10.24-25.6-33.28-12.8-48.64 51.2-74.24 76.8-156.16 76.8-243.2s-28.16-168.96-76.8-243.2c-12.8-17.92-5.12-38.4 12.8-48.64 7.68-2.56 12.8-5.12 20.48-5.12 12.8 0 28.16 5.12 35.84 17.92 58.88 81.92 89.6 179.2 89.6 279.040s-30.72 197.12-89.6 279.040z" />
<glyph unicode="&#xe916;" glyph-name="makeit-plus" d="M972.8 448v0c0 34.133-22.756 56.889-56.889 56.889l-347.022 5.689v341.333c0 34.133-22.756 56.889-56.889 56.889v0c-34.133 0-56.889-22.756-56.889-56.889v0-341.333l-347.022-5.689c-34.133 0-56.889-28.444-56.889-56.889v0c0-34.133 22.756-56.889 56.889-56.889h341.333l5.689-347.022c0-34.133 28.444-56.889 56.889-56.889v0c34.133 0 56.889 22.756 56.889 56.889v0 347.022l347.022-5.689c28.444 5.689 56.889 28.444 56.889 62.578v0z" />
<glyph unicode="&#xe917;" glyph-name="makeit-minus" d="M449.422 362.667h-341.333c-45.511 0-85.333 39.822-85.333 85.333s39.822 85.333 85.333 85.333l460.8 5.689 347.022-5.689c45.511 0 85.333-39.822 85.333-85.333v0c0-45.511-39.822-85.333-85.333-85.333 0 0 0 0 0 0h-466.489z" />
<glyph unicode="&#xe918;" glyph-name="makeit-newsletter" horiz-adv-x="878" d="M0 960h675.24l202.474-186.022v-837.978h-877.714v1024zM87.771 870.957v-845.913h702.171v709.443l-148.54 136.47h-553.632zM219.429 692.87h438.857v-89.043h-438.857v89.043zM219.429 492.522h438.857v-89.043h-438.857v89.043zM219.429 292.174h438.857v-89.043h-438.857v89.043z" />
</font>
</defs>
</svg>
