<?xml version="1.0" encoding="UTF-8" standalone="no"?>
<!-- Created with Inkscape (http://www.inkscape.org/) -->
<svg
   xmlns:dc="http://purl.org/dc/elements/1.1/"
   xmlns:cc="http://web.resource.org/cc/"
   xmlns:rdf="http://www.w3.org/1999/02/22-rdf-syntax-ns#"
   xmlns:svg="http://www.w3.org/2000/svg"
   xmlns="http://www.w3.org/2000/svg"
   xmlns:sodipodi="http://sodipodi.sourceforge.net/DTD/sodipodi-0.dtd"
   xmlns:inkscape="http://www.inkscape.org/namespaces/inkscape"
   id="svg1325"
   sodipodi:version="0.32"
   inkscape:version="0.43"
   width="410"
   height="430"
   sodipodi:docbase="D:\"
   sodipodi:docname="wikisource-nt.svg"
   version="1.1">
  <metadata
     id="metadata1330">
    <rdf:RDF>
      <cc:Work
         rdf:about="">
        <dc:format>image/svg+xml</dc:format>
        <dc:type
           rdf:resource="http://purl.org/dc/dcmitype/StillImage" />
      </cc:Work>
    </rdf:RDF>
  </metadata>
  <defs
     id="defs1328" />
  <sodipodi:namedview
     inkscape:window-height="588"
     inkscape:window-width="1019"
     inkscape:pageshadow="2"
     inkscape:pageopacity="0.0"
     borderopacity="1.0"
     bordercolor="#666666"
     pagecolor="#ffffff"
     id="base"
     inkscape:zoom="0.97956512"
     inkscape:cx="205.93747"
     inkscape:cy="174.05683"
     inkscape:window-x="-1"
     inkscape:window-y="118"
     inkscape:current-layer="svg1325"
     showguides="true"
     inkscape:guide-bbox="true" />
  <g
     id="g2492"
     transform="matrix(1.005595,0,0,1.000506,-0.942714,-0.217568)">
    <path
       id="path1334"
       d="M 203.5,0.21875 C 135.60706,0.67252098 75.52335,36.174749 38.78125,90.40625 L 370.8125,90.40625 C 333.83287,35.82415 273.24573,0.21875 204.8125,0.21875 C 204.37293,0.21875 203.93892,0.21581644 203.5,0.21875 z "
       style="opacity:1;fill:#608ab4;fill-opacity:1;fill-rule:evenodd;stroke:none;stroke-width:0.56465685;stroke-linecap:butt;stroke-linejoin:round;stroke-miterlimit:4;stroke-dasharray:none;stroke-dashoffset:0;stroke-opacity:1" />
    <path
       id="path2488"
       d="M 27,110 C 10.417835,141.08269 0.9375,176.91683 0.9375,215.09375 C 0.9375,333.71387 92.282775,430 204.8125,430 C 317.34222,430 408.65624,333.71387 408.65625,215.09375 C 408.65625,176.91683 399.20717,141.08269 382.625,110 L 27,110 z "
       style="opacity:1;fill:#375493;fill-opacity:1;fill-rule:evenodd;stroke:none;stroke-width:0.56465685;stroke-linecap:butt;stroke-linejoin:round;stroke-miterlimit:4;stroke-dasharray:none;stroke-dashoffset:0;stroke-opacity:1" />
    <path
       id="path2361"
       d="M 38.78125,90.40625 C 34.523245,96.691084 30.607797,103.23731 27,110 L 382.625,110 C 379.0172,103.23731 375.0705,96.691084 370.8125,90.40625 L 38.78125,90.40625 z "
       style="opacity:1;fill:#d6dde3;fill-opacity:1;fill-rule:evenodd;stroke:none;stroke-width:0.56465685;stroke-linecap:butt;stroke-linejoin:round;stroke-miterlimit:4;stroke-dasharray:none;stroke-dashoffset:0;stroke-opacity:1" />
    <path
       id="path2219"
       d="M 291.875,24.3125 C 291.02857,24.326871 290.11961,24.516585 289.15625,24.8125 C 280.07457,39.382052 280.10285,87.653144 280.21875,98.09375 C 280.23792,98.098114 280.26208,98.089376 280.28125,98.09375 C 293.72569,101.09093 311.52557,97.649401 312.125,84.71875 C 313.15261,67.677695 314.17901,51.149797 305.1875,40.53125 C 296.9667,44.299123 298.5272,29.050338 295.1875,25.625 C 294.35425,24.667645 293.19444,24.290098 291.875,24.3125 z "
       style="fill:#7bbce5;fill-opacity:1;fill-rule:evenodd;stroke:none;stroke-width:1px;stroke-linecap:butt;stroke-linejoin:miter;stroke-opacity:1" />
    <path
       id="path2230"
       d="M 289.15625,24.8125 C 284.3678,26.283369 278.53935,30.649214 275.65625,32.0625 C 273.14962,32.331624 268.49888,32.136643 265.03125,33.03125 C 257.57629,34.954538 250.79096,39.529756 246.875,46.71875 C 241.81739,31.956351 230.96362,50.110389 218.09375,60.5625 C 210.96478,55.167594 196.60364,44.405059 183.4375,37.46875 C 172.84783,42.863656 161.7489,61.083598 155.15625,62.625 C 148.30556,63.909503 138.64977,63.150144 134.625,68.03125 C 127.9456,74.967562 125.87825,82.92489 124.59375,90.375 C 140.26467,95.941172 156.70408,96.109586 172.375,93.96875 C 181.28088,91.827914 187.61847,94.842534 196.78125,94.5 C 224.59121,95.697967 254.71221,92.288926 280.21875,98.09375 C 280.10285,87.653144 280.07457,39.382052 289.15625,24.8125 z "
       style="fill:#ffffff;fill-opacity:1;fill-rule:evenodd;stroke:none;stroke-width:1px;stroke-linecap:butt;stroke-linejoin:miter;stroke-opacity:1" />
    <path
       sodipodi:nodetypes="cccccc"
       id="path2221"
       d="M 196.27186,53.897897 C 199.61652,64.002644 202.5166,74.10739 201.40987,84.212137 C 200.211,90.463379 202.86564,90.035212 207.83238,87.551842 C 212.71349,84.897205 215.28249,81.985668 222.4757,79.587931 C 228.04187,78.046529 224.10274,73.936124 221.4481,71.11022 C 213.50951,63.558837 204.87616,58.78646 196.27186,53.897897 z "
       style="fill:#7bbce5;fill-opacity:1;fill-rule:evenodd;stroke:none;stroke-width:1px;stroke-linecap:butt;stroke-linejoin:miter;stroke-opacity:1" />
    <path
       id="path2364"
       d="M 224.8125,110 C 230.66375,187.79306 282.917,197.34975 315.8125,181.625 C 299.36429,165.35956 305.33026,132.20927 322.875,131.84375 C 355.3267,131.05408 346.0869,191.66975 346.09375,221.09375 C 363.83576,217.48573 362.6738,150.35502 358.90625,110 L 224.8125,110 z "
       style="fill:#294584;fill-opacity:1;fill-rule:evenodd;stroke:none;stroke-width:1px;stroke-linecap:butt;stroke-linejoin:miter;stroke-opacity:1" />
    <path
       sodipodi:nodetypes="cccccccccccccccccccccccccccccssssssssssscccccc"
       id="path2370"
       d="M 56.75,110 C 57.387786,116.69675 58.018466,123.397 58.65625,130.09375 C 62.948559,137.95233 66.140215,145.79767 65.25,153.65625 C 73.729185,151.56674 78.78165,150.47377 83.34375,159.15625 C 103.29716,171.57932 122.2497,173.06122 140.90625,171.21875 C 144.69922,216.35991 143.59301,252.6704 142,306.625 C 153.33098,325.44905 164.66902,343.30094 176,362.125 C 182.50695,373.56938 193.91988,377.18329 202.875,363.65625 C 210.55083,360.18385 218.19917,356.72239 225.875,353.25 C 225.875,357.08791 225.875,360.91209 225.875,364.75 C 237.66328,367.71619 249.32262,372.22829 243.96875,384.5 C 239.8943,392.42506 242.18734,395.95136 253.78125,390.65625 C 264.02252,385.66802 270.34257,393.40421 275.6875,394.78125 C 268.06743,386.66578 274.62498,370.68979 274.8654,354.1898 C 285.7996,353.19098 298.28454,343.28007 309.21875,342.28125 C 331.70092,320.46075 335.57233,312.342 335.53125,284.15625 C 337.78982,276.84594 341.03351,274.91505 339.375,262.21875 C 340.6543,254.36017 342.43945,244.07734 343.71875,236.21875 C 344.59506,231.07519 345.43833,226.03934 346.28125,221.0625 C 346.22035,221.07649 346.1551,221.08127 346.09375,221.09375 C 346.0869,191.66975 355.3267,131.05408 322.875,131.84375 C 305.33026,132.20927 299.36429,165.35956 315.8125,181.625 C 311.99931,183.44779 307.91846,184.95499 303.6875,186.03125 C 305.02128,193.70254 299.4795,201.57419 292.21875,201.90625 C 284.97392,201.25826 274.31769,208.44823 267.5625,224.9375 C 256.76611,247.70898 246.94149,227.89827 243,221.78125 C 237.94142,215.06416 244.15326,208.8201 230.28125,212.875 C 221.13651,215.70238 209.52948,217.57023 206.75,203.75 C 195.0535,191.87075 183.85275,181.44175 172.15625,169.5625 C 167.48632,164.00429 171.37591,159.4284 171.40625,157.46875 C 171.40611,157.42729 171.40717,157.35945 171.40625,157.3125 C 171.40578,157.30529 171.40711,157.28762 171.40625,157.28125 C 171.40036,157.25923 171.38191,157.20891 171.375,157.1875 C 171.36854,157.16384 171.35211,157.1163 171.34375,157.09375 C 171.32873,157.05679 171.3019,157.00259 171.28125,156.96875 C 171.27608,156.95778 171.2554,156.91709 171.25,156.90625 C 171.24174,156.89802 171.22274,156.87961 171.21875,156.875 C 171.19926,156.85397 171.15158,156.80544 171.125,156.78125 C 171.09507,156.75778 171.04212,156.7149 171,156.6875 C 170.9833,156.67726 170.95279,156.66404 170.9375,156.65625 C 170.8834,156.63035 170.81457,156.61485 170.75,156.59375 C 166.18789,153.71457 160.65601,157.1807 154.625,159.6875 C 138.88165,162.57811 132.73413,159.79617 131.03125,151.46875 C 131.12411,137.714 123.38767,139.14891 110.75,141.0625 C 74.322432,146.2524 68.431439,133.35895 57.8125,110 L 56.75,110 z "
       style="fill:#e0e9ea;fill-opacity:1;fill-rule:evenodd;stroke:none;stroke-width:1px;stroke-linecap:butt;stroke-linejoin:miter;stroke-opacity:1" />
    <path
       id="path2383"
       d="M 57.8125,110 C 68.431435,133.35895 74.32243,146.2524 110.75,141.0625 C 123.38767,139.14891 131.12411,137.714 131.03125,151.46875 C 132.73413,159.79617 138.88165,162.57811 154.625,159.6875 C 160.65601,157.18069 166.18789,153.71457 170.75,156.59375 C 170.81457,156.61485 170.8834,156.63035 170.9375,156.65625 C 170.95279,156.66404 170.9833,156.67726 171,156.6875 C 171.04212,156.7149 171.09507,156.75778 171.125,156.78125 C 171.15158,156.80544 171.19926,156.85397 171.21875,156.875 C 171.22274,156.87961 171.24174,156.89802 171.25,156.90625 C 171.2554,156.91709 171.27608,156.95778 171.28125,156.96875 C 171.3019,157.00259 171.32873,157.05679 171.34375,157.09375 C 171.35211,157.1163 171.36854,157.16384 171.375,157.1875 C 171.38191,157.20891 171.40036,157.25923 171.40625,157.28125 C 171.40711,157.28762 171.40578,157.30529 171.40625,157.3125 C 171.40717,157.35945 171.40611,157.42729 171.40625,157.46875 C 171.37591,159.42841 167.48632,164.00429 172.15625,169.5625 C 183.85275,181.44175 195.0535,191.87075 206.75,203.75 C 209.52948,217.57023 221.13651,215.70238 230.28125,212.875 C 244.15326,208.8201 237.94142,215.06416 243,221.78125 C 246.94149,227.89827 256.76611,247.70898 267.5625,224.9375 C 274.31769,208.44824 284.97392,201.25826 292.21875,201.90625 C 299.4795,201.57418 305.02128,193.70254 303.6875,186.03125 C 271.41892,194.23961 229.98548,178.77542 224.8125,110 L 57.8125,110 z "
       style="fill:#4d8ac0;fill-opacity:1;fill-rule:evenodd;stroke:none;stroke-width:1px;stroke-linecap:butt;stroke-linejoin:miter;stroke-opacity:1" />
    <path
       id="path2398"
       d="M 166.9375,199.375 C 156.43914,200.05991 161.91133,235.16079 163.0625,251.78125 C 164.61786,268.14237 168.265,264.28833 179.6875,257.15625 C 184.94013,267.80961 181.74621,273.76182 174.3125,280.65625 C 168.77803,285.88639 165.60371,293.69846 170.40625,302.6875 C 171.87516,305.13568 173.10865,306.17348 174.8125,310.03125 C 175.95498,312.31622 177.07627,314.62126 178.21875,316.90625 C 179.53685,321.95845 178.04961,325.10961 175.84375,327.8125 C 173.80108,330.7379 173.40652,333.68733 176.0625,341.78125 C 177.51164,346.48222 173.53973,352.09535 179.6875,357.03125 C 182.41193,359.14751 185.08063,360.73099 187.8125,361.90625 C 185.44211,355.00677 185.37198,345.04953 186.53125,336.5 C 187.31435,328.434 187.85754,323.41925 195.21875,317.9375 C 201.64023,314.64845 199.85807,297.2745 200.40625,286.9375 C 200.46941,286.99278 200.55902,287.04251 200.625,287.09375 C 200.61673,287.04782 200.63265,286.98351 200.625,286.9375 C 214.36091,284.03696 206.71352,273.05018 202.5,262.5 L 168.90625,199.625 C 168.24242,199.44073 167.63131,199.35282 167.0625,199.375 C 167.02084,199.37662 166.97867,199.37231 166.9375,199.375 z "
       style="fill:#d6dde3;fill-opacity:1;fill-rule:evenodd;stroke:none;stroke-width:1px;stroke-linecap:butt;stroke-linejoin:miter;stroke-opacity:1" />
    <path
       id="path2404"
       d="M 168.90625,199.625 L 202.5,262.5 C 206.71352,273.05018 214.36091,284.03696 200.625,286.9375 C 201.84937,294.2987 210.9536,300.70517 221.0625,299.84375 C 231.57721,299.16615 239.22398,307.02775 242.6875,314.96875 C 243.14496,306.21177 244.21297,297.52228 246.34375,288.9375 C 247.70139,284.69399 255.39512,280.93434 249,275.28125 C 223.10126,246.76607 198.13813,224.3489 170.125,200.0625 C 169.69929,199.87785 169.29727,199.73354 168.90625,199.625 z "
       style="fill:#608ab4;fill-opacity:1;fill-rule:evenodd;stroke:none;stroke-width:1px;stroke-linecap:butt;stroke-linejoin:miter;stroke-opacity:1" />
    <path
       id="path2407"
       d="M 200.40625,286.9375 C 199.85807,297.2745 201.64023,314.64845 195.21875,317.9375 C 187.85754,323.41925 187.31435,328.434 186.53125,336.5 C 185.37042,345.06106 185.43267,355.03699 187.8125,361.9375 C 190.24206,362.97591 192.73141,363.67957 195.375,364.125 C 199.82126,364.52314 202.62017,365.62251 212,363.90625 C 220.21255,362.95915 225.14404,358.94821 234.53125,357.53125 C 239.65517,356.52484 243.12327,354.56944 242.84375,346.75 C 242.45269,336.07079 242.13685,325.46902 242.6875,314.96875 C 239.22398,307.02775 231.57721,299.16615 221.0625,299.84375 C 211.07206,300.69508 202.04786,294.43946 200.65625,287.1875 C 200.6535,287.17317 200.65894,287.17059 200.65625,287.15625 C 200.65115,287.15184 200.66134,287.12943 200.65625,287.125 C 200.57991,287.05855 200.4812,287.00786 200.40625,286.9375 z "
       style="fill:#236798;fill-opacity:1;fill-rule:evenodd;stroke:none;stroke-width:1px;stroke-linecap:butt;stroke-linejoin:miter;stroke-opacity:1" />
    <path
       sodipodi:nodetypes="ccccccccssssscccccsssssssccccc"
       id="path2460"
       d="M 338.46875,276.53125 C 337.6061,278.92341 336.48761,281.06079 335.53125,284.15625 C 335.57233,312.342 331.70092,320.46075 309.21875,342.28125 C 309.01644,342.33197 302.58781,357.4073 297.125,361.34375 C 287.91001,368.15617 288.48532,374.33338 285.0625,381.78125 C 282.58538,385.54582 279.16461,386.15238 276.6875,385.46875 C 275.14088,384.24774 273.57787,383.66898 272.03125,381.8125 C 271.9335,384.85806 272.14572,387.63126 272.9375,390.0625 C 272.97299,390.13442 272.99589,390.20933 273.03125,390.28125 C 273.03454,390.29086 273.02794,390.3029 273.03125,390.3125 C 273.46514,391.19526 273.87197,392.08599 274.28125,392.96875 C 274.30362,393.00463 274.32099,393.02685 274.34375,393.0625 C 274.34766,393.07096 274.33984,393.08529 274.34375,393.09375 C 274.71557,393.67295 275.14425,394.2323 275.625,394.75 C 275.47864,394.711 275.3354,394.67301 275.1875,394.625 C 284.62596,409.71715 297.95561,414.4376 315.0625,408.5 C 324.2737,404.48242 329.65882,400.80406 335.375,396.46875 C 340.34723,391.75246 346.26306,382.89832 336.9375,382.3125 C 335.60881,381.96083 334.86896,381.61672 334.5,381.25 C 334.48661,381.23612 334.44985,381.20147 334.4375,381.1875 C 334.40199,381.14547 334.37039,381.07416 334.34375,381.03125 C 334.30592,380.96665 334.26982,380.87947 334.25,380.8125 C 334.24601,380.79755 334.22192,380.76508 334.21875,380.75 C 334.21459,380.72728 334.22116,380.67928 334.21875,380.65625 C 334.2169,380.63311 334.21896,380.58598 334.21875,380.5625 C 334.23727,379.21786 336.7961,377.29989 334.84375,373.40625 C 333.50812,367.45068 339.18425,361.81988 343.25,360.3125 C 340.45516,354.19879 337.63859,348.08246 334.84375,341.96875 C 335.0369,337.95424 342.93446,335.83501 341.65625,328.34375 C 343.93578,309.49955 347.02541,281.52874 338.46875,276.53125 z "
       style="fill:#608ab4;fill-opacity:1;fill-rule:evenodd;stroke:none;stroke-width:1px;stroke-linecap:butt;stroke-linejoin:miter;stroke-opacity:1" />
    <path
       id="path2468"
       d="M 288.03125,202.3125 C 281.27622,204.13028 273.10387,211.41115 267.5625,224.9375 C 265.0321,230.27457 262.54791,233.27287 260.1875,234.65625 C 260.42406,257.90517 265.94713,274.45688 277.375,283.53125 C 273.9859,296.98175 270.60724,315.52359 276.75,326.75 C 266.37085,323.46682 270.60263,344.3345 267.53125,353.125 C 262.34167,367.74053 257.77809,367.10409 252.90625,368.375 C 257.35445,373.45867 263.07757,378.85396 271.65625,382.03125 C 271.65774,382.04785 271.65317,382.07711 271.65625,382.09375 C 271.67362,382.16873 271.73429,382.26787 271.78125,382.34375 C 272.42051,383.3146 275.29796,384.37175 276.6875,385.46875 C 279.16461,386.15238 282.58538,385.54582 285.0625,381.78125 C 288.48532,374.33338 287.91001,368.15617 297.125,361.34375 C 302.46044,357.49908 308.74119,343.00137 309.21875,342.28125 C 290.98447,332.03327 282.36549,312.5039 285.3125,293.6875 C 286.15977,288.49794 289.55411,282.67936 285,274.3125 C 279.55423,251.31921 283.02238,224.56744 288.03125,202.3125 z "
       style="fill:#236798;fill-opacity:1;fill-rule:evenodd;stroke:none;stroke-width:1px;stroke-linecap:butt;stroke-linejoin:miter;stroke-opacity:1" />
  </g>
</svg>
