<?xml version="1.0" standalone="no"?>
<!DOCTYPE svg PUBLIC "-//W3C//DTD SVG 1.1//EN" "http://www.w3.org/Graphics/SVG/1.1/DTD/svg11.dtd" >
<svg xmlns="http://www.w3.org/2000/svg" xmlns:xlink="http://www.w3.org/1999/xlink" version="1.1">
<metadata>
Created by FontForge 20170731 at Thu May 10 00:44:56 2018
 By Aleksey,,,
Copyright (c) 2017-2018 by Jan Weidemu:ller. All rights reserved.
</metadata>
<defs>
<font id="ParaSupreme-RegularNormal" horiz-adv-x="528" >
  <font-face 
    font-family="Para Supreme Normal"
    font-weight="400"
    font-stretch="normal"
    units-per-em="1000"
    panose-1="0 0 5 0 0 0 0 0 0 0"
    ascent="786"
    descent="-214"
    x-height="481"
    cap-height="715"
    bbox="-126 -244 1119 1063"
    underline-thickness="21"
    underline-position="-110"
    unicode-range="U+0020-F8FF"
  />
<missing-glyph horiz-adv-x="629" 
d="M59 0v786h514v-786h-514zM545 45v715h-444zM85 26h445l-445 716v-716z" />
    <glyph glyph-name="f_b" unicode="fb" horiz-adv-x="883" 
d="M646 -10q-78 0 -145 87h-2l-91 -83h-6v650q-53 46 -74.5 60t-41.5 14q-36 0 -63.5 -31.5t-27.5 -112.5v-93h151v-21h-151v-441l71 -1v-18h-243v18l71 1v441h-71v21h71v28q0 119 56 174.5t136 55.5q61 0 138 -23l79 29v-340q68 88 155 88q82 0 136.5 -71.5t54.5 -175.5
q0 -112 -61.5 -184t-141.5 -72zM624 27q59 0 90 59.5t31 151.5q0 95 -33 153t-93 58q-61 0 -116 -68v-282q54 -72 121 -72z" />
    <glyph glyph-name="f_f" unicode="ff" horiz-adv-x="600" 
d="M23 0v18l71 1v441h-71v21h71v31q0 65 16.5 111.5t43.5 69.5t53.5 33t53.5 10q82 0 145 -15l-50 -80h-7q-39 47 -55.5 60.5t-31.5 13.5q-67 0 -67 -135v-99h207v32q0 111 49 168.5t134 57.5q61 0 166 -23l-52 -84h-7q-65 53 -89.5 68.5t-38.5 15.5q-9 0 -18 -4.5t-19 -16
t-16.5 -37t-6.5 -62.5v-115h136v-3l-8 -18h-128v-441l87 -1v-18h-260v18l71 1v441h-207v-441l71 -1v-18h-243z" />
    <glyph glyph-name="f_f_i" unicode="ffi" horiz-adv-x="903" 
d="M23 0v18l71 1v441h-71v21h71v31q0 65 16.5 111.5t43.5 69.5t53.5 33t53.5 10q82 0 145 -15l-50 -80h-7q-39 47 -55.5 60.5t-31.5 13.5q-67 0 -67 -135v-99h207v16q0 61 12.5 106.5t30.5 71t44 40.5t47.5 19.5t45.5 4.5q78 0 180 -34l-52 -99h-7q-57 69 -79.5 90.5
t-40.5 21.5q-33 0 -56.5 -34.5t-23.5 -108.5v-94h228l82 17v-479l70 -1v-18h-243v18l71 1v441h-208v-441l71 -1v-18h-243v18l71 1v441h-207v-441l71 -1v-18h-243z" />
    <glyph glyph-name="f_f_l" unicode="ffl" horiz-adv-x="901" 
d="M23 0v18l71 1v441h-71v21h71v31q0 65 16.5 111.5t43.5 69.5t53.5 33t53.5 10q82 0 145 -15l-50 -80h-7q-39 47 -55.5 60.5t-31.5 13.5q-67 0 -67 -135v-99h206v28q0 119 56 174.5t137 55.5q60 0 137 -23l79 29v-726l71 -1v-18h-243v18l71 1v625q-51 46 -73 60t-42 14
q-36 0 -64 -31.5t-28 -112.5v-93h151v-21h-151v-441l71 -1v-18h-243v18l71 1v441h-206v-441l71 -1v-18h-243z" />
    <glyph glyph-name="f_h" unicode="fh" horiz-adv-x="908" 
d="M23 0v18l71 1v441h-71v21h71v28q0 119 56 174.5t136 55.5q62 0 139 -23l78 29v-356q75 104 173 104q60 0 100.5 -34.5t40.5 -105.5v-334l71 -1v-18h-244v18l71 1v307q0 108 -89 108q-66 0 -123 -69v-346l71 -1v-18h-243v18l71 1v625q-51 46 -73 60t-43 14
q-36 0 -63.5 -31.5t-27.5 -112.5v-93h151v-21h-151v-441l71 -1v-18h-243z" />
    <glyph glyph-name="f_i" unicode="fi" horiz-adv-x="595" 
d="M23 0v18l71 1v441h-71v21h71v16q0 61 12.5 106.5t30.5 71t44 40.5t47.5 19.5t45.5 4.5q78 0 180 -34l-52 -99h-7q-57 69 -79.5 90.5t-40.5 21.5q-33 0 -56.5 -34.5t-23.5 -108.5v-94h228l82 17v-479l70 -1v-18h-243v18l71 1v441h-208v-441l71 -1v-18h-243z" />
    <glyph glyph-name="f_j" unicode="fj" horiz-adv-x="599" 
d="M311 -218l-4 12q52 28 73 65.5t21 110.5v490h-206v-441l71 -1v-18h-243v18l71 1v441h-70v21h70v16q0 61 12.5 106.5t30.5 71t44 40.5t47.5 19.5t45.5 4.5q78 0 180 -34l-52 -99h-7q-57 69 -79.5 90.5t-40.5 21.5q-33 0 -56.5 -34.5t-23.5 -108.5v-94h224l84 17v-479
q0 -187 -192 -237z" />
    <glyph glyph-name="f_k" unicode="fk" horiz-adv-x="877" 
d="M23 0v18l71 1v441h-71v21h71v28q0 119 56 174.5t136 55.5q62 0 139 -23l78 24v-505l191 153q11 8 11 18q0 6 -8 13l-59 48v14h205v-7q-86 -60 -120 -88l-146 -118l81 18l152 -220q8 -11 48 -62v-4h-121l-172 258l-62 -50v-189l71 -1v-18h-243v18l71 1v625q-52 46 -74 60
t-42 14q-36 0 -63.5 -31.5t-27.5 -112.5v-93h151v-21h-151v-441l71 -1v-18h-243z" />
    <glyph glyph-name="f_l" unicode="fl" horiz-adv-x="594" 
d="M23 0v18l71 1v441h-71v21h71v28q0 119 56 174.5t136 55.5q61 0 138 -23l79 29v-726l71 -1v-18h-243v18l71 1v625q-52 46 -74 60t-42 14q-36 0 -63.5 -31.5t-27.5 -112.5v-93h151v-21h-151v-441l71 -1v-18h-243z" />
    <glyph glyph-name=".notdef" horiz-adv-x="629" 
d="M59 0v786h514v-786h-514zM545 45v715h-444zM85 26h445l-445 716v-716z" />
    <glyph glyph-name=".null" horiz-adv-x="600" 
 />
    <glyph glyph-name="nonmarkingreturn" horiz-adv-x="333" 
 />
    <glyph glyph-name="space" unicode=" " horiz-adv-x="200" 
 />
    <glyph glyph-name="exclam" unicode="!" horiz-adv-x="223" 
d="M106 193l-55 518v4h123v-4l-56 -518h-12zM113 -6q-26 0 -45.5 19t-19.5 45q0 25 19.5 44t45.5 19t45.5 -19t19.5 -44q0 -26 -19.5 -45t-45.5 -19z" />
    <glyph glyph-name="quotedbl" unicode="&#x22;" horiz-adv-x="303" 
d="M79 477l-38 222l4 16h78l4 -16l-38 -222h-10zM218 477l-38 222l4 16h78l4 -16l-38 -222h-10z" />
    <glyph glyph-name="numbersign" unicode="#" horiz-adv-x="612" 
d="M138 0l39 213h-142v23h147l33 182h-145v23h150l38 204h22l-38 -204h171l36 204h22l-36 -204h146v-23h-150l-33 -182h148v-23h-152l-38 -213h-22l37 213h-171l-40 -213h-22zM204 236h172l32 182h-170z" />
    <glyph glyph-name="dollar" unicode="$" horiz-adv-x="541" 
d="M349 394q154 -69 154 -209q0 -95 -66 -146t-156 -51q-22 0 -44 3l-14 -119h-21l15 122q-71 12 -156 48l-13 140h7q115 -134 165 -160l35 292l-64 30q-60 27 -98 74.5t-38 115.5q0 90 61 141.5t152 51.5q13 0 37 -2l11 91h21l-11 -93q57 -7 117 -27l12 -124h-8
q-80 86 -125 116l-33 -267zM253 438l16 -8l33 268q-17 8 -36 8q-49 0 -90 -31t-41 -92q0 -91 118 -145zM283 9q59 0 97.5 37.5t38.5 98.5q0 97 -119 149l-25 11l-35 -291q18 -5 43 -5z" />
    <glyph glyph-name="percent" unicode="%" horiz-adv-x="767" 
d="M152 -14l-18 11l487 733l17 -11zM208 369q-77 0 -122 50.5t-45 127.5q0 78 45 128t122 50t121.5 -50.5t44.5 -127.5t-45 -127.5t-121 -50.5zM208 387q34 0 56.5 39.5t22.5 120.5q0 84 -22 122.5t-57 38.5q-34 0 -57 -40t-23 -121q0 -80 23 -120t57 -40zM563 -10
q-76 0 -121.5 50.5t-45.5 127.5t45.5 127.5t121.5 50.5q77 0 122 -50.5t45 -127.5q0 -78 -45 -128t-122 -50zM563 8q35 0 57 39.5t22 120.5q0 84 -22 122.5t-57 38.5q-34 0 -56.5 -40.5t-22.5 -120.5t22.5 -120t56.5 -40z" />
    <glyph glyph-name="ampersand" unicode="&#x26;" horiz-adv-x="724" 
d="M256 -12q-97 0 -157 60.5t-60 141.5q0 71 48.5 127.5t141.5 85.5q-46 58 -63.5 94.5t-17.5 73.5q0 67 48.5 111.5t126.5 44.5q75 0 119 -41.5t44 -94.5q0 -48 -37.5 -94t-109.5 -80l184 -223q24 40 45.5 102.5t21.5 79.5q0 13 -12.5 24t-65.5 48v9h194v-9
q-58 -40 -73 -52t-20 -26q-35 -121 -76 -192l91 -108l73 -65v-5h-135l-87 105q-43 -58 -101.5 -87.5t-121.5 -29.5zM327 433q84 46 84 160q0 56 -25.5 84.5t-62.5 28.5q-36 0 -63 -27t-27 -73q0 -42 21 -77t73 -96zM305 47q90 0 161 74l-223 266q-57 -26 -85.5 -69.5
t-28.5 -92.5q0 -75 51 -126.5t125 -51.5z" />
    <glyph glyph-name="quotesingle" unicode="'" horiz-adv-x="164" 
d="M79 477l-38 222l4 16h78l4 -16l-38 -222h-10z" />
    <glyph glyph-name="parenleft" unicode="(" horiz-adv-x="344" 
d="M312 -198q-104 71 -174.5 194t-70.5 296t70.5 296t174.5 194l8 -12q-70 -66 -119 -186t-49 -292t49 -292.5t119 -185.5z" />
    <glyph glyph-name="parenright" unicode=")" horiz-adv-x="344" 
d="M32 -198l-8 12q70 65 119 185.5t49 292.5t-49 292t-119 186l8 12q104 -71 174.5 -194t70.5 -296t-70.5 -296t-174.5 -194z" />
    <glyph glyph-name="asterisk" unicode="*" horiz-adv-x="454" 
d="M158 380l-71 53l4 11l126 105l-163 9l-9 8l27 84l12 -1l136 -86l-39 156l3 12h89l3 -12l-40 -156l138 87h12l26 -84l-9 -6l-163 -11l126 -104l4 -12l-71 -52l-9 8l-61 151l-61 -152z" />
    <glyph glyph-name="plus" unicode="+" horiz-adv-x="520" 
d="M251 138v193h-192v21h192v191h20v-191h193v-21h-193v-193h-20z" />
    <glyph glyph-name="comma" unicode="," horiz-adv-x="256" 
d="M81 -138l-12 8q48 67 67 127h-7q-28 0 -46 17t-18 44q0 26 19.5 43.5t47.5 17.5q27 0 44.5 -18t17.5 -50q0 -26 -18 -59.5t-34 -54t-61 -75.5z" />
    <glyph glyph-name="hyphen" unicode="-" horiz-adv-x="372" 
d="M45 243v36h286v-36h-286z" />
    <glyph glyph-name="period" unicode="." horiz-adv-x="256" 
d="M130 -5q-26 0 -45.5 18.5t-19.5 43.5t19.5 44t45.5 19q25 0 44.5 -19t19.5 -44t-19.5 -43.5t-44.5 -18.5z" />
    <glyph glyph-name="slash" unicode="/" horiz-adv-x="363" 
d="M20 -117l289 889h22l-289 -889h-22z" />
    <glyph glyph-name="zero" unicode="0" horiz-adv-x="604" 
d="M301 -12q-106 0 -180.5 99t-74.5 264q0 162 75 263t180 101q106 0 181.5 -101.5t75.5 -262.5q0 -166 -74 -264.5t-183 -98.5zM305 9q61 0 103.5 88.5t42.5 253.5t-43.5 254t-107.5 89q-63 0 -104.5 -88.5t-41.5 -254.5q0 -167 42.5 -254.5t108.5 -87.5z" />
    <glyph glyph-name="one" unicode="1" horiz-adv-x="380" 
d="M39 0v18l105 1v570l-101 32v7l201 87v-696l105 -1v-18h-310z" />
    <glyph glyph-name="two" unicode="2" horiz-adv-x="511" 
d="M39 0v25l74 81q48 52 66 72t56.5 66t54 73.5t36.5 69.5t29 82.5t8 84.5q0 140 -91 140q-36 0 -71.5 -30.5t-118.5 -132.5h-7l11 131q110 53 189 53q81 0 134 -41.5t53 -120.5t-71 -176.5t-259 -277.5v-2h345l-34 -97h-404z" />
    <glyph glyph-name="three" unicode="3" horiz-adv-x="536" 
d="M251 -12q-95 0 -197 41l19 124h6q77 -94 105.5 -119t67.5 -25q54 0 94 49.5t41 134.5q1 90 -44 142.5t-108 52.5q-36 0 -70 -17l-19 24l220 211h-286l34 97h363v-18l-285 -274l2 -2q42 16 94 16q81 0 142.5 -60t60.5 -152q-1 -104 -76 -164.5t-164 -60.5z" />
    <glyph glyph-name="four" unicode="4" horiz-adv-x="574" 
d="M339 0v200h-302v14l239 489h140v-5l-355 -477h278v197l100 30v-227h94v-21h-94v-200h-100z" />
    <glyph glyph-name="five" unicode="5" horiz-adv-x="542" 
d="M252 -12q-98 0 -203 50l27 123h6q75 -101 103 -126.5t68 -25.5q51 0 96 48t45 138q0 103 -47 151.5t-113 48.5q-74 0 -141 -54l-19 6l56 356h353l-35 -97h-313l-36 -233q81 71 179 71q85 0 152 -60.5t67 -166.5q0 -101 -73 -165t-172 -64z" />
    <glyph glyph-name="six" unicode="6" horiz-adv-x="567" 
d="M443 727l4 -16q-241 -115 -288 -345q61 73 158 73q86 0 149 -58.5t63 -150.5q0 -96 -70.5 -163t-174.5 -67q-100 0 -169 65.5t-69 203.5q0 170 111.5 290t285.5 168zM284 402q-33 0 -68.5 -15.5t-60.5 -47.5q-7 -36 -7 -83q0 -101 36.5 -168t102.5 -67q60 0 98.5 53
t38.5 139q0 84 -36.5 136.5t-103.5 52.5z" />
    <glyph glyph-name="seven" unicode="7" horiz-adv-x="520" 
d="M126 -4l304 601h-381l38 106h414v-14l-342 -693h-33z" />
    <glyph glyph-name="eight" unicode="8" horiz-adv-x="559" 
d="M279 -12q-97 0 -165 51t-68 134q0 130 165 183l-16 10q-22 13 -38 25.5t-38 35t-34 52t-12 63.5q0 80 61.5 126.5t145.5 46.5q80 0 141.5 -42.5t61.5 -111.5q0 -58 -47.5 -103.5t-99.5 -64.5l28 -18q149 -87 149 -195q0 -80 -65.5 -136t-168.5 -56zM317 405q89 56 89 152
q0 64 -36.5 100.5t-89.5 36.5q-52 0 -86 -33.5t-34 -82.5q0 -68 83 -126q10 -7 46 -30zM281 9q65 0 104.5 37.5t39.5 90.5q0 30 -11.5 55.5t-35.5 48.5t-44.5 38t-54.5 36l-48 30q-41 -19 -70.5 -63t-29.5 -106q0 -72 41.5 -119.5t108.5 -47.5z" />
    <glyph glyph-name="nine" unicode="9" horiz-adv-x="567" 
d="M124 -12l-4 16q241 115 288 345q-61 -73 -158 -73q-86 0 -149 58.5t-63 150.5q0 96 70.5 163t174.5 67q100 0 169 -65.5t69 -202.5q0 -171 -111.5 -290.5t-285.5 -168.5zM283 313q33 0 68.5 15.5t60.5 47.5q7 36 7 83q0 102 -36.5 168.5t-102.5 66.5q-60 0 -98.5 -53
t-38.5 -139q0 -84 36.5 -136.5t103.5 -52.5z" />
    <glyph glyph-name="colon" unicode=":" horiz-adv-x="244" 
d="M124 341q-26 0 -45.5 19.5t-19.5 45.5t19.5 45.5t45.5 19.5t45.5 -19.5t19.5 -45.5t-19.5 -45.5t-45.5 -19.5zM124 -5q-26 0 -45.5 19t-19.5 45t19.5 45.5t45.5 19.5t45.5 -19.5t19.5 -45.5t-19.5 -45t-45.5 -19z" />
    <glyph glyph-name="semicolon" unicode=";" horiz-adv-x="248" 
d="M124 341q-26 0 -45.5 19.5t-19.5 45.5t19.5 45.5t45.5 19.5t45.5 -19.5t19.5 -45.5t-19.5 -45.5t-45.5 -19.5zM78 -138l-11 8q47 67 67 127h-8q-28 0 -46 17t-18 44q0 26 19.5 43.5t47.5 17.5q27 0 44.5 -18t17.5 -50q0 -26 -18 -59.5t-34 -54t-61 -75.5z" />
    <glyph glyph-name="less" unicode="&#x3c;" horiz-adv-x="509" 
d="M453 118l-394 211v25l394 213v-23l-373 -202l373 -201v-23z" />
    <glyph glyph-name="equal" unicode="=" horiz-adv-x="460" 
d="M404 403v-21h-345v21h345zM404 296v-21h-345v21h345z" />
    <glyph glyph-name="greater" unicode="&#x3e;" horiz-adv-x="509" 
d="M59 118v23l372 201l-372 202v23l394 -213v-25z" />
    <glyph glyph-name="question" unicode="?" horiz-adv-x="445" 
d="M175 196l-68 172q40 14 68.5 27.5t66.5 39t58.5 63t20.5 85.5q0 54 -27 89.5t-65 35.5q-28 0 -55 -22t-99 -102h-7l-33 96q108 49 196 49q76 0 130 -44.5t54 -123.5q0 -43 -18.5 -81.5t-44.5 -65.5t-62 -50.5t-64 -36.5t-58 -24l16 -105zM171 -4q-26 0 -45.5 19t-19.5 44
q0 26 19.5 45t45.5 19t45.5 -19t19.5 -45q0 -25 -19.5 -44t-45.5 -19z" />
    <glyph glyph-name="at" unicode="@" horiz-adv-x="906" 
d="M387 -152q-148 0 -244.5 80t-96.5 220q0 120 72 225.5t185.5 166t236.5 60.5q80 0 143.5 -27.5t100.5 -71.5t56.5 -94t19.5 -100q0 -80 -46.5 -149.5t-116 -108t-141.5 -38.5q-76 0 -77 58q0 25 27 85q-39 -64 -92 -102t-105 -38q-47 0 -75.5 27t-28.5 75q0 67 53.5 141
t136 124.5t159.5 50.5q33 0 58 -11l97 18l-138 -358q-7 -12 -7 -25q0 -20 25 -20q21 0 42 7q28 8 59 27.5t62 50.5t51.5 79t20.5 103q0 49 -15.5 96t-46.5 89t-87.5 68t-130.5 26q-116 0 -221.5 -58.5t-170.5 -158.5t-65 -213q0 -133 85.5 -210t219.5 -77q143 0 280 92h41
q-165 -109 -326 -109zM368 72q71 0 152 123l80 209q-19 10 -44 10q-89 0 -171 -94.5t-82 -174.5q0 -34 17 -53.5t48 -19.5z" />
    <glyph glyph-name="A" unicode="A" horiz-adv-x="752" 
d="M12 0v18l87 3l222 588l-45 106h113l269 -694l81 -3v-18h-282v18l89 3l-86 228h-253l-86 -228l88 -3v-18h-197zM216 270h236l-118 309h-1z" />
    <glyph glyph-name="B" unicode="B" horiz-adv-x="660" 
d="M35 0v18l85 3v673l-85 3v18h320q116 0 176.5 -49t60.5 -122q0 -60 -42 -101.5t-123 -58.5v-2q95 -13 144.5 -63t49.5 -124q0 -84 -70.5 -139.5t-200.5 -55.5h-315zM228 384h111q62 0 104 43.5t42 114.5q0 64 -38 108t-109 44h-110v-310zM228 21h111q80 0 124.5 42
t44.5 128q0 85 -42 128.5t-106 43.5h-132v-342z" />
    <glyph glyph-name="C" unicode="C" horiz-adv-x="655" 
d="M384 -12q-145 0 -241.5 98t-96.5 273q0 164 96.5 266t240.5 102q92 0 215 -37l12 -133h-7q-101 97 -137.5 123t-81.5 26q-92 0 -157 -90t-65 -257q0 -165 65.5 -257.5t158.5 -92.5q39 0 75 25t141 123h7l-12 -131q-122 -38 -213 -38z" />
    <glyph glyph-name="D" unicode="D" horiz-adv-x="733" 
d="M35 0v18l85 3v673l-85 3v18h297q160 0 257.5 -99t97.5 -258q0 -161 -97 -259.5t-259 -98.5h-296zM228 21h97q123 0 184.5 90t61.5 245q0 156 -61.5 247t-183.5 91h-98v-673z" />
    <glyph glyph-name="E" unicode="E" horiz-adv-x="644" 
d="M35 0v18l85 3v673l-85 3v18h510l19 -179h-9q-69 104 -93 131t-55 27h-179v-313h182q18 0 36 19.5t51 67.5h8v-194h-8q-33 47 -51 66.5t-36 19.5h-182v-339h204q32 0 58.5 29t94.5 134h8l-20 -184h-538z" />
    <glyph glyph-name="F" unicode="F" horiz-adv-x="586" 
d="M35 0v18l85 3v673l-85 3v18h499l19 -179h-9q-68 103 -92.5 130.5t-54.5 27.5h-169v-313h171q18 0 35.5 19t51.5 68h8v-194h-8q-24 34 -34.5 48t-25 26t-27.5 12h-171v-339l110 -3v-18h-303z" />
    <glyph glyph-name="G" unicode="G" horiz-adv-x="704" 
d="M392 -10q-158 0 -252 98.5t-94 266.5t97 270t248 102q101 0 214 -37l12 -132h-7q-97 93 -138 120.5t-80 27.5q-100 0 -165 -92.5t-65 -259.5q0 -162 64.5 -252.5t168.5 -90.5q45 0 86 15.5t63 37.5v255h-179v21h284v-287l-63 -8q-108 -55 -194 -55z" />
    <glyph glyph-name="H" unicode="H" horiz-adv-x="784" 
d="M35 0v18l85 3v673l-85 3v18h278v-18l-85 -3v-311h332v311l-85 3v18h277v-18l-85 -3v-673l85 -3v-18h-277v18l85 3v341h-332v-341l85 -3v-18h-278z" />
    <glyph glyph-name="I" unicode="I" horiz-adv-x="344" 
d="M35 0v18l85 3v673l-85 3v18h278v-18l-85 -3v-673l85 -3v-18h-278z" />
    <glyph glyph-name="J" unicode="J" horiz-adv-x="516" 
d="M222 -10q-84 0 -158 46l15 145h7q55 -108 79.5 -139t56.5 -31q79 0 79 128v555l-85 3v18h278v-18l-85 -3v-534q0 -87 -56.5 -128.5t-130.5 -41.5z" />
    <glyph glyph-name="K" unicode="K" horiz-adv-x="714" 
d="M35 0v18l85 3v673l-85 3v18h278v-18l-85 -3v-395l310 395l-108 3v18h231v-18l-95 -3l-250 -316l93 10l197 -303q3 -5 13 -15t28 -28.5t35 -36.5v-5h-143l-233 365l-78 -100v-244l85 -3v-18h-278z" />
    <glyph glyph-name="L" unicode="L" horiz-adv-x="619" 
d="M35 0v18l85 3v673l-85 3v18h278v-18l-85 -3v-673h190q32 0 59 29t97 134h5l-20 -184h-524z" />
    <glyph glyph-name="M" unicode="M" horiz-adv-x="931" 
d="M899 697l-85 -3v-673l85 -3v-18h-277v18l85 3v657h-2l-272 -685h-15l-274 633h-1v-605l97 -3v-18h-216v18l97 3v625l-96 65v4h196l246 -581l231 581h201v-18z" />
    <glyph glyph-name="N" unicode="N" horiz-adv-x="749" 
d="M28 0v18l98 3v627l-96 63v4h184l399 -548v527l-97 3v18h215v-18l-97 -3v-694h-20l-465 630h-2v-609l97 -3v-18h-216z" />
    <glyph glyph-name="O" unicode="O" horiz-adv-x="767" 
d="M384 -12q-148 0 -243 103.5t-95 266.5t95 266t243 103q147 0 242 -103t95 -266t-95 -266.5t-242 -103.5zM385 9q93 0 157 96.5t64 252.5q0 155 -64.5 251.5t-158.5 96.5q-93 0 -157 -97t-64 -253q0 -155 64.5 -251t158.5 -96z" />
    <glyph glyph-name="P" unicode="P" horiz-adv-x="635" 
d="M35 0v18l85 3v673l-85 3v18h308q111 0 186 -53t75 -155q0 -103 -76 -157.5t-187 -54.5h-113v-274l106 -3v-18h-299zM228 316h93q172 0 172 191q0 91 -43 139t-125 48h-97v-378z" />
    <glyph glyph-name="Q" unicode="Q" horiz-adv-x="767" 
d="M633 -166l-200 157q-24 -3 -49 -3q-148 0 -243 103.5t-95 266.5t95 266t243 103q147 0 242 -103t95 -266q0 -139 -70.5 -236.5t-186.5 -124.5v-1l116 -9l208 -146v-7h-155zM385 9q93 0 157 96.5t64 252.5q0 155 -64.5 251.5t-158.5 96.5q-93 0 -157 -97t-64 -253
q0 -155 64.5 -251t158.5 -96z" />
    <glyph glyph-name="R" unicode="R" horiz-adv-x="697" 
d="M35 0v18l85 3v673l-85 3v18h317q114 0 176.5 -53t62.5 -137q0 -88 -65 -140t-181 -52h-28v-1l122 -36l147 -211q4 -6 18 -19t34.5 -31.5t29.5 -27.5v-7h-150l-227 332h-63v-311l85 -3v-18h-278zM228 353h88q82 0 124.5 40.5t42.5 131.5q0 82 -41.5 125.5t-106.5 43.5
h-107v-341z" />
    <glyph glyph-name="S" unicode="S" horiz-adv-x="541" 
d="M281 -12q-93 0 -220 54l-13 140h7q97 -112 137.5 -142.5t90.5 -30.5q59 0 97.5 37.5t38.5 98.5q0 97 -119 149l-109 50q-136 61 -136 190q0 90 61 141.5t152 51.5q86 0 175 -31l12 -124h-8q-74 79 -112 106.5t-69 27.5q-49 0 -90 -31t-41 -92q0 -92 118 -145l96 -44
q154 -69 154 -209q0 -95 -66 -146t-156 -51z" />
    <glyph glyph-name="T" unicode="T" horiz-adv-x="671" 
d="M198 0v18l85 3v673h-97q-30 0 -54.5 -28t-91.5 -130h-7l19 179h571l19 -179h-9q-67 102 -91.5 130t-54.5 28h-96v-673l85 -3v-18h-278z" />
    <glyph glyph-name="U" unicode="U" horiz-adv-x="719" 
d="M361 -12q-48 0 -89.5 12t-79.5 39t-60 78.5t-22 121.5v455l-85 3v18h278v-18l-85 -3v-447q0 -106 48.5 -164t130.5 -58q81 0 137.5 51t56.5 150v468l-85 3v18h191v-18l-85 -3v-469q0 -109 -69 -173t-182 -64z" />
    <glyph glyph-name="V" unicode="V" horiz-adv-x="704" 
d="M705 715v-18l-87 -3l-259 -701h-15l-260 701l-82 3v18h281v-18l-88 -3l199 -547l202 547l-106 3v18h215z" />
    <glyph glyph-name="W" unicode="W" horiz-adv-x="1069" 
d="M1070 715v-18l-87 -3l-254 -701h-15l-177 466l-181 -466h-15l-257 701l-81 3v18h281v-18l-88 -3l199 -545l131 338l-78 207l-81 3v18h282v-18l-89 -3l204 -547l197 547l-106 3v18h215z" />
    <glyph glyph-name="X" unicode="X" horiz-adv-x="755" 
d="M28 0v18l86 3l218 319l-222 354l-81 3v18h289v-18l-89 -3l176 -285l200 285l-100 3v18h212v-18l-86 -3l-214 -302l232 -371l81 -3v-18h-289v18l90 3l-186 301l-206 -301l100 -3v-18h-211z" />
    <glyph glyph-name="Y" unicode="Y" horiz-adv-x="686" 
d="M207 0v18l85 3v296l-230 377l-79 3v18h289v-18l-91 -3l209 -342l206 342l-92 3v18h204v-18l-88 -3l-221 -366v-307l85 -3v-18h-277z" />
    <glyph glyph-name="Z" unicode="Z" horiz-adv-x="620" 
d="M53 0v14l404 680h-225q-31 0 -56 -28t-92 -130h-8l19 179h478v-13l-404 -681h244q32 0 59.5 29t93.5 134h9l-20 -184h-502z" />
    <glyph glyph-name="bracketleft" unicode="[" horiz-adv-x="338" 
d="M103 -186v961h183v-20h-111v-921h111v-20h-183z" />
    <glyph glyph-name="backslash" unicode="\" horiz-adv-x="356" 
d="M346 -117h-22l-289 889h22z" />
    <glyph glyph-name="bracketright" unicode="]" horiz-adv-x="338" 
d="M235 -186h-183v20h110v921h-110v20h183v-961z" />
    <glyph glyph-name="asciicircum" unicode="^" horiz-adv-x="571" 
d="M103 365l177 350h13l178 -350h-24l-160 315l-161 -315h-23z" />
    <glyph glyph-name="underscore" unicode="_" horiz-adv-x="506" 
d="M47 -110v22h415v-22h-415z" />
    <glyph glyph-name="grave" unicode="`" horiz-adv-x="305" 
d="M247 542l-192 134l79 59l119 -189z" />
    <glyph glyph-name="a" unicode="a" horiz-adv-x="508" 
d="M164 -10q-56 0 -95.5 31.5t-39.5 87.5q0 43 25.5 78t69.5 58t91.5 38t102.5 24v80q0 86 -62 86q-19 0 -43 -20t-100 -97h-4l-51 78q137 59 213 59q69 0 108 -36.5t39 -98.5l-1 -276q0 -13 13 -23.5t58 -31.5v-6l-168 -30v87h-1q-24 -39 -65 -63.5t-90 -24.5zM211 41
q59 0 107 60v186q-83 -20 -136.5 -63.5t-53.5 -98.5q0 -38 24 -61t59 -23z" />
    <glyph glyph-name="b" unicode="b" horiz-adv-x="565" 
d="M328 -10q-78 0 -146 88h-1l-91 -84h-7v652l-71 61v6l173 32v-340q68 88 154 88q83 0 137.5 -71.5t54.5 -175.5q0 -112 -61.5 -184t-141.5 -72zM305 27q60 0 91 59.5t31 151.5q0 95 -33 153t-94 58q-62 0 -115 -68v-282q54 -72 120 -72z" />
    <glyph glyph-name="c" unicode="c" horiz-adv-x="467" 
d="M246 -10q-88 0 -150 70t-62 181t64 181.5t152 70.5q68 0 158 -38l-14 -103h-5q-81 78 -106.5 98.5t-46.5 20.5q-41 0 -75 -51t-34 -138q0 -99 45.5 -157t115.5 -58q94 0 143 83l8 -2q-9 -60 -60 -109t-133 -49z" />
    <glyph glyph-name="d" unicode="d" horiz-adv-x="572" 
d="M225 -10q-82 0 -136.5 71.5t-54.5 175.5q0 112 61.5 184t141.5 72q76 0 143 -85v239l-72 61v5l173 32v-726h71v-18l-91 -1l-80 -2l1 83h-1q-67 -91 -156 -91zM265 34q60 0 115 68v282q-55 72 -121 72q-59 0 -90 -59.5t-31 -151.5q0 -95 33 -153t94 -58z" />
    <glyph glyph-name="e" unicode="e" horiz-adv-x="491" 
d="M262 -10q-98 0 -163 70t-65 180q0 109 62.5 181t156.5 72q87 0 142 -60.5t55 -144.5v-11h-323q1 -105 50 -157.5t117 -52.5q44 0 87.5 21.5t70.5 63.5l6 -2q-11 -66 -66 -113t-130 -47zM128 297h222q-3 73 -31 124t-74 51q-45 0 -78 -49t-39 -126z" />
    <glyph glyph-name="f" unicode="f" horiz-adv-x="292" 
d="M23 0v18l71 1v441h-71v21h71v32q0 111 49 168.5t134 57.5q63 0 165 -23l-51 -84h-5q-68 53 -92 68.5t-39 15.5q-9 0 -18 -4.5t-19 -16t-16.5 -37t-6.5 -62.5v-115h137v-2l-8 -19h-129v-441l87 -1v-18h-259z" />
    <glyph glyph-name="g" unicode="g" horiz-adv-x="523" 
d="M221 -226q-75 0 -135.5 25.5t-60.5 72.5q0 36 34.5 65t73.5 44v1q-88 3 -88 64q0 25 28 51t99 70v1q-60 16 -92.5 57.5t-32.5 99.5q0 77 55.5 122.5t147.5 45.5h24l188 60h4l-17 -84l-144 13v-1q60 -17 101.5 -55t41.5 -102q0 -70 -54.5 -117.5t-148.5 -47.5q-21 0 -51 4
q-59 -49 -59 -69q0 -22 26 -22q21 0 93 1t83 1q160 0 160 -117q0 -59 -47 -102.5t-107.5 -62t-121.5 -18.5zM248 179q44 0 73.5 37.5t29.5 108.5q0 72 -29.5 110t-72.5 38q-42 0 -72.5 -38.5t-30.5 -109.5q0 -70 29.5 -108t72.5 -38zM234 -204q72 0 128.5 34t56.5 83
q0 32 -23 53t-65 21q-45 0 -170 -5q-56 -42 -56 -93q0 -44 35.5 -68.5t93.5 -24.5z" />
    <glyph glyph-name="h" unicode="h" horiz-adv-x="600" 
d="M24 0v18l71 1v627l-72 61v6l173 32v-356q76 104 173 104q60 0 100.5 -34.5t40.5 -105.5v-334l71 -1v-18h-244v18l71 1v307q0 55 -23.5 81.5t-64.5 26.5q-67 0 -124 -69v-346l71 -1v-18h-243z" />
    <glyph glyph-name="i" unicode="i" horiz-adv-x="287" 
d="M132 570q-26 0 -44 17.5t-18 42.5q0 24 18.5 42t43.5 18t43.5 -18t18.5 -42q0 -25 -18.5 -42.5t-43.5 -17.5zM24 0v18l71 1v375l-72 54v5l173 45v-479l71 -1v-18h-243z" />
    <glyph glyph-name="j" unicode="j" horiz-adv-x="297" 
d="M137 570q-26 0 -44 17.5t-18 42.5q0 24 18.5 42t43.5 18t43.5 -18t18.5 -42q0 -25 -18.5 -42.5t-43.5 -17.5zM7 -218l-3 12q52 28 73.5 66.5t21.5 112.5v419l-72 55v6l173 45v-474q0 -104 -49.5 -161t-143.5 -81z" />
    <glyph glyph-name="k" unicode="k" horiz-adv-x="570" 
d="M24 0v18l71 1v629l-72 61v4l173 32v-510l191 154q11 8 11 17q0 8 -8 13l-59 48v14h204v-5q-20 -16 -59.5 -45t-59.5 -45l-146 -118l80 18l153 -220q6 -11 48 -62v-4h-122l-172 258l-61 -50v-189l71 -1v-18h-243z" />
    <glyph glyph-name="l" unicode="l" horiz-adv-x="287" 
d="M24 0v18l71 1v627l-72 61v6l173 32v-726l71 -1v-18h-243z" />
    <glyph glyph-name="m" unicode="m" horiz-adv-x="886" 
d="M24 0v18l71 1v373l-72 55v6l172 45l-3 -113h1q31 47 74 77.5t94 30.5q49 0 86.5 -27t46.5 -82q30 48 73 78.5t93 30.5q57 0 96.5 -34.5t39.5 -105.5v-334l70 -1v-18h-242v18l70 1v306q0 108 -82 108q-62 0 -116 -71v-343l70 -1v-18h-242v18l70 1v306q0 108 -81 108
q-61 0 -117 -69v-345l70 -1v-18h-242z" />
    <glyph glyph-name="n" unicode="n" horiz-adv-x="600" 
d="M24 0v18l71 1v373l-72 55v6l172 45l-2 -111h1q76 106 175 106q60 0 100.5 -34.5t40.5 -105.5v-334l71 -1v-18h-244v18l71 1v307q0 55 -23.5 81.5t-64.5 26.5q-67 0 -124 -69v-346l71 -1v-18h-243z" />
    <glyph glyph-name="o" unicode="o" horiz-adv-x="555" 
d="M277 -10q-112 0 -177.5 72.5t-65.5 178.5q0 107 65.5 179.5t177.5 72.5q113 0 178.5 -72.5t65.5 -179.5q0 -106 -65.5 -178.5t-178.5 -72.5zM277 11q58 0 97 58t39 172q0 116 -38.5 173.5t-97.5 57.5q-56 0 -95.5 -59t-39.5 -172t39.5 -171.5t95.5 -58.5z" />
    <glyph glyph-name="p" unicode="p" horiz-adv-x="568" 
d="M17 -210v18l71 1v583l-72 55v6l172 45l-2 -95h1q67 90 156 90q83 0 137 -71.5t54 -175.5q0 -112 -61.5 -184t-141.5 -72q-78 0 -142 85v-266l99 -1v-18h-271zM309 27q59 0 90 59.5t31 151.5q0 95 -32.5 153t-93.5 58q-63 0 -115 -68v-283q53 -71 120 -71z" />
    <glyph glyph-name="q" unicode="q" horiz-adv-x="565" 
d="M280 -210v18l100 1v269q-68 -88 -155 -88q-82 0 -136.5 71.5t-54.5 175.5q0 112 61.5 184t141.5 72q77 0 143 -85h1l94 90h6v-689l71 -1v-18h-272zM265 34q59 0 115 68v282q-55 72 -121 72q-59 0 -90 -59.5t-31 -151.5q0 -95 33 -153t94 -58z" />
    <glyph glyph-name="r" unicode="r" horiz-adv-x="405" 
d="M24 0v18l71 1v378l-72 52v4l172 45l-3 -110h2q33 51 64.5 78t73.5 27q23 0 50 -15l-19 -95q-82 37 -104 37q-13 0 -26.5 -12t-36.5 -47v-342l92 -1v-18h-264z" />
    <glyph glyph-name="s" unicode="s" horiz-adv-x="430" 
d="M217 -10q-80 0 -162 35l-12 116h4q84 -87 112 -108.5t61 -21.5q40 0 66.5 23t26.5 59q0 60 -84 95l-70 30q-116 48 -116 143q0 64 50 98t116 34q59 0 145 -20l11 -105h-4q-79 67 -107 85.5t-50 18.5q-33 0 -57 -21t-24 -56q0 -33 21 -54.5t62 -38.5l72 -31
q116 -49 116 -145q0 -61 -50.5 -98.5t-126.5 -37.5z" />
    <glyph glyph-name="t" unicode="t" horiz-adv-x="334" 
d="M199 -10q-50 0 -85 31.5t-35 96.5v342h-69v21h69v58l100 88h2v-146h143v-21h-143v-327q0 -50 21.5 -72.5t53.5 -22.5q27 0 59 16l5 -6q-44 -58 -121 -58z" />
    <glyph glyph-name="u" unicode="u" horiz-adv-x="599" 
d="M235 -10q-61 0 -101 34.5t-40 105.5v332l-71 1v18h172v-325q0 -107 88 -107q66 0 124 69v344l-71 1v18h173v-462h70v-18l-90 -1l-81 -2l2 98h-2q-75 -106 -173 -106z" />
    <glyph glyph-name="v" unicode="v" horiz-adv-x="531" 
d="M527 481v-18l-70 -1l-187 -466h-14l-187 466l-66 1v18h248v-18l-76 -1l127 -329l132 329l-81 1v18h174z" />
    <glyph glyph-name="w" unicode="w" horiz-adv-x="816" 
d="M812 481v-18l-70 -1l-190 -466h-15l-127 314l-138 -314h-14l-190 466l-65 1v18h247v-18l-76 -1l133 -337l92 212l-51 125l-66 1v18h247v-18l-76 -1l132 -333l134 333l-81 1v18h174z" />
    <glyph glyph-name="x" unicode="x" horiz-adv-x="560" 
d="M7 0v18l76 1l151 203l-159 240l-68 1v18h258v-18l-74 -1l115 -178l130 178l-83 1v18h184v-18l-75 -1l-145 -194l165 -249l68 -1v-18h-259v18l74 1l-120 186l-136 -186l82 -1v-18h-184z" />
    <glyph glyph-name="y" unicode="y" horiz-adv-x="546" 
d="M147 -206q-36 0 -66 15l-6 122h4q53 -51 74 -66t36 -15q26 0 37 26l34 89l-191 497l-66 1v18h246v-18l-75 -1l136 -368l139 368l-81 1v18h174v-18l-70 -1l-230 -603q-13 -33 -40 -49t-55 -16z" />
    <glyph glyph-name="z" unicode="z" horiz-adv-x="469" 
d="M41 0v11l274 449h-127q-22 0 -44 -22.5t-83 -103.5h-4l13 147h361v-11l-277 -449h148q23 0 45 23.5t79 108.5h5l-13 -153h-377z" />
    <glyph glyph-name="braceleft" unicode="{" horiz-adv-x="371" 
d="M315 -202q-84 14 -129 69.5t-45 182.5v139q0 42 -24 67.5t-54 31.5v12q30 6 54 31.5t24 67.5v139q0 127 45 182.5t129 69.5l4 -11q-57 -16 -81 -72t-24 -163v-143q0 -49 -32.5 -78t-82.5 -29q50 0 82.5 -29t32.5 -78v-143q0 -107 24 -163t81 -72z" />
    <glyph glyph-name="bar" unicode="|" horiz-adv-x="209" 
d="M95 -117v889h22v-889h-22z" />
    <glyph glyph-name="braceright" unicode="}" horiz-adv-x="371" 
d="M55 -202l-3 11q57 16 81 72t24 163v143q0 49 32 78t83 29q-51 0 -83 29t-32 78v143q0 107 -24 163t-81 72l3 11q85 -14 130 -69.5t45 -182.5v-139q0 -42 24 -67.5t54 -31.5v-12q-30 -6 -54 -31.5t-24 -67.5v-139q0 -127 -45 -182.5t-130 -69.5z" />
    <glyph glyph-name="asciitilde" unicode="~" horiz-adv-x="459" 
d="M323 291q-30 0 -87.5 21t-83.5 21q-49 0 -105 -36v33q56 34 108 34q32 0 87.5 -21t80.5 -21q40 0 92 34v-32q-52 -33 -92 -33z" />
    <glyph glyph-name="exclamdown" unicode="&#xa1;" horiz-adv-x="179" 
d="M91 489q26 0 45.5 -19t19.5 -44q0 -26 -19.5 -45t-45.5 -19t-45.5 19t-19.5 45q0 25 19.5 44t45.5 19zM84 290h12l56 -517v-5h-123v5z" />
    <glyph glyph-name="cent" unicode="&#xa2;" horiz-adv-x="467" 
d="M431 150l8 -2q-9 -60 -60 -109t-133 -49q-11 0 -31 2l-13 -108h-19l14 112q-71 19 -117 85t-46 160q0 111 64 181.5t152 70.5h7l11 93h19l-11 -94q62 -8 132 -37l-14 -103h-5q-95 92 -117 107l-46 -378q30 -14 62 -14q94 0 143 83zM127 282q0 -135 81 -191l46 377
q-9 3 -18 3q-41 0 -75 -51t-34 -138z" />
    <glyph glyph-name="sterling" unicode="&#xa3;" 
d="M39 0v17l53 72q21 26 32.5 44t21.5 49.5t10 66.5q0 29 -7 66h-111v21h108q-3 14 -10.5 44t-12 47.5t-8 43t-3.5 47.5q0 94 55 151.5t139 57.5q63 0 157 -28l11 -125h-7q-79 84 -108 108t-59 24q-47 0 -75.5 -33t-28.5 -90q0 -41 25 -121.5t25 -119.5v-6h153v-21h-153
q-4 -61 -31.5 -111t-93.5 -109h363l-34 -95h-411z" />
    <glyph glyph-name="currency" unicode="&#xa4;" horiz-adv-x="554" 
d="M279 119q-84 0 -143 54l-44 -44l-17 18l43 43q-55 62 -55 145q0 84 54 143l-42 43l17 17l43 -41q61 53 144 53q81 0 144 -55l42 42l17 -17l-42 -43q54 -62 54 -142q0 -82 -54 -143l42 -44l-17 -17l-43 43q-61 -55 -143 -55zM279 143q79 0 134 56t55 136t-55 135.5
t-134 55.5q-81 0 -136 -55.5t-55 -135.5t55 -136t136 -56z" />
    <glyph glyph-name="yen" unicode="&#xa5;" horiz-adv-x="686" 
d="M708 715v-18l-88 -3l-214 -354h130v-21h-137v-87h138v-21h-138v-190l85 -3v-18h-277v18l85 3v190h-143v21h143v85l-1 2h-143v21h130l-216 354l-79 3v18h289v-18l-91 -3l209 -342l206 342l-92 3v18h204z" />
    <glyph glyph-name="section" unicode="&#xa7;" horiz-adv-x="558" 
d="M290 -151q-76 0 -147 38l-11 131h7q76 -98 101 -123t53 -25q37 0 64 28t27 68q0 42 -34.5 76.5t-112.5 74.5q-27 14 -41 21.5t-39 23t-38.5 29.5t-29 33t-22.5 41.5t-7 48.5q0 93 98 148q-47 45 -47 110q0 70 48.5 112.5t123.5 42.5q58 0 150 -28l9 -122h-6
q-70 79 -99 104t-58 25q-38 0 -66.5 -27.5t-28.5 -70.5q0 -45 33 -76t104 -66q90 -47 122 -73q65 -55 65 -127q0 -52 -28.5 -86t-77.5 -61q54 -49 54 -114q0 -68 -46.5 -112t-119.5 -44zM388 132q49 36 49 92q0 53 -38 87t-120 75q-74 36 -106 63q-50 -35 -50 -93
q0 -28 11.5 -51t38 -43.5t44 -30.5t55.5 -30q93 -51 116 -69z" />
    <glyph glyph-name="dieresis" unicode="&#xa8;" horiz-adv-x="402" 
d="M110 573q-22 0 -38.5 16.5t-16.5 38.5q0 23 16.5 39.5t38.5 16.5t39 -17t17 -39t-16.5 -38.5t-39.5 -16.5zM294 573q-22 0 -38.5 16.5t-16.5 38.5q0 23 16.5 39.5t38.5 16.5t39 -17t17 -39t-16.5 -38.5t-39.5 -16.5z" />
    <glyph glyph-name="copyright" unicode="&#xa9;" horiz-adv-x="854" 
d="M428 -2q-151 0 -258.5 105t-107.5 254t107.5 254t258.5 105t257.5 -105t106.5 -254t-106.5 -254t-257.5 -105zM428 20q141 0 241.5 101t100.5 236q0 136 -101 237t-241 101q-139 0 -240.5 -99t-101.5 -239q0 -139 102 -238t240 -99zM432 139q-88 0 -148.5 57t-60.5 167
q0 103 60 162.5t152 59.5q52 0 131 -21l9 -103h-4q-79 81 -98 94q-19 12 -38 12q-47 0 -81 -52t-34 -152t34 -152.5t80 -52.5q22 0 44.5 18t91.5 88h5l-10 -104q-81 -21 -133 -21z" />
    <glyph glyph-name="ordfeminine" unicode="&#xaa;" horiz-adv-x="385" 
d="M132 385q-38 0 -65 21t-27 58q0 53 58 86t138 45v56q0 50 -41 50q-14 0 -32 -13t-67 -62h-1l-36 53q94 39 146 39q47 0 74 -24.5t27 -65.5v-181q0 -12 8.5 -18.5t38.5 -20.5v-2l-116 -20v58q-38 -59 -105 -59zM166 423q41 0 70 38v118q-58 -14 -92.5 -40t-34.5 -62
q0 -27 16 -40.5t41 -13.5z" />
    <glyph glyph-name="guillemotleft" unicode="&#xab;" horiz-adv-x="523" 
d="M263 44l-228 218v9l228 219h13l-139 -223l139 -223h-13zM450 44l-228 218v9l228 219h14l-140 -223l140 -223h-14z" />
    <glyph glyph-name="registered" unicode="&#xae;" horiz-adv-x="649" 
d="M325 783q105 0 181.5 -75.5t76.5 -178.5q0 -104 -76 -179.5t-182 -75.5t-182.5 75.5t-76.5 179.5q0 103 76.5 178.5t182.5 75.5zM325 295q98 0 168 70t70 164q0 93 -70 163t-168 70q-97 0 -167.5 -68.5t-70.5 -164.5q0 -97 70.5 -165.5t167.5 -68.5zM383 506l61 -97
l32 -25v-7h-73l-93 143h-27v-123q0 -3 4 -6l32 -4v-10h-128v10l30 4q6 4 6 6v273l-6 6l-30 5v10h144q52 0 80 -23.5t28 -61.5t-30 -61.5t-81 -23.5h-11v-1zM283 676v-143h34q71 0 71 74q0 32 -18 50.5t-45 18.5h-42z" />
    <glyph glyph-name="macron" unicode="&#xaf;" horiz-adv-x="355" 
d="M55 594v57h248v-57h-248z" />
    <glyph glyph-name="degree" unicode="&#xb0;" horiz-adv-x="397" 
d="M200 453q-58 0 -99.5 40.5t-41.5 99.5t41.5 99.5t99.5 40.5t99.5 -40.5t41.5 -99.5t-41.5 -99.5t-99.5 -40.5zM200 476q49 0 82 34.5t33 82.5q0 50 -33 84t-82 34t-82.5 -34t-33.5 -84q0 -48 34 -82.5t82 -34.5z" />
    <glyph glyph-name="uni00B2" unicode="&#xb2;" horiz-adv-x="270" 
d="M24 400v13l42 43q41 42 59 62.5t36.5 57t18.5 71.5q0 59 -40 59q-15 0 -32.5 -15t-63.5 -66h-3l6 73q47 22 94 22q42 0 69.5 -18.5t27.5 -56.5q0 -37 -35 -78t-121 -111v-1h165l-19 -55h-204z" />
    <glyph glyph-name="uni00B3" unicode="&#xb3;" horiz-adv-x="282" 
d="M130 394q-44 0 -99 19l11 71h3q38 -49 52.5 -62t32.5 -13q25 0 43 20t18 55q1 41 -19.5 63.5t-50.5 22.5q-15 0 -33 -8l-10 13l98 85h-134l20 55h181v-13l-142 -122v-2q20 11 51 11q39 0 70 -26t30 -70q0 -45 -37.5 -72t-84.5 -27z" />
    <glyph glyph-name="acute" unicode="&#xb4;" horiz-adv-x="305" 
d="M61 542l-6 4l119 189l79 -59z" />
    <glyph glyph-name="paragraph" unicode="&#xb6;" horiz-adv-x="504" 
d="M139 0v18l85 3v362h-24q-68 0 -116.5 48.5t-48.5 117.5q0 68 48.5 117t116.5 49h70v-715h-131zM341 0v715h132v-18l-85 -3v-673l85 -3v-18h-132z" />
    <glyph glyph-name="periodcentered" unicode="&#xb7;" horiz-adv-x="256" 
d="M130 216q-28 0 -49.5 21t-21.5 49t21.5 49.5t49.5 21.5t49 -21.5t21 -49.5t-21 -49t-49 -21z" />
    <glyph glyph-name="cedilla" unicode="&#xb8;" horiz-adv-x="315" 
d="M157 -219q-42 0 -102 17l37 62h5q30 -38 41.5 -49.5t22.5 -11.5q15 0 26.5 12.5t11.5 34.5q0 60 -86 71l-16 2l67 76h21l-29 -32q44 -6 75.5 -30t31.5 -65t-31.5 -64t-74.5 -23z" />
    <glyph glyph-name="uni00B9" unicode="&#xb9;" horiz-adv-x="204" 
d="M27 400v12l49 1v241l-48 19v4l107 43v-307l49 -1v-12h-157z" />
    <glyph glyph-name="ordmasculine" unicode="&#xba;" horiz-adv-x="410" 
d="M206 384q-77 0 -121.5 47.5t-44.5 119.5q0 71 45 119t121 48q77 0 122 -47.5t45 -119.5t-45 -119.5t-122 -47.5zM206 400q39 0 65 37.5t26 113.5q0 78 -25.5 114t-65.5 36q-38 0 -64 -37t-26 -113t26 -113.5t64 -37.5z" />
    <glyph glyph-name="guillemotright" unicode="&#xbb;" horiz-adv-x="523" 
d="M48 44h-13l139 223l-139 223h13l228 -219v-9zM235 44h-13l139 223l-139 223h13l228 -219v-9z" />
    <glyph glyph-name="onequarter" unicode="&#xbc;" horiz-adv-x="700" 
d="M27 400v12l49 1v241l-48 19v4l107 43v-307l49 -1v-12h-157zM104 0l493 715h25l-493 -715h-25zM575 0v89h-147v8l113 218h83v-3l-181 -210h132v83l59 17v-100h46v-13h-46v-89h-59z" />
    <glyph glyph-name="onehalf" unicode="&#xbd;" horiz-adv-x="713" 
d="M27 400v12l49 1v241l-48 19v4l107 43v-307l49 -1v-12h-157zM104 0l493 715h25l-493 -715h-25zM467 0v13l42 43q41 42 59 62.5t36.5 57t18.5 71.5q0 59 -40 59q-15 0 -32.5 -15t-63.5 -66h-3l6 73q53 22 94 22q42 0 69.5 -18.5t27.5 -56.5q0 -37 -34.5 -77.5
t-121.5 -111.5v-1h165l-19 -55h-204z" />
    <glyph glyph-name="threequarters" unicode="&#xbe;" horiz-adv-x="742" 
d="M130 394q-44 0 -99 19l11 71h3q38 -49 52.5 -62t32.5 -13q25 0 43 20t18 55q1 41 -19.5 63.5t-50.5 22.5q-15 0 -33 -8l-10 13l98 85h-134l20 55h181v-13l-142 -122v-2q20 11 51 11q39 0 70 -26t30 -70q0 -45 -37.5 -72t-84.5 -27zM146 0l493 715h25l-493 -715h-25z
M616 0v89h-147v8l113 218h83v-3l-181 -210h132v83l59 17v-100h46v-13h-46v-89h-59z" />
    <glyph glyph-name="questiondown" unicode="&#xbf;" horiz-adv-x="428" 
d="M303 489q26 0 45.5 -19t19.5 -44q0 -26 -19.5 -45t-45.5 -19t-45.5 19t-19.5 45q0 25 19.5 44t45.5 19zM299 289l67 -172q-32 -11 -53.5 -20t-54.5 -28.5t-53.5 -40.5t-36 -54t-15.5 -72q0 -54 27 -89.5t65 -35.5q28 0 55 22t99 102h7l33 -96q-110 -49 -196 -49
q-76 0 -130 44.5t-54 123.5q0 43 18.5 81.5t44.5 65.5t62 50.5t63.5 36.5t57.5 24l-16 106z" />
    <glyph glyph-name="Agrave" unicode="&#xc0;" horiz-adv-x="752" 
d="M429 744l-227 64l59 79l173 -135zM12 0v18l87 3l222 588l-45 106h113l269 -694l81 -3v-18h-282v18l89 3l-86 228h-253l-86 -228l88 -3v-18h-197zM216 270h236l-118 309h-1z" />
    <glyph glyph-name="Aacute" unicode="&#xc1;" horiz-adv-x="752" 
d="M266 744l-4 8l172 135l58 -79zM12 0v18l87 3l222 588l-45 106h113l269 -694l81 -3v-18h-282v18l89 3l-86 228h-253l-86 -228l88 -3v-18h-197zM216 270h236l-118 309h-1z" />
    <glyph glyph-name="Acircumflex" unicode="&#xc2;" horiz-adv-x="752" 
d="M191 748l-4 6l162 153h7l162 -153l-4 -6l-162 69zM12 0v18l87 3l222 588l-45 106h113l269 -694l81 -3v-18h-282v18l89 3l-86 228h-253l-86 -228l88 -3v-18h-197zM216 270h236l-118 309h-1z" />
    <glyph glyph-name="Atilde" unicode="&#xc3;" horiz-adv-x="752" 
d="M405 775q-25 0 -63 15q-42 16 -64 16q-26 0 -51 -29l-8 3q15 90 85 90q26 0 62 -16q38 -16 65 -16t50 29l7 -3q-14 -89 -83 -89zM12 0v18l87 3l222 588l-45 106h113l269 -694l81 -3v-18h-282v18l89 3l-86 228h-253l-86 -228l88 -3v-18h-197zM216 270h236l-118 309h-1z
" />
    <glyph glyph-name="Adieresis" unicode="&#xc4;" horiz-adv-x="752" 
d="M259 761q-25 0 -42 17.5t-17 41.5t17 41.5t42 17.5q24 0 41 -17.5t17 -41.5t-17 -41.5t-41 -17.5zM449 761q-24 0 -41.5 17.5t-17.5 41.5t17.5 41.5t41.5 17.5t41.5 -17.5t17.5 -41.5t-17.5 -41.5t-41.5 -17.5zM12 0v18l87 3l222 588l-45 106h113l269 -694l81 -3v-18
h-282v18l89 3l-86 228h-253l-86 -228l88 -3v-18h-197zM216 270h236l-118 309h-1z" />
    <glyph glyph-name="Aring" unicode="&#xc5;" horiz-adv-x="752" 
d="M354 738q-35 0 -61.5 25.5t-26.5 60.5q0 34 26.5 59t61.5 25q36 0 62 -25t26 -59q0 -36 -26 -61t-62 -25zM354 754q29 0 49.5 21t20.5 49t-20.5 48t-49.5 20t-49.5 -20t-20.5 -48t20.5 -49t49.5 -21zM12 0v18l87 3l222 588l-45 106h113l269 -694l81 -3v-18h-282v18l89 3
l-86 228h-253l-86 -228l88 -3v-18h-197zM216 270h236l-118 309h-1z" />
    <glyph glyph-name="AE" unicode="&#xc6;" horiz-adv-x="987" 
d="M-29 0v18l86 3l396 673l-85 3v18h518l19 -179h-7q-68 102 -93 130t-56 28h-166v-312h165q18 0 35 19t51 68h9v-194h-9q-24 34 -34.5 48t-25 26t-26.5 12h-165v-340h192q33 0 59 28.5t94 134.5h8l-19 -184h-527v18l85 3v267h-236l-157 -267l89 -3v-18h-200zM251 309h224
v381h-1z" />
    <glyph glyph-name="Ccedilla" unicode="&#xc7;" horiz-adv-x="655" 
d="M386 9q39 0 75 25t141 123h7l-12 -131q-115 -37 -210 -38l-23 -25q46 -6 78.5 -30t32.5 -65t-32.5 -64t-77.5 -23q-42 0 -108 17l39 62h4q30 -37 43.5 -49t25.5 -12q16 0 28.5 12.5t12.5 34.5q0 59 -91 71l-17 2l64 69q-139 7 -229.5 104.5t-90.5 266.5q0 164 96.5 266
t240.5 102q92 0 215 -37l12 -133h-7q-101 97 -137.5 123t-81.5 26q-92 0 -157 -90t-65 -257q0 -165 65.5 -257.5t158.5 -92.5z" />
    <glyph glyph-name="Egrave" unicode="&#xc8;" horiz-adv-x="644" 
d="M405 744l-227 64l59 79l173 -135zM35 0v18l85 3v673l-85 3v18h510l19 -179h-9q-69 104 -93 131t-55 27h-179v-313h182q18 0 36 19.5t51 67.5h8v-194h-8q-33 47 -51 66.5t-36 19.5h-182v-339h204q32 0 58.5 29t94.5 134h8l-20 -184h-538z" />
    <glyph glyph-name="Eacute" unicode="&#xc9;" horiz-adv-x="644" 
d="M242 744l-4 8l172 135l58 -79zM35 0v18l85 3v673l-85 3v18h510l19 -179h-9q-69 104 -93 131t-55 27h-179v-313h182q18 0 36 19.5t51 67.5h8v-194h-8q-33 47 -51 66.5t-36 19.5h-182v-339h204q32 0 58.5 29t94.5 134h8l-20 -184h-538z" />
    <glyph glyph-name="Ecircumflex" unicode="&#xca;" horiz-adv-x="644" 
d="M167 748l-4 6l162 153h7l162 -153l-4 -6l-162 69zM35 0v18l85 3v673l-85 3v18h510l19 -179h-9q-69 104 -93 131t-55 27h-179v-313h182q18 0 36 19.5t51 67.5h8v-194h-8q-33 47 -51 66.5t-36 19.5h-182v-339h204q32 0 58.5 29t94.5 134h8l-20 -184h-538z" />
    <glyph glyph-name="Edieresis" unicode="&#xcb;" horiz-adv-x="644" 
d="M235 761q-25 0 -42 17.5t-17 41.5t17 41.5t42 17.5q24 0 41 -17.5t17 -41.5t-17 -41.5t-41 -17.5zM425 761q-24 0 -41.5 17.5t-17.5 41.5t17.5 41.5t41.5 17.5t41.5 -17.5t17.5 -41.5t-17.5 -41.5t-41.5 -17.5zM35 0v18l85 3v673l-85 3v18h510l19 -179h-9
q-69 104 -93 131t-55 27h-179v-313h182q18 0 36 19.5t51 67.5h8v-194h-8q-33 47 -51 66.5t-36 19.5h-182v-339h204q32 0 58.5 29t94.5 134h8l-20 -184h-538z" />
    <glyph glyph-name="Igrave" unicode="&#xcc;" horiz-adv-x="344" 
d="M250 744l-227 64l59 79l173 -135zM35 0v18l85 3v673l-85 3v18h278v-18l-85 -3v-673l85 -3v-18h-278z" />
    <glyph glyph-name="Iacute" unicode="&#xcd;" horiz-adv-x="344" 
d="M87 744l-4 8l172 135l58 -79zM35 0v18l85 3v673l-85 3v18h278v-18l-85 -3v-673l85 -3v-18h-278z" />
    <glyph glyph-name="Icircumflex" unicode="&#xce;" horiz-adv-x="344" 
d="M12 748l-4 6l162 153h7l162 -153l-4 -6l-162 69zM35 0v18l85 3v673l-85 3v18h278v-18l-85 -3v-673l85 -3v-18h-278z" />
    <glyph glyph-name="Idieresis" unicode="&#xcf;" horiz-adv-x="344" 
d="M79 761q-25 0 -42 17.5t-17 41.5t17 41.5t42 17.5q24 0 41 -17.5t17 -41.5t-17 -41.5t-41 -17.5zM269 761q-24 0 -41.5 17.5t-17.5 41.5t17.5 41.5t41.5 17.5t41.5 -17.5t17.5 -41.5t-17.5 -41.5t-41.5 -17.5zM35 0v18l85 3v673l-85 3v18h278v-18l-85 -3v-673l85 -3v-18
h-278z" />
    <glyph glyph-name="Eth" unicode="&#xd0;" horiz-adv-x="733" 
d="M35 0v18l85 3v341h-75v21h75v311l-85 3v18h297q160 0 257.5 -99t97.5 -258q0 -161 -97 -259.5t-259 -98.5h-296zM228 21h97q123 0 184.5 90t61.5 245q0 156 -61.5 247t-183.5 91h-98v-311h118v-21h-118v-341z" />
    <glyph glyph-name="Ntilde" unicode="&#xd1;" horiz-adv-x="749" 
d="M439 775q-25 0 -63 15q-42 16 -64 16q-26 0 -51 -29l-8 3q15 90 85 90q26 0 62 -16q38 -16 65 -16t50 29l7 -3q-13 -89 -83 -89zM28 0v18l98 3v627l-96 63v4h184l399 -548v527l-97 3v18h215v-18l-97 -3v-694h-20l-465 630h-2v-609l97 -3v-18h-216z" />
    <glyph glyph-name="Ograve" unicode="&#xd2;" horiz-adv-x="767" 
d="M459 744l-227 64l59 79l173 -135zM384 -12q-148 0 -243 103.5t-95 266.5t95 266t243 103q147 0 242 -103t95 -266t-95 -266.5t-242 -103.5zM385 9q93 0 157 96.5t64 252.5q0 155 -64.5 251.5t-158.5 96.5q-93 0 -157 -97t-64 -253q0 -155 64.5 -251t158.5 -96z" />
    <glyph glyph-name="Oacute" unicode="&#xd3;" horiz-adv-x="767" 
d="M296 744l-4 8l172 135l58 -79zM384 -12q-148 0 -243 103.5t-95 266.5t95 266t243 103q147 0 242 -103t95 -266t-95 -266.5t-242 -103.5zM385 9q93 0 157 96.5t64 252.5q0 155 -64.5 251.5t-158.5 96.5q-93 0 -157 -97t-64 -253q0 -155 64.5 -251t158.5 -96z" />
    <glyph glyph-name="Ocircumflex" unicode="&#xd4;" horiz-adv-x="767" 
d="M222 748l-4 6l162 153h7l162 -153l-4 -6l-162 69zM384 -12q-148 0 -243 103.5t-95 266.5t95 266t243 103q147 0 242 -103t95 -266t-95 -266.5t-242 -103.5zM385 9q93 0 157 96.5t64 252.5q0 155 -64.5 251.5t-158.5 96.5q-93 0 -157 -97t-64 -253q0 -155 64.5 -251
t158.5 -96z" />
    <glyph glyph-name="Otilde" unicode="&#xd5;" horiz-adv-x="767" 
d="M436 775q-25 0 -63 15q-42 16 -64 16q-26 0 -51 -29l-8 3q15 90 85 90q26 0 62 -16q38 -16 65 -16t50 29l7 -3q-14 -89 -83 -89zM384 -12q-148 0 -243 103.5t-95 266.5t95 266t243 103q147 0 242 -103t95 -266t-95 -266.5t-242 -103.5zM385 9q93 0 157 96.5t64 252.5
q0 155 -64.5 251.5t-158.5 96.5q-93 0 -157 -97t-64 -253q0 -155 64.5 -251t158.5 -96z" />
    <glyph glyph-name="Odieresis" unicode="&#xd6;" horiz-adv-x="767" 
d="M289 761q-25 0 -42 17.5t-17 41.5t17 41.5t42 17.5q24 0 41 -17.5t17 -41.5t-17 -41.5t-41 -17.5zM479 761q-24 0 -41.5 17.5t-17.5 41.5t17.5 41.5t41.5 17.5t41.5 -17.5t17.5 -41.5t-17.5 -41.5t-41.5 -17.5zM384 -12q-148 0 -243 103.5t-95 266.5t95 266t243 103
q147 0 242 -103t95 -266t-95 -266.5t-242 -103.5zM385 9q93 0 157 96.5t64 252.5q0 155 -64.5 251.5t-158.5 96.5q-93 0 -157 -97t-64 -253q0 -155 64.5 -251t158.5 -96z" />
    <glyph glyph-name="multiply" unicode="&#xd7;" horiz-adv-x="414" 
d="M72 192l-13 13l134 136l-134 138l13 10l136 -134l137 136l13 -13l-138 -137l139 -138l-14 -11l-137 136z" />
    <glyph glyph-name="Oslash" unicode="&#xd8;" horiz-adv-x="767" 
d="M590 658q62 -49 96.5 -126.5t34.5 -173.5q0 -163 -95 -266.5t-242 -103.5q-108 0 -191 58l-76 -117h-25l84 130q-62 49 -96 126t-34 173q0 163 95 266t243 103q107 0 189 -56l70 108h25zM162 356q0 -140 55 -235l320 495q-62 90 -154 90q-93 0 -157 -97t-64 -253zM385 9
q93 0 157 96.5t64 252.5q0 144 -56 238l-321 -494q62 -93 156 -93z" />
    <glyph glyph-name="Ugrave" unicode="&#xd9;" horiz-adv-x="719" 
d="M452 744l-227 64l59 79l173 -135zM361 -12q-48 0 -89.5 12t-79.5 39t-60 78.5t-22 121.5v455l-85 3v18h278v-18l-85 -3v-447q0 -106 48.5 -164t130.5 -58q81 0 137.5 51t56.5 150v468l-85 3v18h191v-18l-85 -3v-469q0 -109 -69 -173t-182 -64z" />
    <glyph glyph-name="Uacute" unicode="&#xda;" horiz-adv-x="719" 
d="M289 744l-4 8l172 135l58 -79zM361 -12q-48 0 -89.5 12t-79.5 39t-60 78.5t-22 121.5v455l-85 3v18h278v-18l-85 -3v-447q0 -106 48.5 -164t130.5 -58q81 0 137.5 51t56.5 150v468l-85 3v18h191v-18l-85 -3v-469q0 -109 -69 -173t-182 -64z" />
    <glyph glyph-name="Ucircumflex" unicode="&#xdb;" horiz-adv-x="719" 
d="M214 748l-4 6l162 153h7l162 -153l-4 -6l-162 69zM361 -12q-48 0 -89.5 12t-79.5 39t-60 78.5t-22 121.5v455l-85 3v18h278v-18l-85 -3v-447q0 -106 48.5 -164t130.5 -58q81 0 137.5 51t56.5 150v468l-85 3v18h191v-18l-85 -3v-469q0 -109 -69 -173t-182 -64z" />
    <glyph glyph-name="Udieresis" unicode="&#xdc;" horiz-adv-x="719" 
d="M281 761q-25 0 -42 17.5t-17 41.5t17 41.5t42 17.5q24 0 41 -17.5t17 -41.5t-17 -41.5t-41 -17.5zM471 761q-24 0 -41.5 17.5t-17.5 41.5t17.5 41.5t41.5 17.5t41.5 -17.5t17.5 -41.5t-17.5 -41.5t-41.5 -17.5zM361 -12q-48 0 -89.5 12t-79.5 39t-60 78.5t-22 121.5v455
l-85 3v18h278v-18l-85 -3v-447q0 -106 48.5 -164t130.5 -58q81 0 137.5 51t56.5 150v468l-85 3v18h191v-18l-85 -3v-469q0 -109 -69 -173t-182 -64z" />
    <glyph glyph-name="Yacute" unicode="&#xdd;" horiz-adv-x="686" 
d="M288 744l-4 8l172 135l58 -79zM207 0v18l85 3v296l-230 377l-79 3v18h289v-18l-91 -3l209 -342l206 342l-92 3v18h204v-18l-88 -3l-221 -366v-307l85 -3v-18h-277z" />
    <glyph glyph-name="Thorn" unicode="&#xde;" horiz-adv-x="651" 
d="M35 0v18l85 3v673l-85 3v18h278v-18l-85 -3v-120h117q111 0 185.5 -52.5t74.5 -154.5q0 -103 -75.5 -158t-187.5 -55h-114v-133l85 -3v-18h-278zM228 175h94q173 0 173 192q0 91 -43 138.5t-125 47.5h-99v-378z" />
    <glyph glyph-name="germandbls" unicode="&#xdf;" horiz-adv-x="626" 
d="M419 -12q-37 0 -81.5 14.5t-71.5 32.5l-11 118h5q77 -90 106 -117t53 -27q35 0 61.5 26t26.5 75q0 39 -19.5 70t-48 51.5t-56.5 39.5t-47.5 46t-19.5 61q0 28 14.5 54t32.5 44.5t32.5 51t14.5 72.5q0 54 -31.5 80t-68.5 26q-48 0 -81.5 -34t-33.5 -119v-534l71 -1v-18
h-243v18l71 1v441h-70v21h70v28q0 100 54.5 159t159.5 59q73 0 126.5 -29t53.5 -91q0 -37 -19 -65t-41.5 -41.5t-41.5 -31.5t-19 -36q0 -20 23 -41.5t56 -43t66.5 -47.5t56.5 -65.5t23 -85.5q0 -76 -52.5 -119t-120.5 -43z" />
    <glyph glyph-name="agrave" unicode="&#xe0;" horiz-adv-x="508" 
d="M306 543l-193 134l80 59l119 -189zM164 -10q-56 0 -95.5 31.5t-39.5 87.5q0 43 25.5 78t69.5 58t91.5 38t102.5 24v80q0 86 -62 86q-19 0 -43 -20t-100 -97h-4l-51 78q137 59 213 59q69 0 108 -36.5t39 -98.5l-1 -276q0 -13 13 -23.5t58 -31.5v-6l-168 -30v87h-1
q-24 -39 -65 -63.5t-90 -24.5zM211 41q59 0 107 60v186q-83 -20 -136.5 -63.5t-53.5 -98.5q0 -38 24 -61t59 -23z" />
    <glyph glyph-name="aacute" unicode="&#xe1;" horiz-adv-x="508" 
d="M191 543l-6 4l119 189l80 -59zM164 -10q-56 0 -95.5 31.5t-39.5 87.5q0 43 25.5 78t69.5 58t91.5 38t102.5 24v80q0 86 -62 86q-19 0 -43 -20t-100 -97h-4l-51 78q137 59 213 59q69 0 108 -36.5t39 -98.5l-1 -276q0 -13 13 -23.5t58 -31.5v-6l-168 -30v87h-1
q-24 -39 -65 -63.5t-90 -24.5zM211 41q59 0 107 60v186q-83 -20 -136.5 -63.5t-53.5 -98.5q0 -38 24 -61t59 -23z" />
    <glyph glyph-name="acircumflex" unicode="&#xe2;" horiz-adv-x="508" 
d="M132 556l-5 5l121 178h7l122 -178l-5 -4l-121 81zM164 -10q-56 0 -95.5 31.5t-39.5 87.5q0 43 25.5 78t69.5 58t91.5 38t102.5 24v80q0 86 -62 86q-19 0 -43 -20t-100 -97h-4l-51 78q137 59 213 59q69 0 108 -36.5t39 -98.5l-1 -276q0 -13 13 -23.5t58 -31.5v-6l-168 -30
v87h-1q-24 -39 -65 -63.5t-90 -24.5zM211 41q59 0 107 60v186q-83 -20 -136.5 -63.5t-53.5 -98.5q0 -38 24 -61t59 -23z" />
    <glyph glyph-name="atilde" unicode="&#xe3;" horiz-adv-x="508" 
d="M303 586q-24 0 -62 15q-42 16 -64 16q-25 0 -50 -29l-8 3q15 90 84 90q26 0 62 -16q38 -16 64 -16q27 0 50 29l7 -3q-13 -89 -83 -89zM164 -10q-56 0 -95.5 31.5t-39.5 87.5q0 43 25.5 78t69.5 58t91.5 38t102.5 24v80q0 86 -62 86q-19 0 -43 -20t-100 -97h-4l-51 78
q137 59 213 59q69 0 108 -36.5t39 -98.5l-1 -276q0 -13 13 -23.5t58 -31.5v-6l-168 -30v87h-1q-24 -39 -65 -63.5t-90 -24.5zM211 41q59 0 107 60v186q-83 -20 -136.5 -63.5t-53.5 -98.5q0 -38 24 -61t59 -23z" />
    <glyph glyph-name="adieresis" unicode="&#xe4;" horiz-adv-x="508" 
d="M159 574q-23 0 -39 16t-16 39t16.5 39.5t38.5 16.5q23 0 39.5 -16.5t16.5 -39.5q0 -22 -16.5 -38.5t-39.5 -16.5zM343 574q-23 0 -39 16t-16 39t16.5 39.5t38.5 16.5q23 0 39.5 -16.5t16.5 -39.5q0 -22 -16.5 -38.5t-39.5 -16.5zM164 -10q-56 0 -95.5 31.5t-39.5 87.5
q0 43 25.5 78t69.5 58t91.5 38t102.5 24v80q0 86 -62 86q-19 0 -43 -20t-100 -97h-4l-51 78q137 59 213 59q69 0 108 -36.5t39 -98.5l-1 -276q0 -13 13 -23.5t58 -31.5v-6l-168 -30v87h-1q-24 -39 -65 -63.5t-90 -24.5zM211 41q59 0 107 60v186q-83 -20 -136.5 -63.5
t-53.5 -98.5q0 -38 24 -61t59 -23z" />
    <glyph glyph-name="aring" unicode="&#xe5;" horiz-adv-x="508" 
d="M252 542q-36 0 -63 25.5t-27 61.5q0 35 27 60t63 25q37 0 63.5 -25t26.5 -60q0 -36 -26.5 -61.5t-63.5 -25.5zM252 560q29 0 49.5 20.5t20.5 48.5t-20.5 47.5t-49.5 19.5t-49.5 -19.5t-20.5 -47.5t21 -48.5t49 -20.5zM164 -10q-56 0 -95.5 31.5t-39.5 87.5q0 43 25.5 78
t69.5 58t91.5 38t102.5 24v80q0 86 -62 86q-19 0 -43 -20t-100 -97h-4l-51 78q137 59 213 59q69 0 108 -36.5t39 -98.5l-1 -276q0 -13 13 -23.5t58 -31.5v-6l-168 -30v87h-1q-24 -39 -65 -63.5t-90 -24.5zM211 41q59 0 107 60v186q-83 -20 -136.5 -63.5t-53.5 -98.5
q0 -38 24 -61t59 -23z" />
    <glyph glyph-name="ae" unicode="&#xe6;" horiz-adv-x="768" 
d="M167 -10q-58 0 -98 32t-40 87q0 57 46.5 100.5t109.5 65t133 26.5v92q0 41 -17 60t-43 19q-22 0 -48 -21.5t-95 -96.5h-6l-51 80q135 59 213 59q83 0 114 -67q51 67 146 67q86 0 140.5 -60t54.5 -144v-12h-321q1 -104 50 -157t118 -53q100 0 150 86l11 -3
q-12 -68 -67 -114t-130 -46q-60 0 -109.5 28.5t-78.5 76.5q-23 -43 -73 -74t-109 -31zM404 298h222q-2 69 -29.5 121.5t-72.5 52.5t-79.5 -49.5t-40.5 -124.5zM217 43q35 0 69 18.5t54 50.5q-23 48 -23 127q0 28 1 41q-83 -13 -136.5 -54.5t-53.5 -95.5q0 -41 25.5 -64
t63.5 -23z" />
    <glyph glyph-name="ccedilla" unicode="&#xe7;" horiz-adv-x="467" 
d="M246 -10h-6l-22 -25q44 -6 75.5 -30t31.5 -65t-31.5 -64t-75.5 -23q-40 0 -102 17l38 62h4q29 -37 41.5 -49t23.5 -12q14 0 25.5 12.5t11.5 34.5q0 60 -85 71l-16 2l62 71q-80 10 -133.5 78t-53.5 171q0 111 64 181.5t152 70.5q68 0 158 -38l-14 -103h-5
q-81 78 -106.5 98.5t-46.5 20.5q-41 0 -75 -51t-34 -138q0 -99 45.5 -157t115.5 -58q94 0 143 83l8 -2q-9 -60 -60 -109t-133 -49z" />
    <glyph glyph-name="egrave" unicode="&#xe8;" horiz-adv-x="491" 
d="M307 543l-193 134l80 59l119 -189zM262 -10q-98 0 -163 70t-65 180q0 109 62.5 181t156.5 72q87 0 142 -60.5t55 -144.5v-11h-323q1 -105 50 -157.5t117 -52.5q44 0 87.5 21.5t70.5 63.5l6 -2q-11 -66 -66 -113t-130 -47zM128 297h222q-3 73 -31 124t-74 51
q-45 0 -78 -49t-39 -126z" />
    <glyph glyph-name="eacute" unicode="&#xe9;" horiz-adv-x="491" 
d="M193 543l-6 4l119 189l80 -59zM262 -10q-98 0 -163 70t-65 180q0 109 62.5 181t156.5 72q87 0 142 -60.5t55 -144.5v-11h-323q1 -105 50 -157.5t117 -52.5q44 0 87.5 21.5t70.5 63.5l6 -2q-11 -66 -66 -113t-130 -47zM128 297h222q-3 73 -31 124t-74 51q-45 0 -78 -49
t-39 -126z" />
    <glyph glyph-name="ecircumflex" unicode="&#xea;" horiz-adv-x="491" 
d="M134 556l-5 5l121 178h7l122 -178l-5 -4l-121 81zM262 -10q-98 0 -163 70t-65 180q0 109 62.5 181t156.5 72q87 0 142 -60.5t55 -144.5v-11h-323q1 -105 50 -157.5t117 -52.5q44 0 87.5 21.5t70.5 63.5l6 -2q-11 -66 -66 -113t-130 -47zM128 297h222q-3 73 -31 124
t-74 51q-45 0 -78 -49t-39 -126z" />
    <glyph glyph-name="edieresis" unicode="&#xeb;" horiz-adv-x="491" 
d="M161 574q-23 0 -39 16t-16 39t16.5 39.5t38.5 16.5q23 0 39.5 -16.5t16.5 -39.5q0 -22 -16.5 -38.5t-39.5 -16.5zM345 574q-23 0 -39 16t-16 39t16.5 39.5t38.5 16.5q23 0 39.5 -16.5t16.5 -39.5q0 -22 -16.5 -38.5t-39.5 -16.5zM262 -10q-98 0 -163 70t-65 180
q0 109 62.5 181t156.5 72q87 0 142 -60.5t55 -144.5v-11h-323q1 -105 50 -157.5t117 -52.5q44 0 87.5 21.5t70.5 63.5l6 -2q-11 -66 -66 -113t-130 -47zM128 297h222q-3 73 -31 124t-74 51q-45 0 -78 -49t-39 -126z" />
    <glyph glyph-name="igrave" unicode="&#xec;" horiz-adv-x="287" 
d="M186 543l-193 134l80 59l119 -189zM24 0v18l71 1v375l-72 54v5l173 45v-479l71 -1v-18h-243z" />
    <glyph glyph-name="iacute" unicode="&#xed;" horiz-adv-x="287" 
d="M72 543l-6 4l119 189l80 -59zM24 0v18l71 1v375l-72 54v5l173 45v-479l71 -1v-18h-243z" />
    <glyph glyph-name="icircumflex" unicode="&#xee;" horiz-adv-x="287" 
d="M13 556l-5 5l121 178h7l122 -178l-5 -4l-121 81zM24 0v18l71 1v375l-72 54v5l173 45v-479l71 -1v-18h-243z" />
    <glyph glyph-name="idieresis" unicode="&#xef;" horiz-adv-x="287" 
d="M39 574q-23 0 -39 16t-16 39t16.5 39.5t38.5 16.5q23 0 39.5 -16.5t16.5 -39.5q0 -22 -16.5 -38.5t-39.5 -16.5zM223 574q-23 0 -39 16t-16 39t16.5 39.5t38.5 16.5q23 0 39.5 -16.5t16.5 -39.5q0 -22 -16.5 -38.5t-39.5 -16.5zM24 0v18l71 1v375l-72 54v5l173 45v-479
l71 -1v-18h-243z" />
    <glyph glyph-name="eth" unicode="&#xf0;" horiz-adv-x="552" 
d="M277 -10q-113 0 -178 72t-65 178q0 107 64.5 179.5t176.5 72.5q43 0 85 -15q-37 86 -100 152l-105 -61l-10 18l101 58q-62 64 -153 109l6 15q111 -33 194 -97l93 55l10 -19l-85 -49q96 -78 151.5 -186t55.5 -220q0 -122 -66 -192t-175 -70zM277 11q56 0 94 58.5t38 171.5
t-38 171.5t-94 58.5q-57 0 -96 -58.5t-39 -172.5q0 -112 39.5 -170.5t95.5 -58.5z" />
    <glyph glyph-name="ntilde" unicode="&#xf1;" horiz-adv-x="600" 
d="M356 586q-24 0 -62 15q-42 16 -64 16q-25 0 -50 -29l-8 3q15 90 84 90q26 0 62 -16q38 -16 64 -16q27 0 50 29l7 -3q-13 -89 -83 -89zM24 0v18l71 1v373l-72 55v6l172 45l-2 -111h1q76 106 175 106q60 0 100.5 -34.5t40.5 -105.5v-334l71 -1v-18h-244v18l71 1v307
q0 55 -23.5 81.5t-64.5 26.5q-67 0 -124 -69v-346l71 -1v-18h-243z" />
    <glyph glyph-name="ograve" unicode="&#xf2;" horiz-adv-x="555" 
d="M335 543l-193 134l80 59l119 -189zM277 -10q-112 0 -177.5 72.5t-65.5 178.5q0 107 65.5 179.5t177.5 72.5q113 0 178.5 -72.5t65.5 -179.5q0 -106 -65.5 -178.5t-178.5 -72.5zM277 11q58 0 97 58t39 172q0 116 -38.5 173.5t-97.5 57.5q-56 0 -95.5 -59t-39.5 -172
t39.5 -171.5t95.5 -58.5z" />
    <glyph glyph-name="oacute" unicode="&#xf3;" horiz-adv-x="555" 
d="M220 543l-6 4l119 189l80 -59zM277 -10q-112 0 -177.5 72.5t-65.5 178.5q0 107 65.5 179.5t177.5 72.5q113 0 178.5 -72.5t65.5 -179.5q0 -106 -65.5 -178.5t-178.5 -72.5zM277 11q58 0 97 58t39 172q0 116 -38.5 173.5t-97.5 57.5q-56 0 -95.5 -59t-39.5 -172
t39.5 -171.5t95.5 -58.5z" />
    <glyph glyph-name="ocircumflex" unicode="&#xf4;" horiz-adv-x="555" 
d="M162 556l-5 5l121 178h7l122 -178l-5 -4l-121 81zM277 -10q-112 0 -177.5 72.5t-65.5 178.5q0 107 65.5 179.5t177.5 72.5q113 0 178.5 -72.5t65.5 -179.5q0 -106 -65.5 -178.5t-178.5 -72.5zM277 11q58 0 97 58t39 172q0 116 -38.5 173.5t-97.5 57.5q-56 0 -95.5 -59
t-39.5 -172t39.5 -171.5t95.5 -58.5z" />
    <glyph glyph-name="otilde" unicode="&#xf5;" horiz-adv-x="555" 
d="M332 586q-24 0 -62 15q-42 16 -64 16q-25 0 -50 -29l-8 3q15 90 84 90q26 0 62 -16q38 -16 64 -16q27 0 50 29l7 -3q-13 -89 -83 -89zM277 -10q-112 0 -177.5 72.5t-65.5 178.5q0 107 65.5 179.5t177.5 72.5q113 0 178.5 -72.5t65.5 -179.5q0 -106 -65.5 -178.5
t-178.5 -72.5zM277 11q58 0 97 58t39 172q0 116 -38.5 173.5t-97.5 57.5q-56 0 -95.5 -59t-39.5 -172t39.5 -171.5t95.5 -58.5z" />
    <glyph glyph-name="odieresis" unicode="&#xf6;" horiz-adv-x="555" 
d="M188 574q-22 0 -38.5 16t-16.5 39t16.5 39.5t38.5 16.5t39 -16.5t17 -39.5q0 -22 -16.5 -38.5t-39.5 -16.5zM372 574q-22 0 -38.5 16t-16.5 39t16.5 39.5t38.5 16.5t39 -16.5t17 -39.5q0 -22 -16.5 -38.5t-39.5 -16.5zM277 -10q-112 0 -177.5 72.5t-65.5 178.5
q0 107 65.5 179.5t177.5 72.5q113 0 178.5 -72.5t65.5 -179.5q0 -106 -65.5 -178.5t-178.5 -72.5zM277 11q58 0 97 58t39 172q0 116 -38.5 173.5t-97.5 57.5q-56 0 -95.5 -59t-39.5 -172t39.5 -171.5t95.5 -58.5z" />
    <glyph glyph-name="divide" unicode="&#xf7;" horiz-adv-x="460" 
d="M235 394q-21 0 -36 15t-15 37q0 21 15 36t36 15t36 -15t15 -36q0 -22 -15 -37t-36 -15zM59 331v21h345v-21h-345zM235 185q-21 0 -36 15t-15 37q0 21 15 36t36 15t36 -15t15 -36q0 -22 -15 -37t-36 -15z" />
    <glyph glyph-name="oslash" unicode="&#xf8;" horiz-adv-x="555" 
d="M419 452q49 -34 75.5 -89.5t26.5 -121.5q0 -106 -65.5 -178.5t-178.5 -72.5q-72 0 -126 31l-64 -102h-23l70 113q-48 33 -74 88.5t-26 120.5q0 107 65.5 179.5t177.5 72.5q72 0 126 -31l56 90h23zM142 241q0 -92 28 -151l204 326q-36 56 -97 56q-56 0 -95.5 -59
t-39.5 -172zM277 11q58 0 97 58t39 172q0 94 -28 155l-204 -326q38 -59 96 -59z" />
    <glyph glyph-name="ugrave" unicode="&#xf9;" horiz-adv-x="599" 
d="M354 543l-193 134l80 59l119 -189zM235 -10q-61 0 -101 34.5t-40 105.5v332l-71 1v18h172v-325q0 -107 88 -107q66 0 124 69v344l-71 1v18h173v-462h70v-18l-90 -1l-81 -2l2 98h-2q-75 -106 -173 -106z" />
    <glyph glyph-name="uacute" unicode="&#xfa;" horiz-adv-x="599" 
d="M240 543l-6 4l119 189l80 -59zM235 -10q-61 0 -101 34.5t-40 105.5v332l-71 1v18h172v-325q0 -107 88 -107q66 0 124 69v344l-71 1v18h173v-462h70v-18l-90 -1l-81 -2l2 98h-2q-75 -106 -173 -106z" />
    <glyph glyph-name="ucircumflex" unicode="&#xfb;" horiz-adv-x="599" 
d="M181 556l-5 5l121 178h7l122 -178l-5 -4l-121 81zM235 -10q-61 0 -101 34.5t-40 105.5v332l-71 1v18h172v-325q0 -107 88 -107q66 0 124 69v344l-71 1v18h173v-462h70v-18l-90 -1l-81 -2l2 98h-2q-75 -106 -173 -106z" />
    <glyph glyph-name="udieresis" unicode="&#xfc;" horiz-adv-x="599" 
d="M208 574q-22 0 -38.5 16t-16.5 39t16.5 39.5t38.5 16.5t39 -16.5t17 -39.5q0 -22 -16.5 -38.5t-39.5 -16.5zM392 574q-22 0 -38.5 16t-16.5 39t16.5 39.5t38.5 16.5t39 -16.5t17 -39.5q0 -22 -16.5 -38.5t-39.5 -16.5zM235 -10q-61 0 -101 34.5t-40 105.5v332l-71 1v18
h172v-325q0 -107 88 -107q66 0 124 69v344l-71 1v18h173v-462h70v-18l-90 -1l-81 -2l2 98h-2q-75 -106 -173 -106z" />
    <glyph glyph-name="yacute" unicode="&#xfd;" horiz-adv-x="546" 
d="M224 543l-6 4l119 189l80 -59zM147 -206q-36 0 -66 15l-6 122h4q53 -51 74 -66t36 -15q26 0 37 26l34 89l-191 497l-66 1v18h246v-18l-75 -1l136 -368l139 368l-81 1v18h174v-18l-70 -1l-230 -603q-13 -33 -40 -49t-55 -16z" />
    <glyph glyph-name="thorn" unicode="&#xfe;" horiz-adv-x="564" 
d="M13 -210v18l71 1v837l-72 61v6l173 32v-340q68 88 154 88q83 0 137 -71.5t54 -175.5q0 -112 -61.5 -184t-141.5 -72q-78 0 -142 85v-266l99 -1v-18h-271zM305 27q59 0 90 59.5t31 151.5q0 95 -32.5 153t-93.5 58q-63 0 -115 -68v-283q53 -71 120 -71z" />
    <glyph glyph-name="ydieresis" unicode="&#xff;" horiz-adv-x="546" 
d="M192 574q-22 0 -38.5 16t-16.5 39t16.5 39.5t38.5 16.5t39 -16.5t17 -39.5q0 -22 -16.5 -38.5t-39.5 -16.5zM376 574q-22 0 -38.5 16t-16.5 39t16.5 39.5t38.5 16.5t39 -16.5t17 -39.5q0 -22 -16.5 -38.5t-39.5 -16.5zM147 -206q-36 0 -66 15l-6 122h4q53 -51 74 -66
t36 -15q26 0 37 26l34 89l-191 497l-66 1v18h246v-18l-75 -1l136 -368l139 368l-81 1v18h174v-18l-70 -1l-230 -603q-13 -33 -40 -49t-55 -16z" />
    <glyph glyph-name="Amacron" unicode="&#x100;" horiz-adv-x="752" 
d="M235 783v57h243v-57h-243zM12 0v18l87 3l222 588l-45 106h113l269 -694l81 -3v-18h-282v18l89 3l-86 228h-253l-86 -228l88 -3v-18h-197zM216 270h236l-118 309h-1z" />
    <glyph glyph-name="amacron" unicode="&#x101;" horiz-adv-x="508" 
d="M131 595v57h248v-57h-248zM164 -10q-56 0 -95.5 31.5t-39.5 87.5q0 43 25.5 78t69.5 58t91.5 38t102.5 24v80q0 86 -62 86q-19 0 -43 -20t-100 -97h-4l-51 78q137 59 213 59q69 0 108 -36.5t39 -98.5l-1 -276q0 -13 13 -23.5t58 -31.5v-6l-168 -30v87h-1
q-24 -39 -65 -63.5t-90 -24.5zM211 41q59 0 107 60v186q-83 -20 -136.5 -63.5t-53.5 -98.5q0 -38 24 -61t59 -23z" />
    <glyph glyph-name="Abreve" unicode="&#x102;" horiz-adv-x="752" 
d="M353 750q-122 0 -138 149h9q12 -39 49 -60t80 -21t80 21t49 60h8q-16 -149 -137 -149zM12 0v18l87 3l222 588l-45 106h113l269 -694l81 -3v-18h-282v18l89 3l-86 228h-253l-86 -228l88 -3v-18h-197zM216 270h236l-118 309h-1z" />
    <glyph glyph-name="abreve" unicode="&#x103;" horiz-adv-x="508" 
d="M252 563q-107 0 -123 153h10q11 -40 43 -62t70 -22q37 0 69 22t42 62h10q-14 -153 -121 -153zM164 -10q-56 0 -95.5 31.5t-39.5 87.5q0 43 25.5 78t69.5 58t91.5 38t102.5 24v80q0 86 -62 86q-19 0 -43 -20t-100 -97h-4l-51 78q137 59 213 59q69 0 108 -36.5t39 -98.5
l-1 -276q0 -13 13 -23.5t58 -31.5v-6l-168 -30v87h-1q-24 -39 -65 -63.5t-90 -24.5zM211 41q59 0 107 60v186q-83 -20 -136.5 -63.5t-53.5 -98.5q0 -38 24 -61t59 -23z" />
    <glyph glyph-name="Aogonek" unicode="&#x104;" horiz-adv-x="752" 
d="M658 21l81 -3v-18h-186q-78 -67 -78 -125q0 -23 14 -35.5t35 -12.5q38 0 79 37l8 -6q-21 -36 -58 -61t-76 -25q-35 0 -59 19t-24 49q0 36 40 79.5t98 80.5h-75v18l89 3l-86 228h-253l-86 -228l88 -3v-18h-197v18l87 3l222 588l-45 106h113zM216 270h236l-118 309h-1z" />
    <glyph glyph-name="aogonek" unicode="&#x105;" horiz-adv-x="508" 
d="M343 -5q-68 -64 -68 -120q0 -24 13 -36t33 -12q37 0 73 36l8 -5q-20 -36 -55 -61.5t-72 -25.5q-34 0 -56.5 19.5t-22.5 49.5q0 68 124 155v83h-1q-24 -39 -65 -63.5t-90 -24.5q-56 0 -95.5 31.5t-39.5 87.5q0 43 25.5 78t69.5 58t91.5 38t102.5 24v80q0 86 -62 86
q-19 0 -43 -20t-100 -97h-4l-51 78q137 59 213 59q69 0 108 -36.5t39 -98.5l-1 -276q0 -13 13 -23.5t58 -31.5v-6zM318 101v186q-83 -20 -136.5 -63.5t-53.5 -98.5q0 -38 24 -61t59 -23q59 0 107 60z" />
    <glyph glyph-name="Cacute" unicode="&#x106;" horiz-adv-x="655" 
d="M298 744l-4 8l172 135l58 -79zM384 -12q-145 0 -241.5 98t-96.5 273q0 164 96.5 266t240.5 102q92 0 215 -37l12 -133h-7q-101 97 -137.5 123t-81.5 26q-92 0 -157 -90t-65 -257q0 -165 65.5 -257.5t158.5 -92.5q39 0 75 25t141 123h7l-12 -131q-122 -38 -213 -38z" />
    <glyph glyph-name="cacute" unicode="&#x107;" horiz-adv-x="467" 
d="M183 543l-6 4l119 189l80 -59zM246 -10q-88 0 -150 70t-62 181t64 181.5t152 70.5q68 0 158 -38l-14 -103h-5q-81 78 -106.5 98.5t-46.5 20.5q-41 0 -75 -51t-34 -138q0 -99 45.5 -157t115.5 -58q94 0 143 83l8 -2q-9 -60 -60 -109t-133 -49z" />
    <glyph glyph-name="Ccircumflex" unicode="&#x108;" horiz-adv-x="655" 
d="M223 748l-4 6l162 153h7l162 -153l-4 -6l-162 69zM384 -12q-145 0 -241.5 98t-96.5 273q0 164 96.5 266t240.5 102q92 0 215 -37l12 -133h-7q-101 97 -137.5 123t-81.5 26q-92 0 -157 -90t-65 -257q0 -165 65.5 -257.5t158.5 -92.5q39 0 75 25t141 123h7l-12 -131
q-122 -38 -213 -38z" />
    <glyph glyph-name="ccircumflex" unicode="&#x109;" horiz-adv-x="467" 
d="M125 556l-5 5l121 178h7l122 -178l-5 -4l-121 81zM246 -10q-88 0 -150 70t-62 181t64 181.5t152 70.5q68 0 158 -38l-14 -103h-5q-81 78 -106.5 98.5t-46.5 20.5q-41 0 -75 -51t-34 -138q0 -99 45.5 -157t115.5 -58q94 0 143 83l8 -2q-9 -60 -60 -109t-133 -49z" />
    <glyph glyph-name="Cdotaccent" unicode="&#x10a;" horiz-adv-x="655" 
d="M385 761q-24 0 -41.5 17t-17.5 42t17.5 42.5t41.5 17.5q25 0 42.5 -17.5t17.5 -42.5t-17.5 -42t-42.5 -17zM384 -12q-145 0 -241.5 98t-96.5 273q0 164 96.5 266t240.5 102q92 0 215 -37l12 -133h-7q-101 97 -137.5 123t-81.5 26q-92 0 -157 -90t-65 -257
q0 -165 65.5 -257.5t158.5 -92.5q39 0 75 25t141 123h7l-12 -131q-122 -38 -213 -38z" />
    <glyph glyph-name="cdotaccent" unicode="&#x10b;" horiz-adv-x="467" 
d="M244 570q-25 0 -43.5 17.5t-18.5 42.5q0 24 18.5 42t43.5 18t43.5 -18t18.5 -42q0 -25 -18.5 -42.5t-43.5 -17.5zM246 -10q-88 0 -150 70t-62 181t64 181.5t152 70.5q68 0 158 -38l-14 -103h-5q-81 78 -106.5 98.5t-46.5 20.5q-41 0 -75 -51t-34 -138q0 -99 45.5 -157
t115.5 -58q94 0 143 83l8 -2q-9 -60 -60 -109t-133 -49z" />
    <glyph glyph-name="Ccaron" unicode="&#x10c;" horiz-adv-x="655" 
d="M223 904l162 -69l161 69l5 -5l-163 -154h-6l-162 154zM384 -12q-145 0 -241.5 98t-96.5 273q0 164 96.5 266t240.5 102q92 0 215 -37l12 -133h-7q-101 97 -137.5 123t-81.5 26q-92 0 -157 -90t-65 -257q0 -165 65.5 -257.5t158.5 -92.5q39 0 75 25t141 123h7l-12 -131
q-122 -38 -213 -38z" />
    <glyph glyph-name="ccaron" unicode="&#x10d;" horiz-adv-x="467" 
d="M125 740l118 -82l121 81l6 -4l-122 -178h-7l-122 178zM246 -10q-88 0 -150 70t-62 181t64 181.5t152 70.5q68 0 158 -38l-14 -103h-5q-81 78 -106.5 98.5t-46.5 20.5q-41 0 -75 -51t-34 -138q0 -99 45.5 -157t115.5 -58q94 0 143 83l8 -2q-9 -60 -60 -109t-133 -49z" />
    <glyph glyph-name="Dcaron" unicode="&#x10e;" horiz-adv-x="733" 
d="M201 904l162 -69l161 69l5 -5l-163 -154h-6l-162 154zM35 0v18l85 3v673l-85 3v18h297q160 0 257.5 -99t97.5 -258q0 -161 -97 -259.5t-259 -98.5h-296zM228 21h97q123 0 184.5 90t61.5 245q0 156 -61.5 247t-183.5 91h-98v-673z" />
    <glyph glyph-name="dcaron" unicode="&#x10f;" horiz-adv-x="572" 
d="M225 -10q-82 0 -136.5 71.5t-54.5 175.5q0 112 61.5 184t141.5 72q76 0 143 -85v239l-72 61v5l173 32v-726h71v-18l-91 -1l-80 -2l1 83h-1q-67 -91 -156 -91zM535 523l15 212h102l-109 -212h-8zM265 34q60 0 115 68v282q-55 72 -121 72q-59 0 -90 -59.5t-31 -151.5
q0 -95 33 -153t94 -58z" />
    <glyph glyph-name="Dcroat" unicode="&#x110;" horiz-adv-x="733" 
d="M35 0v18l85 3v341h-75v21h75v311l-85 3v18h297q160 0 257.5 -99t97.5 -258q0 -161 -97 -259.5t-259 -98.5h-296zM228 21h97q123 0 184.5 90t61.5 245q0 156 -61.5 247t-183.5 91h-98v-311h118v-21h-118v-341z" />
    <glyph glyph-name="dcroat" unicode="&#x111;" horiz-adv-x="572" 
d="M481 19h71v-18l-91 -1l-80 -2l1 83h-1q-67 -91 -156 -91q-82 0 -136.5 71.5t-54.5 175.5q0 112 61.5 184t141.5 72q76 0 143 -85v176h-126v21h126v42l-72 61v5l173 32v-140h62v-21h-62v-565zM380 102v282q-55 72 -121 72q-59 0 -90 -59.5t-31 -151.5q0 -95 33 -153
t94 -58q60 0 115 68z" />
    <glyph glyph-name="Emacron" unicode="&#x112;" horiz-adv-x="644" 
d="M198 783v57h269v-57h-269zM35 0v18l85 3v673l-85 3v18h510l19 -179h-9q-69 104 -93 131t-55 27h-179v-313h182q18 0 36 19.5t51 67.5h8v-194h-8q-33 47 -51 66.5t-36 19.5h-182v-339h204q32 0 58.5 29t94.5 134h8l-20 -184h-538z" />
    <glyph glyph-name="emacron" unicode="&#x113;" horiz-adv-x="491" 
d="M133 595v57h248v-57h-248zM262 -10q-98 0 -163 70t-65 180q0 109 62.5 181t156.5 72q87 0 142 -60.5t55 -144.5v-11h-323q1 -105 50 -157.5t117 -52.5q44 0 87.5 21.5t70.5 63.5l6 -2q-11 -66 -66 -113t-130 -47zM128 297h222q-3 73 -31 124t-74 51q-45 0 -78 -49
t-39 -126z" />
    <glyph glyph-name="Ebreve" unicode="&#x114;" horiz-adv-x="644" 
d="M329 750q-122 0 -138 149h9q12 -39 49 -60t80 -21t80 21t49 60h8q-16 -149 -137 -149zM35 0v18l85 3v673l-85 3v18h510l19 -179h-9q-69 104 -93 131t-55 27h-179v-313h182q18 0 36 19.5t51 67.5h8v-194h-8q-33 47 -51 66.5t-36 19.5h-182v-339h204q32 0 58.5 29t94.5 134
h8l-20 -184h-538z" />
    <glyph glyph-name="ebreve" unicode="&#x115;" horiz-adv-x="491" 
d="M254 563q-107 0 -123 153h10q11 -40 43 -62t70 -22q37 0 69 22t42 62h10q-14 -153 -121 -153zM262 -10q-98 0 -163 70t-65 180q0 109 62.5 181t156.5 72q87 0 142 -60.5t55 -144.5v-11h-323q1 -105 50 -157.5t117 -52.5q44 0 87.5 21.5t70.5 63.5l6 -2q-11 -66 -66 -113
t-130 -47zM128 297h222q-3 73 -31 124t-74 51q-45 0 -78 -49t-39 -126z" />
    <glyph glyph-name="Edotaccent" unicode="&#x116;" horiz-adv-x="644" 
d="M329 761q-24 0 -41.5 17t-17.5 42t17.5 42.5t41.5 17.5q25 0 42.5 -17.5t17.5 -42.5t-17.5 -42t-42.5 -17zM35 0v18l85 3v673l-85 3v18h510l19 -179h-9q-69 104 -93 131t-55 27h-179v-313h182q18 0 36 19.5t51 67.5h8v-194h-8q-33 47 -51 66.5t-36 19.5h-182v-339h204
q32 0 58.5 29t94.5 134h8l-20 -184h-538z" />
    <glyph glyph-name="edotaccent" unicode="&#x117;" horiz-adv-x="491" 
d="M254 570q-25 0 -43.5 17.5t-18.5 42.5q0 24 18.5 42t43.5 18t43.5 -18t18.5 -42q0 -25 -18.5 -42.5t-43.5 -17.5zM262 -10q-98 0 -163 70t-65 180q0 109 62.5 181t156.5 72q87 0 142 -60.5t55 -144.5v-11h-323q1 -105 50 -157.5t117 -52.5q44 0 87.5 21.5t70.5 63.5l6 -2
q-11 -66 -66 -113t-130 -47zM128 297h222q-3 73 -31 124t-74 51q-45 0 -78 -49t-39 -126z" />
    <glyph glyph-name="Eogonek" unicode="&#x118;" horiz-adv-x="644" 
d="M456 0q-78 -67 -78 -125q0 -23 14 -35.5t35 -12.5q38 0 79 37l8 -6q-21 -36 -58 -61t-76 -25q-35 0 -59 19t-24 49q0 36 40 79.5t98 80.5h-400v18l85 3v673l-85 3v18h510l19 -179h-9q-69 104 -93 131t-55 27h-179v-313h182q18 0 36 19.5t51 67.5h8v-194h-8
q-33 47 -51 66.5t-36 19.5h-182v-339h204q32 0 58.5 29t94.5 134h8l-20 -184h-117z" />
    <glyph glyph-name="eogonek" unicode="&#x119;" horiz-adv-x="491" 
d="M335 -154q35 0 74 37l7 -6q-19 -36 -53.5 -61t-72.5 -25q-34 0 -56.5 19t-22.5 49q0 60 97 136q-23 -5 -46 -5q-98 0 -163 70t-65 180q0 109 62.5 181t156.5 72q87 0 142 -60.5t55 -144.5v-11h-323q1 -105 50 -157.5t117 -52.5q44 0 87.5 21.5t70.5 63.5l6 -2
q-7 -43 -34.5 -79.5t-68.5 -58.5q-66 -62 -66 -118q0 -23 13 -35.5t33 -12.5zM245 472q-45 0 -78 -49t-39 -126h222q-3 73 -31 124t-74 51z" />
    <glyph glyph-name="Ecaron" unicode="&#x11a;" horiz-adv-x="644" 
d="M167 904l162 -69l161 69l5 -5l-163 -154h-6l-162 154zM35 0v18l85 3v673l-85 3v18h510l19 -179h-9q-69 104 -93 131t-55 27h-179v-313h182q18 0 36 19.5t51 67.5h8v-194h-8q-33 47 -51 66.5t-36 19.5h-182v-339h204q32 0 58.5 29t94.5 134h8l-20 -184h-538z" />
    <glyph glyph-name="ecaron" unicode="&#x11b;" horiz-adv-x="491" 
d="M134 740l118 -82l121 81l6 -4l-122 -178h-7l-122 178zM262 -10q-98 0 -163 70t-65 180q0 109 62.5 181t156.5 72q87 0 142 -60.5t55 -144.5v-11h-323q1 -105 50 -157.5t117 -52.5q44 0 87.5 21.5t70.5 63.5l6 -2q-11 -66 -66 -113t-130 -47zM128 297h222q-3 73 -31 124
t-74 51q-45 0 -78 -49t-39 -126z" />
    <glyph glyph-name="Gcircumflex" unicode="&#x11c;" horiz-adv-x="704" 
d="M230 748l-4 6l162 153h7l162 -153l-4 -6l-162 69zM392 -10q-158 0 -252 98.5t-94 266.5t97 270t248 102q101 0 214 -37l12 -132h-7q-97 93 -138 120.5t-80 27.5q-100 0 -165 -92.5t-65 -259.5q0 -162 64.5 -252.5t168.5 -90.5q45 0 86 15.5t63 37.5v255h-179v21h284v-287
l-63 -8q-108 -55 -194 -55z" />
    <glyph glyph-name="gcircumflex" unicode="&#x11d;" horiz-adv-x="523" 
d="M127 556l-5 5l121 178h7l122 -178l-5 -4l-121 81zM221 -226q-75 0 -135.5 25.5t-60.5 72.5q0 36 34.5 65t73.5 44v1q-88 3 -88 64q0 25 28 51t99 70v1q-60 16 -92.5 57.5t-32.5 99.5q0 77 55.5 122.5t147.5 45.5h24l188 60h4l-17 -84l-144 13v-1q60 -17 101.5 -55
t41.5 -102q0 -70 -54.5 -117.5t-148.5 -47.5q-21 0 -51 4q-59 -49 -59 -69q0 -22 26 -22q21 0 93 1t83 1q160 0 160 -117q0 -59 -47 -102.5t-107.5 -62t-121.5 -18.5zM248 179q44 0 73.5 37.5t29.5 108.5q0 72 -29.5 110t-72.5 38q-42 0 -72.5 -38.5t-30.5 -109.5
q0 -70 29.5 -108t72.5 -38zM234 -204q72 0 128.5 34t56.5 83q0 32 -23 53t-65 21q-45 0 -170 -5q-56 -42 -56 -93q0 -44 35.5 -68.5t93.5 -24.5z" />
    <glyph glyph-name="Gbreve" unicode="&#x11e;" horiz-adv-x="704" 
d="M391 750q-122 0 -138 149h9q12 -39 49 -60t80 -21t80 21t49 60h8q-16 -149 -137 -149zM392 -10q-158 0 -252 98.5t-94 266.5t97 270t248 102q101 0 214 -37l12 -132h-7q-97 93 -138 120.5t-80 27.5q-100 0 -165 -92.5t-65 -259.5q0 -162 64.5 -252.5t168.5 -90.5
q45 0 86 15.5t63 37.5v255h-179v21h284v-287l-63 -8q-108 -55 -194 -55z" />
    <glyph glyph-name="gbreve" unicode="&#x11f;" horiz-adv-x="523" 
d="M247 563q-107 0 -123 153h10q11 -40 43 -62t70 -22q37 0 69 22t42 62h10q-14 -153 -121 -153zM221 -226q-75 0 -135.5 25.5t-60.5 72.5q0 36 34.5 65t73.5 44v1q-88 3 -88 64q0 25 28 51t99 70v1q-60 16 -92.5 57.5t-32.5 99.5q0 77 55.5 122.5t147.5 45.5h24l188 60h4
l-17 -84l-144 13v-1q60 -17 101.5 -55t41.5 -102q0 -70 -54.5 -117.5t-148.5 -47.5q-21 0 -51 4q-59 -49 -59 -69q0 -22 26 -22q21 0 93 1t83 1q160 0 160 -117q0 -59 -47 -102.5t-107.5 -62t-121.5 -18.5zM248 179q44 0 73.5 37.5t29.5 108.5q0 72 -29.5 110t-72.5 38
q-42 0 -72.5 -38.5t-30.5 -109.5q0 -70 29.5 -108t72.5 -38zM234 -204q72 0 128.5 34t56.5 83q0 32 -23 53t-65 21q-45 0 -170 -5q-56 -42 -56 -93q0 -44 35.5 -68.5t93.5 -24.5z" />
    <glyph glyph-name="Gdotaccent" unicode="&#x120;" horiz-adv-x="704" 
d="M391 761q-24 0 -41.5 17t-17.5 42t17.5 42.5t41.5 17.5q25 0 42.5 -17.5t17.5 -42.5t-17.5 -42t-42.5 -17zM392 -10q-158 0 -252 98.5t-94 266.5t97 270t248 102q101 0 214 -37l12 -132h-7q-97 93 -138 120.5t-80 27.5q-100 0 -165 -92.5t-65 -259.5q0 -162 64.5 -252.5
t168.5 -90.5q45 0 86 15.5t63 37.5v255h-179v21h284v-287l-63 -8q-108 -55 -194 -55z" />
    <glyph glyph-name="gdotaccent" unicode="&#x121;" horiz-adv-x="523" 
d="M246 573q-24 0 -41.5 17t-17.5 42t17.5 42.5t41.5 17.5q25 0 42.5 -17.5t17.5 -42.5t-17.5 -42t-42.5 -17zM221 -226q-75 0 -135.5 25.5t-60.5 72.5q0 36 34.5 65t73.5 44v1q-88 3 -88 64q0 25 28 51t99 70v1q-60 16 -92.5 57.5t-32.5 99.5q0 77 55.5 122.5t147.5 45.5
h24l188 60h4l-17 -84l-144 13v-1q60 -17 101.5 -55t41.5 -102q0 -70 -54.5 -117.5t-148.5 -47.5q-21 0 -51 4q-59 -49 -59 -69q0 -22 26 -22q21 0 93 1t83 1q160 0 160 -117q0 -59 -47 -102.5t-107.5 -62t-121.5 -18.5zM248 179q44 0 73.5 37.5t29.5 108.5q0 72 -29.5 110
t-72.5 38q-42 0 -72.5 -38.5t-30.5 -109.5q0 -70 29.5 -108t72.5 -38zM234 -204q72 0 128.5 34t56.5 83q0 32 -23 53t-65 21q-45 0 -170 -5q-56 -42 -56 -93q0 -44 35.5 -68.5t93.5 -24.5z" />
    <glyph glyph-name="uni0122" unicode="&#x122;" horiz-adv-x="704" 
d="M365 340h284v-287l-63 -8q-108 -55 -194 -55q-158 0 -252 98.5t-94 266.5t97 270t248 102q101 0 214 -37l12 -132h-7q-97 93 -138 120.5t-80 27.5q-100 0 -165 -92.5t-65 -259.5q0 -162 64.5 -252.5t168.5 -90.5q45 0 86 15.5t63 37.5v255h-179v21zM400 -32
q23 0 40 -15.5t17 -40.5q0 -30 -23.5 -63t-75.5 -88l-10 7q41 55 57 98h-4q-26 0 -42.5 14.5t-16.5 36.5t17 36.5t41 14.5z" />
    <glyph glyph-name="uni0123" unicode="&#x123;" horiz-adv-x="523" 
d="M250 560q-23 0 -39.5 16t-16.5 41q0 29 24.5 64t74.5 86l10 -7q-41 -53 -57 -97h4q25 0 42 -14.5t17 -36.5t-17 -37t-42 -15zM337 74q160 0 160 -117q0 -59 -47 -102.5t-107.5 -62t-121.5 -18.5q-75 0 -135.5 25.5t-60.5 72.5q0 36 34.5 65t73.5 44v1q-88 3 -88 64
q0 25 28 51t99 70v1q-60 16 -92.5 57.5t-32.5 99.5q0 77 55.5 122.5t147.5 45.5h24l188 60h4l-17 -84l-144 13v-1q60 -17 101.5 -55t41.5 -102q0 -70 -54.5 -117.5t-148.5 -47.5q-21 0 -51 4q-59 -49 -59 -69q0 -22 26 -22q21 0 93 1t83 1zM146 325q0 -70 29.5 -108
t72.5 -38q44 0 73.5 37.5t29.5 108.5q0 72 -29.5 110t-72.5 38q-42 0 -72.5 -38.5t-30.5 -109.5zM234 -204q72 0 128.5 34t56.5 83q0 32 -23 53t-65 21q-45 0 -170 -5q-56 -42 -56 -93q0 -44 35.5 -68.5t93.5 -24.5z" />
    <glyph glyph-name="Hcircumflex" unicode="&#x124;" horiz-adv-x="784" 
d="M229 748l-4 6l162 153h7l162 -153l-4 -6l-162 69zM35 0v18l85 3v673l-85 3v18h278v-18l-85 -3v-311h332v311l-85 3v18h277v-18l-85 -3v-673l85 -3v-18h-277v18l85 3v341h-332v-341l85 -3v-18h-278z" />
    <glyph glyph-name="hcircumflex" unicode="&#x125;" horiz-adv-x="600" 
d="M-4 747l-4 5l146 138h6l146 -138l-3 -5l-146 62zM24 0v18l71 1v627l-72 61v6l173 32v-356q76 104 173 104q60 0 100.5 -34.5t40.5 -105.5v-334l71 -1v-18h-244v18l71 1v307q0 55 -23.5 81.5t-64.5 26.5q-67 0 -124 -69v-346l71 -1v-18h-243z" />
    <glyph glyph-name="Hbar" unicode="&#x126;" horiz-adv-x="786" 
d="M35 0v18l85 3v493h-84v18h84v162l-85 3v18h278v-18l-85 -3v-162h332v162l-85 3v18h277v-18l-85 -3v-162h87v-18h-87v-493l85 -3v-18h-277v18l85 3v341h-332v-341l85 -3v-18h-278zM228 383h332v131h-332v-131z" />
    <glyph glyph-name="hbar" unicode="&#x127;" horiz-adv-x="600" 
d="M510 19l71 -1v-18h-244v18l71 1v307q0 55 -23.5 81.5t-64.5 26.5q-67 0 -124 -69v-346l71 -1v-18h-243v18l71 1v559h-67v21h67v47l-72 61v6l173 32v-146h112v-21h-112v-189q76 104 173 104q60 0 100.5 -34.5t40.5 -105.5v-334z" />
    <glyph glyph-name="Itilde" unicode="&#x128;" horiz-adv-x="344" 
d="M226 775q-25 0 -63 15q-42 16 -64 16q-26 0 -51 -29l-8 3q15 90 85 90q26 0 62 -16q38 -16 65 -16t50 29l7 -3q-14 -89 -83 -89zM35 0v18l85 3v673l-85 3v18h278v-18l-85 -3v-673l85 -3v-18h-278z" />
    <glyph glyph-name="itilde" unicode="&#x129;" horiz-adv-x="287" 
d="M183 586q-24 0 -62 15q-42 16 -64 16q-25 0 -50 -29l-8 3q15 90 84 90q26 0 62 -16q38 -16 64 -16q27 0 50 29l7 -3q-13 -89 -83 -89zM24 0v18l71 1v375l-72 54v5l173 45v-479l71 -1v-18h-243z" />
    <glyph glyph-name="Imacron" unicode="&#x12a;" horiz-adv-x="344" 
d="M43 783v57h269v-57h-269zM35 0v18l85 3v673l-85 3v18h278v-18l-85 -3v-673l85 -3v-18h-278z" />
    <glyph glyph-name="imacron" unicode="&#x12b;" horiz-adv-x="287" 
d="M12 595v57h248v-57h-248zM24 0v18l71 1v375l-72 54v5l173 45v-479l71 -1v-18h-243z" />
    <glyph glyph-name="Ibreve" unicode="&#x12c;" horiz-adv-x="344" 
d="M173 750q-122 0 -138 149h9q12 -39 49 -60t80 -21t80 21t49 60h8q-16 -149 -137 -149zM35 0v18l85 3v673l-85 3v18h278v-18l-85 -3v-673l85 -3v-18h-278z" />
    <glyph glyph-name="ibreve" unicode="&#x12d;" horiz-adv-x="287" 
d="M132 563q-107 0 -123 153h10q11 -40 43 -62t70 -22q37 0 69 22t42 62h10q-14 -153 -121 -153zM24 0v18l71 1v375l-72 54v5l173 45v-479l71 -1v-18h-243z" />
    <glyph glyph-name="Iogonek" unicode="&#x12e;" horiz-adv-x="344" 
d="M313 697l-85 -3v-673l85 -3v-18h-106q-78 -67 -78 -125q0 -23 14 -35.5t35 -12.5q38 0 79 37l8 -6q-21 -36 -58 -61t-76 -25q-35 0 -59 19t-24 49q0 36 40 79.5t98 80.5h-151v18l85 3v673l-85 3v18h278v-18z" />
    <glyph glyph-name="iogonek" unicode="&#x12f;" horiz-adv-x="287" 
d="M132 570q-26 0 -44 17.5t-18 42.5q0 24 18.5 42t43.5 18t43.5 -18t18.5 -42q0 -25 -18.5 -42.5t-43.5 -17.5zM190 0q-29 -26 -51 -60.5t-22 -64.5q0 -24 13 -36t33 -12q35 0 74 37l7 -6q-19 -36 -53.5 -61t-72.5 -25q-34 0 -56.5 19t-22.5 49q0 37 38 80.5t92 79.5h-145
v18l71 1v375l-72 54v5l173 45v-479l71 -1v-18h-77z" />
    <glyph glyph-name="Idotaccent" unicode="&#x130;" horiz-adv-x="344" 
d="M174 761q-24 0 -41.5 17t-17.5 42t17.5 42.5t41.5 17.5q25 0 42.5 -17.5t17.5 -42.5t-17.5 -42t-42.5 -17zM35 0v18l85 3v673l-85 3v18h278v-18l-85 -3v-673l85 -3v-18h-278z" />
    <glyph glyph-name="dotlessi" unicode="&#x131;" horiz-adv-x="287" 
d="M24 0v18l71 1v375l-72 54v5l173 45v-479l71 -1v-18h-243z" />
    <glyph glyph-name="Jcircumflex" unicode="&#x134;" horiz-adv-x="516" 
d="M193 748l-4 6l162 153h7l162 -153l-4 -6l-162 69zM222 -10q-84 0 -158 46l15 145h7q55 -108 79.5 -139t56.5 -31q79 0 79 128v555l-85 3v18h278v-18l-85 -3v-534q0 -87 -56.5 -128.5t-130.5 -41.5z" />
    <glyph glyph-name="jcircumflex" unicode="&#x135;" horiz-adv-x="297" 
d="M17 556l-5 5l121 178h7l122 -178l-5 -4l-121 81zM7 -218l-3 12q52 28 73.5 66.5t21.5 112.5v419l-72 55v6l173 45v-474q0 -104 -49.5 -161t-143.5 -81z" />
    <glyph glyph-name="uni0136" unicode="&#x136;" horiz-adv-x="714" 
d="M606 85q3 -5 13 -15t28 -28.5t35 -36.5v-5h-143l-233 365l-78 -100v-244l85 -3v-18h-278v18l85 3v673l-85 3v18h278v-18l-85 -3v-395l310 395l-108 3v18h231v-18l-95 -3l-250 -316l93 10zM376 -32q23 0 40 -15.5t17 -40.5q0 -30 -23.5 -63t-75.5 -88l-10 7q41 55 57 98
h-4q-26 0 -42.5 14.5t-16.5 36.5t17 36.5t41 14.5z" />
    <glyph glyph-name="uni0137" unicode="&#x137;" horiz-adv-x="570" 
d="M503 66q6 -11 48 -62v-4h-122l-172 258l-61 -50v-189l71 -1v-18h-243v18l71 1v629l-72 61v4l173 32v-510l191 154q11 8 11 17q0 8 -8 13l-59 48v14h204v-5q-20 -16 -59.5 -45t-59.5 -45l-146 -118l80 18zM302 -32q23 0 40 -15.5t17 -40.5q0 -30 -23.5 -63t-75.5 -88
l-10 7q41 55 57 98h-4q-26 0 -42.5 14.5t-16.5 36.5t17 36.5t41 14.5z" />
    <glyph glyph-name="kgreenlandic" unicode="&#x138;" horiz-adv-x="570" 
d="M24 0v18l71 1v373l-72 52v9l173 45v-262l189 154q11 8 11 17q0 6 -8 13l-56 48v14h203v-7q-21 -16 -60.5 -44t-59.5 -44l-145 -118l81 17l153 -220q15 -22 48 -61v-4h-122l-172 258l-62 -50v-190l71 -1v-18h-243z" />
    <glyph glyph-name="Lacute" unicode="&#x139;" horiz-adv-x="619" 
d="M91 744l-4 8l172 135l58 -79zM35 0v18l85 3v673l-85 3v18h278v-18l-85 -3v-673h190q32 0 59 29t97 134h5l-20 -184h-524z" />
    <glyph glyph-name="lacute" unicode="&#x13a;" horiz-adv-x="287" 
d="M23 765l-5 5l159 156l63 -76zM24 0v18l71 1v627l-72 61v6l173 32v-726l71 -1v-18h-243z" />
    <glyph glyph-name="uni013B" unicode="&#x13b;" horiz-adv-x="619" 
d="M574 184h5l-20 -184h-524v18l85 3v673l-85 3v18h278v-18l-85 -3v-673h190q32 0 59 29t97 134zM346 -32q23 0 40 -15.5t17 -40.5q0 -30 -23.5 -63t-75.5 -88l-10 7q41 55 57 98h-4q-26 0 -42.5 14.5t-16.5 36.5t17 36.5t41 14.5z" />
    <glyph glyph-name="uni013C" unicode="&#x13c;" horiz-adv-x="287" 
d="M196 19l71 -1v-18h-243v18l71 1v627l-72 61v6l173 32v-726zM146 -32q23 0 40 -15.5t17 -40.5q0 -30 -23.5 -63t-75.5 -88l-10 7q41 55 57 98h-4q-26 0 -42.5 14.5t-16.5 36.5t17 36.5t41 14.5z" />
    <glyph glyph-name="Lcaron" unicode="&#x13d;" horiz-adv-x="619" 
d="M354 546l-7 1l19 223l98 -16zM35 0v18l85 3v673l-85 3v18h278v-18l-85 -3v-673h190q32 0 59 29t97 134h5l-20 -184h-524z" />
    <glyph glyph-name="lcaron" unicode="&#x13e;" horiz-adv-x="287" 
d="M24 0v18l71 1v627l-72 61v6l173 32v-726l71 -1v-18h-243zM247 523l15 212h102l-109 -212h-8z" />
    <glyph glyph-name="Ldot" unicode="&#x13f;" horiz-adv-x="619" 
d="M35 0v18l85 3v673l-85 3v18h278v-18l-85 -3v-673h190q32 0 59 29t94 134h8l-20 -184h-524zM507 252q-28 0 -49.5 21t-21.5 49t21 49.5t50 21.5t50 -21.5t21 -49.5t-21.5 -49t-49.5 -21z" />
    <glyph glyph-name="ldot" unicode="&#x140;" horiz-adv-x="421" 
d="M24 0v18l71 1v627l-72 61v6l173 32v-726l71 -1v-18h-243zM352 216q-28 0 -49.5 21t-21.5 49t21.5 49.5t49.5 21.5t49.5 -21.5t21.5 -49.5t-21.5 -49t-49.5 -21z" />
    <glyph glyph-name="Lslash" unicode="&#x141;" horiz-adv-x="629" 
d="M582 184h8l-20 -184h-525v18l85 3v255l-95 -56v23l95 56v395l-85 3v18h278v-18l-85 -3v-331l146 87v-23l-146 -87v-319h190q33 0 59.5 29t94.5 134z" />
    <glyph glyph-name="lslash" unicode="&#x142;" horiz-adv-x="292" 
d="M201 19l71 -1v-18h-243v18l71 1v297l-77 -53v24l77 53v306l-72 61v6l173 32v-336l69 47v-23l-69 -47v-367z" />
    <glyph glyph-name="Nacute" unicode="&#x143;" horiz-adv-x="749" 
d="M300 744l-4 8l172 135l58 -79zM28 0v18l98 3v627l-96 63v4h184l399 -548v527l-97 3v18h215v-18l-97 -3v-694h-20l-465 630h-2v-609l97 -3v-18h-216z" />
    <glyph glyph-name="nacute" unicode="&#x144;" horiz-adv-x="600" 
d="M244 543l-6 4l119 189l80 -59zM24 0v18l71 1v373l-72 55v6l172 45l-2 -111h1q76 106 175 106q60 0 100.5 -34.5t40.5 -105.5v-334l71 -1v-18h-244v18l71 1v307q0 55 -23.5 81.5t-64.5 26.5q-67 0 -124 -69v-346l71 -1v-18h-243z" />
    <glyph glyph-name="uni0145" unicode="&#x145;" horiz-adv-x="749" 
d="M731 715v-18l-97 -3v-694h-20l-465 630h-2v-609l97 -3v-18h-216v18l98 3v627l-96 63v4h184l399 -548v527l-97 3v18h215zM377 -32q23 0 40 -15.5t17 -40.5q0 -30 -23.5 -63t-75.5 -88l-10 7q41 55 57 98h-4q-26 0 -42.5 14.5t-16.5 36.5t17 36.5t41 14.5z" />
    <glyph glyph-name="uni0146" unicode="&#x146;" horiz-adv-x="600" 
d="M510 19l71 -1v-18h-244v18l71 1v307q0 55 -23.5 81.5t-64.5 26.5q-67 0 -124 -69v-346l71 -1v-18h-243v18l71 1v373l-72 55v6l172 45l-2 -111h1q76 106 175 106q60 0 100.5 -34.5t40.5 -105.5v-334zM312 -32q23 0 40 -15.5t17 -40.5q0 -30 -23.5 -63t-75.5 -88l-10 7
q41 55 57 98h-4q-26 0 -42.5 14.5t-16.5 36.5t17 36.5t41 14.5z" />
    <glyph glyph-name="Ncaron" unicode="&#x147;" horiz-adv-x="749" 
d="M225 904l162 -69l161 69l5 -5l-163 -154h-6l-162 154zM28 0v18l98 3v627l-96 63v4h184l399 -548v527l-97 3v18h215v-18l-97 -3v-694h-20l-465 630h-2v-609l97 -3v-18h-216z" />
    <glyph glyph-name="ncaron" unicode="&#x148;" horiz-adv-x="600" 
d="M185 740l118 -82l121 81l6 -4l-122 -178h-7l-122 178zM24 0v18l71 1v373l-72 55v6l172 45l-2 -111h1q76 106 175 106q60 0 100.5 -34.5t40.5 -105.5v-334l71 -1v-18h-244v18l71 1v307q0 55 -23.5 81.5t-64.5 26.5q-67 0 -124 -69v-346l71 -1v-18h-243z" />
    <glyph glyph-name="Eng" unicode="&#x14a;" horiz-adv-x="749" 
d="M731 715v-18l-97 -3v-804q0 -100 -97 -100q-32 0 -77 19l-13 121h6q61 -54 85.5 -70.5t41.5 -16.5q16 0 24.5 13.5t8.5 32.5v112l-464 629h-2v-609l97 -3v-18h-216v18l98 3v627l-96 63v4h184l399 -548v527l-97 3v18h215z" />
    <glyph glyph-name="eng" unicode="&#x14b;" horiz-adv-x="606" 
d="M315 -218l-4 12q50 26 73.5 65.5t23.5 111.5v354q0 55 -24 82t-64 27q-67 0 -124 -69v-346l71 -1v-18h-243v18l71 1v373l-72 52v9l172 45l-2 -111h1q75 106 175 106q60 0 100.5 -34.5t40.5 -105.5v-332q0 -192 -195 -239z" />
    <glyph glyph-name="Omacron" unicode="&#x14c;" horiz-adv-x="767" 
d="M253 783v57h269v-57h-269zM384 -12q-148 0 -243 103.5t-95 266.5t95 266t243 103q147 0 242 -103t95 -266t-95 -266.5t-242 -103.5zM385 9q93 0 157 96.5t64 252.5q0 155 -64.5 251.5t-158.5 96.5q-93 0 -157 -97t-64 -253q0 -155 64.5 -251t158.5 -96z" />
    <glyph glyph-name="omacron" unicode="&#x14d;" horiz-adv-x="555" 
d="M160 595v57h248v-57h-248zM277 -10q-112 0 -177.5 72.5t-65.5 178.5q0 107 65.5 179.5t177.5 72.5q113 0 178.5 -72.5t65.5 -179.5q0 -106 -65.5 -178.5t-178.5 -72.5zM277 11q58 0 97 58t39 172q0 116 -38.5 173.5t-97.5 57.5q-56 0 -95.5 -59t-39.5 -172t39.5 -171.5
t95.5 -58.5z" />
    <glyph glyph-name="Obreve" unicode="&#x14e;" horiz-adv-x="767" 
d="M383 750q-122 0 -138 149h9q12 -39 49 -60t80 -21t80 21t49 60h8q-16 -149 -137 -149zM384 -12q-148 0 -243 103.5t-95 266.5t95 266t243 103q147 0 242 -103t95 -266t-95 -266.5t-242 -103.5zM385 9q93 0 157 96.5t64 252.5q0 155 -64.5 251.5t-158.5 96.5
q-93 0 -157 -97t-64 -253q0 -155 64.5 -251t158.5 -96z" />
    <glyph glyph-name="obreve" unicode="&#x14f;" horiz-adv-x="555" 
d="M281 563q-107 0 -123 153h10q11 -40 43 -62t70 -22q37 0 69 22t42 62h10q-14 -153 -121 -153zM277 -10q-112 0 -177.5 72.5t-65.5 178.5q0 107 65.5 179.5t177.5 72.5q113 0 178.5 -72.5t65.5 -179.5q0 -106 -65.5 -178.5t-178.5 -72.5zM277 11q58 0 97 58t39 172
q0 116 -38.5 173.5t-97.5 57.5q-56 0 -95.5 -59t-39.5 -172t39.5 -171.5t95.5 -58.5z" />
    <glyph glyph-name="Ohungarumlaut" unicode="&#x150;" horiz-adv-x="767" 
d="M240 744l-5 5l142 170l68 -69zM430 744l-6 5l142 170l68 -69zM384 -12q-148 0 -243 103.5t-95 266.5t95 266t243 103q147 0 242 -103t95 -266t-95 -266.5t-242 -103.5zM385 9q93 0 157 96.5t64 252.5q0 155 -64.5 251.5t-158.5 96.5q-93 0 -157 -97t-64 -253
q0 -155 64.5 -251t158.5 -96z" />
    <glyph glyph-name="ohungarumlaut" unicode="&#x151;" horiz-adv-x="555" 
d="M336 542l-7 4l82 206l86 -45zM160 542l-7 3l82 206l86 -44zM277 -10q-112 0 -177.5 72.5t-65.5 178.5q0 107 65.5 179.5t177.5 72.5q113 0 178.5 -72.5t65.5 -179.5q0 -106 -65.5 -178.5t-178.5 -72.5zM277 11q58 0 97 58t39 172q0 116 -38.5 173.5t-97.5 57.5
q-56 0 -95.5 -59t-39.5 -172t39.5 -171.5t95.5 -58.5z" />
    <glyph glyph-name="OE" unicode="&#x152;" horiz-adv-x="1087" 
d="M377 -12q-142 0 -236.5 102.5t-94.5 267.5t94 267t237 102q120 0 196 -85v73h412l19 -179h-9q-68 103 -92.5 130.5t-54.5 27.5h-167v-312h164q17 0 33 17.5t47 59.5q5 7 7 10h7v-194h-7q-23 33 -34.5 48t-26 26.5t-26.5 11.5h-164v-340h194q32 0 59.5 29t93.5 134h9
l-20 -184h-444v74q-75 -86 -196 -86zM385 10q62 0 112 40.5t76 116.5v378q-26 78 -76 119t-113 41q-97 0 -159.5 -93.5t-62.5 -254.5t63 -254t160 -93z" />
    <glyph glyph-name="oe" unicode="&#x153;" horiz-adv-x="873" 
d="M277 -10q-112 0 -177.5 72.5t-65.5 178.5q0 107 65.5 179.5t177.5 72.5q125 0 182 -104q63 104 176 104q87 0 141.5 -60t54.5 -145v-11h-320q1 -105 49.5 -157.5t115.5 -52.5q103 0 153 86l10 -3q-9 -65 -64 -112.5t-131 -47.5q-59 0 -107 27.5t-78 75.5
q-57 -103 -182 -103zM277 11q58 0 97 58.5t39 171.5q0 114 -39 172.5t-97 58.5q-56 0 -95.5 -59t-39.5 -172q0 -112 39.5 -171t95.5 -59zM511 298h221q-2 71 -30 122.5t-74 51.5q-45 0 -78 -49t-39 -125z" />
    <glyph glyph-name="Racute" unicode="&#x154;" horiz-adv-x="697" 
d="M233 744l-4 8l172 135l58 -79zM35 0v18l85 3v673l-85 3v18h317q114 0 176.5 -53t62.5 -137q0 -88 -65 -140t-181 -52h-28v-1l122 -36l147 -211q4 -6 18 -19t34.5 -31.5t29.5 -27.5v-7h-150l-227 332h-63v-311l85 -3v-18h-278zM228 353h88q82 0 124.5 40.5t42.5 131.5
q0 82 -41.5 125.5t-106.5 43.5h-107v-341z" />
    <glyph glyph-name="racute" unicode="&#x155;" horiz-adv-x="405" 
d="M157 543l-6 4l119 189l80 -59zM24 0v18l71 1v378l-72 52v4l172 45l-3 -110h2q33 51 64.5 78t73.5 27q23 0 50 -15l-19 -95q-82 37 -104 37q-13 0 -26.5 -12t-36.5 -47v-342l92 -1v-18h-264z" />
    <glyph glyph-name="uni0156" unicode="&#x156;" horiz-adv-x="697" 
d="M586 85q4 -6 18 -19t34.5 -31.5t29.5 -27.5v-7h-150l-227 332h-63v-311l85 -3v-18h-278v18l85 3v673l-85 3v18h317q114 0 176.5 -53t62.5 -137q0 -88 -65 -140t-181 -52h-28v-1l122 -36zM228 353h88q82 0 124.5 40.5t42.5 131.5q0 82 -41.5 125.5t-106.5 43.5h-107v-341z
M360 -32q23 0 40 -15.5t17 -40.5q0 -30 -23.5 -63t-75.5 -88l-10 7q41 55 57 98h-4q-26 0 -42.5 14.5t-16.5 36.5t17 36.5t41 14.5z" />
    <glyph glyph-name="uni0157" unicode="&#x157;" horiz-adv-x="405" 
d="M259 420q-13 0 -26.5 -12t-36.5 -47v-342l92 -1v-18h-264v18l71 1v378l-72 52v4l172 45l-3 -110h2q33 51 64.5 78t73.5 27q23 0 50 -15l-19 -95q-82 37 -104 37zM149 -32q23 0 40 -15.5t17 -40.5q0 -30 -23.5 -63t-75.5 -88l-10 7q41 55 57 98h-4q-26 0 -42.5 14.5
t-16.5 36.5t17 36.5t41 14.5z" />
    <glyph glyph-name="Rcaron" unicode="&#x158;" horiz-adv-x="697" 
d="M158 904l162 -69l161 69l5 -5l-163 -154h-6l-162 154zM35 0v18l85 3v673l-85 3v18h317q114 0 176.5 -53t62.5 -137q0 -88 -65 -140t-181 -52h-28v-1l122 -36l147 -211q4 -6 18 -19t34.5 -31.5t29.5 -27.5v-7h-150l-227 332h-63v-311l85 -3v-18h-278zM228 353h88
q82 0 124.5 40.5t42.5 131.5q0 82 -41.5 125.5t-106.5 43.5h-107v-341z" />
    <glyph glyph-name="rcaron" unicode="&#x159;" horiz-adv-x="405" 
d="M99 740l118 -82l121 81l6 -4l-122 -178h-7l-122 178zM24 0v18l71 1v378l-72 52v4l172 45l-3 -110h2q33 51 64.5 78t73.5 27q23 0 50 -15l-19 -95q-82 37 -104 37q-13 0 -26.5 -12t-36.5 -47v-342l92 -1v-18h-264z" />
    <glyph glyph-name="Sacute" unicode="&#x15a;" horiz-adv-x="541" 
d="M187 744l-4 8l172 135l58 -79zM281 -12q-93 0 -220 54l-13 140h7q97 -112 137.5 -142.5t90.5 -30.5q59 0 97.5 37.5t38.5 98.5q0 97 -119 149l-109 50q-136 61 -136 190q0 90 61 141.5t152 51.5q86 0 175 -31l12 -124h-8q-74 79 -112 106.5t-69 27.5q-49 0 -90 -31
t-41 -92q0 -92 118 -145l96 -44q154 -69 154 -209q0 -95 -66 -146t-156 -51z" />
    <glyph glyph-name="sacute" unicode="&#x15b;" horiz-adv-x="430" 
d="M149 543l-6 4l119 189l80 -59zM217 -10q-80 0 -162 35l-12 116h4q84 -87 112 -108.5t61 -21.5q40 0 66.5 23t26.5 59q0 60 -84 95l-70 30q-116 48 -116 143q0 64 50 98t116 34q59 0 145 -20l11 -105h-4q-79 67 -107 85.5t-50 18.5q-33 0 -57 -21t-24 -56q0 -33 21 -54.5
t62 -38.5l72 -31q116 -49 116 -145q0 -61 -50.5 -98.5t-126.5 -37.5z" />
    <glyph glyph-name="Scircumflex" unicode="&#x15c;" horiz-adv-x="541" 
d="M112 748l-4 6l162 153h7l162 -153l-4 -6l-162 69zM281 -12q-93 0 -220 54l-13 140h7q97 -112 137.5 -142.5t90.5 -30.5q59 0 97.5 37.5t38.5 98.5q0 97 -119 149l-109 50q-136 61 -136 190q0 90 61 141.5t152 51.5q86 0 175 -31l12 -124h-8q-74 79 -112 106.5t-69 27.5
q-49 0 -90 -31t-41 -92q0 -92 118 -145l96 -44q154 -69 154 -209q0 -95 -66 -146t-156 -51z" />
    <glyph glyph-name="scircumflex" unicode="&#x15d;" horiz-adv-x="430" 
d="M90 556l-5 5l121 178h7l122 -178l-5 -4l-121 81zM217 -10q-80 0 -162 35l-12 116h4q84 -87 112 -108.5t61 -21.5q40 0 66.5 23t26.5 59q0 60 -84 95l-70 30q-116 48 -116 143q0 64 50 98t116 34q59 0 145 -20l11 -105h-4q-79 67 -107 85.5t-50 18.5q-33 0 -57 -21
t-24 -56q0 -33 21 -54.5t62 -38.5l72 -31q116 -49 116 -145q0 -61 -50.5 -98.5t-126.5 -37.5z" />
    <glyph glyph-name="Scedilla" unicode="&#x15e;" horiz-adv-x="541" 
d="M503 185q0 -95 -65.5 -145.5t-155.5 -51.5l-23 -25q46 -6 78.5 -30t32.5 -65t-32.5 -64t-77.5 -23q-42 0 -108 17l39 62h4q30 -37 43.5 -49t25.5 -12q16 0 28.5 12.5t12.5 34.5q0 59 -91 71l-17 2l64 70q-84 4 -200 53l-13 140h7q97 -112 137.5 -142.5t90.5 -30.5
q59 0 97.5 37.5t38.5 98.5q0 97 -119 149l-109 50q-136 61 -136 190q0 90 61 141.5t152 51.5q86 0 175 -31l12 -124h-8q-74 79 -112 106.5t-69 27.5q-49 0 -90 -31t-41 -92q0 -92 118 -145l96 -44q154 -69 154 -209z" />
    <glyph glyph-name="scedilla" unicode="&#x15f;" horiz-adv-x="430" 
d="M394 126q0 -59 -47.5 -96.5t-120.5 -39.5l-22 -25q44 -6 75.5 -30t31.5 -65t-31.5 -64t-75.5 -23q-40 0 -102 17l38 62h4q29 -37 41.5 -49t23.5 -12q14 0 25.5 12.5t11.5 34.5q0 60 -85 71l-16 2l61 69q-78 3 -151 35l-12 116h4q84 -87 112 -108.5t61 -21.5q40 0 66.5 23
t26.5 59q0 60 -84 95l-70 30q-116 48 -116 143q0 64 50 98t116 34q59 0 145 -20l11 -105h-4q-79 67 -107 85.5t-50 18.5q-33 0 -57 -21t-24 -56q0 -33 21 -54.5t62 -38.5l72 -31q116 -49 116 -145z" />
    <glyph glyph-name="Scaron" unicode="&#x160;" horiz-adv-x="541" 
d="M112 904l162 -69l161 69l5 -5l-163 -154h-6l-162 154zM281 -12q-93 0 -220 54l-13 140h7q97 -112 137.5 -142.5t90.5 -30.5q59 0 97.5 37.5t38.5 98.5q0 97 -119 149l-109 50q-136 61 -136 190q0 90 61 141.5t152 51.5q86 0 175 -31l12 -124h-8q-74 79 -112 106.5
t-69 27.5q-49 0 -90 -31t-41 -92q0 -92 118 -145l96 -44q154 -69 154 -209q0 -95 -66 -146t-156 -51z" />
    <glyph glyph-name="scaron" unicode="&#x161;" horiz-adv-x="430" 
d="M91 740l118 -82l121 81l6 -4l-122 -178h-7l-122 178zM217 -10q-80 0 -162 35l-12 116h4q84 -87 112 -108.5t61 -21.5q40 0 66.5 23t26.5 59q0 60 -84 95l-70 30q-116 48 -116 143q0 64 50 98t116 34q59 0 145 -20l11 -105h-4q-79 67 -107 85.5t-50 18.5q-33 0 -57 -21
t-24 -56q0 -33 21 -54.5t62 -38.5l72 -31q116 -49 116 -145q0 -61 -50.5 -98.5t-126.5 -37.5z" />
    <glyph glyph-name="uni0162" unicode="&#x162;" horiz-adv-x="671" 
d="M623 715l19 -179h-9q-67 102 -91.5 130t-54.5 28h-96v-673l85 -3v-18h-127l-30 -32q46 -6 78.5 -30t32.5 -65t-32.5 -64t-77.5 -23q-42 0 -108 17l39 62h4q30 -37 43.5 -49t25.5 -12q16 0 28.5 12.5t12.5 34.5q0 59 -91 71l-17 2l70 76h-129v18l85 3v673h-97
q-30 0 -54.5 -28t-91.5 -130h-7l19 179h571z" />
    <glyph glyph-name="uni0163" unicode="&#x163;" horiz-adv-x="334" 
d="M324 460h-143v-327q0 -50 21.5 -72.5t53.5 -22.5q27 0 59 16l5 -6q-44 -58 -121 -58h-10l-24 -27q44 -6 75.5 -30t31.5 -65t-31.5 -64t-75.5 -23q-40 0 -102 17l38 62h4q29 -37 41.5 -49t23.5 -12q14 0 25.5 12.5t11.5 34.5q0 60 -85 71l-16 2l65 74q-40 8 -66 39t-26 86
v342h-69v21h69v58l100 88h2v-146h143v-21z" />
    <glyph glyph-name="Tcaron" unicode="&#x164;" horiz-adv-x="671" 
d="M175 904l162 -69l161 69l5 -5l-163 -154h-6l-162 154zM198 0v18l85 3v673h-97q-30 0 -54.5 -28t-91.5 -130h-7l19 179h571l19 -179h-9q-67 102 -91.5 130t-54.5 28h-96v-673l85 -3v-18h-278z" />
    <glyph glyph-name="tcaron" unicode="&#x165;" horiz-adv-x="334" 
d="M224 529l15 212h102l-109 -212h-8zM199 -10q-50 0 -85 31.5t-35 96.5v342h-69v21h69v58l100 88h2v-146h143v-21h-143v-327q0 -50 21.5 -72.5t53.5 -22.5q27 0 59 16l5 -6q-44 -58 -121 -58z" />
    <glyph glyph-name="Tbar" unicode="&#x166;" horiz-adv-x="671" 
d="M623 715l19 -179h-9q-67 102 -91.5 130t-54.5 28h-96v-325h121v-21h-121v-327l85 -3v-18h-278v18l85 3v327h-121v21h121v325h-97q-30 0 -54.5 -28t-91.5 -130h-7l19 179h571z" />
    <glyph glyph-name="tbar" unicode="&#x167;" horiz-adv-x="334" 
d="M324 460h-143v-102h125v-21h-125v-204q0 -50 21.5 -72.5t53.5 -22.5q27 0 59 16l5 -6q-44 -58 -121 -58q-50 0 -85 31.5t-35 96.5v219h-66v21h66v102h-69v21h69v58l100 88h2v-146h143v-21z" />
    <glyph glyph-name="Utilde" unicode="&#x168;" horiz-adv-x="719" 
d="M428 775q-25 0 -63 15q-42 16 -64 16q-26 0 -51 -29l-8 3q15 90 85 90q26 0 62 -16q38 -16 65 -16t50 29l7 -3q-14 -89 -83 -89zM361 -12q-48 0 -89.5 12t-79.5 39t-60 78.5t-22 121.5v455l-85 3v18h278v-18l-85 -3v-447q0 -106 48.5 -164t130.5 -58q81 0 137.5 51
t56.5 150v468l-85 3v18h191v-18l-85 -3v-469q0 -109 -69 -173t-182 -64z" />
    <glyph glyph-name="utilde" unicode="&#x169;" horiz-adv-x="599" 
d="M352 586q-24 0 -62 15q-42 16 -64 16q-25 0 -50 -29l-8 3q15 90 84 90q26 0 62 -16q38 -16 64 -16q27 0 50 29l7 -3q-13 -89 -83 -89zM235 -10q-61 0 -101 34.5t-40 105.5v332l-71 1v18h172v-325q0 -107 88 -107q66 0 124 69v344l-71 1v18h173v-462h70v-18l-90 -1l-81 -2
l2 98h-2q-75 -106 -173 -106z" />
    <glyph glyph-name="Umacron" unicode="&#x16a;" horiz-adv-x="719" 
d="M245 783v57h269v-57h-269zM361 -12q-48 0 -89.5 12t-79.5 39t-60 78.5t-22 121.5v455l-85 3v18h278v-18l-85 -3v-447q0 -106 48.5 -164t130.5 -58q81 0 137.5 51t56.5 150v468l-85 3v18h191v-18l-85 -3v-469q0 -109 -69 -173t-182 -64z" />
    <glyph glyph-name="umacron" unicode="&#x16b;" horiz-adv-x="599" 
d="M180 595v57h248v-57h-248zM235 -10q-61 0 -101 34.5t-40 105.5v332l-71 1v18h172v-325q0 -107 88 -107q66 0 124 69v344l-71 1v18h173v-462h70v-18l-90 -1l-81 -2l2 98h-2q-75 -106 -173 -106z" />
    <glyph glyph-name="Ubreve" unicode="&#x16c;" horiz-adv-x="719" 
d="M375 750q-122 0 -138 149h9q12 -39 49 -60t80 -21t80 21t49 60h8q-16 -149 -137 -149zM361 -12q-48 0 -89.5 12t-79.5 39t-60 78.5t-22 121.5v455l-85 3v18h278v-18l-85 -3v-447q0 -106 48.5 -164t130.5 -58q81 0 137.5 51t56.5 150v468l-85 3v18h191v-18l-85 -3v-469
q0 -109 -69 -173t-182 -64z" />
    <glyph glyph-name="ubreve" unicode="&#x16d;" horiz-adv-x="599" 
d="M301 563q-107 0 -123 153h10q11 -40 43 -62t70 -22q37 0 69 22t42 62h10q-14 -153 -121 -153zM235 -10q-61 0 -101 34.5t-40 105.5v332l-71 1v18h172v-325q0 -107 88 -107q66 0 124 69v344l-71 1v18h173v-462h70v-18l-90 -1l-81 -2l2 98h-2q-75 -106 -173 -106z" />
    <glyph glyph-name="Uring" unicode="&#x16e;" horiz-adv-x="719" 
d="M376 738q-35 0 -61.5 25.5t-26.5 60.5q0 34 26.5 59t61.5 25q36 0 62 -25t26 -59q0 -36 -26 -61t-62 -25zM376 754q29 0 49.5 21t20.5 49t-20.5 48t-49.5 20t-49.5 -20t-20.5 -48t20.5 -49t49.5 -21zM361 -12q-48 0 -89.5 12t-79.5 39t-60 78.5t-22 121.5v455l-85 3v18
h278v-18l-85 -3v-447q0 -106 48.5 -164t130.5 -58q81 0 137.5 51t56.5 150v468l-85 3v18h191v-18l-85 -3v-469q0 -109 -69 -173t-182 -64z" />
    <glyph glyph-name="uring" unicode="&#x16f;" horiz-adv-x="599" 
d="M301 542q-36 0 -63 25.5t-27 61.5q0 35 27 60t63 25q37 0 63.5 -25t26.5 -60q0 -36 -26.5 -61.5t-63.5 -25.5zM301 560q29 0 49.5 20.5t20.5 48.5t-20.5 47.5t-49.5 19.5t-49.5 -19.5t-20.5 -47.5t21 -48.5t49 -20.5zM235 -10q-61 0 -101 34.5t-40 105.5v332l-71 1v18
h172v-325q0 -107 88 -107q66 0 124 69v344l-71 1v18h173v-462h70v-18l-90 -1l-81 -2l2 98h-2q-75 -106 -173 -106z" />
    <glyph glyph-name="Uhungarumlaut" unicode="&#x170;" horiz-adv-x="719" 
d="M232 744l-5 5l142 170l68 -69zM422 744l-6 5l142 170l68 -69zM361 -12q-48 0 -89.5 12t-79.5 39t-60 78.5t-22 121.5v455l-85 3v18h278v-18l-85 -3v-447q0 -106 48.5 -164t130.5 -58q81 0 137.5 51t56.5 150v468l-85 3v18h191v-18l-85 -3v-469q0 -109 -69 -173t-182 -64z
" />
    <glyph glyph-name="uhungarumlaut" unicode="&#x171;" horiz-adv-x="599" 
d="M356 542l-7 4l82 206l86 -45zM180 542l-7 3l82 206l86 -44zM235 -10q-61 0 -101 34.5t-40 105.5v332l-71 1v18h172v-325q0 -107 88 -107q66 0 124 69v344l-71 1v18h173v-462h70v-18l-90 -1l-81 -2l2 98h-2q-75 -106 -173 -106z" />
    <glyph glyph-name="Uogonek" unicode="&#x172;" horiz-adv-x="719" 
d="M697 715v-18l-85 -3v-469q0 -80 -38 -136.5t-106 -82.5q-30 -26 -52 -59t-22 -62q0 -23 14 -35.5t35 -12.5q38 0 79 37l8 -6q-21 -36 -58 -61t-76 -25q-35 0 -59 19t-24 49q0 62 115 145q-29 -7 -67 -7q-48 0 -89.5 12t-79.5 39t-60 78.5t-22 121.5v455l-85 3v18h278v-18
l-85 -3v-447q0 -106 48.5 -164t130.5 -58q81 0 137.5 51t56.5 150v468l-85 3v18h191z" />
    <glyph glyph-name="uogonek" unicode="&#x173;" horiz-adv-x="599" 
d="M509 19h70v-18l-90 -1l-62 -2q-71 -67 -71 -123q0 -24 13 -36t33 -12q35 0 74 37l7 -6q-19 -36 -53.5 -61t-72.5 -25q-34 0 -56.5 19t-22.5 49q0 37 38 80.5t92 79.5l2 96h-2q-75 -106 -173 -106q-61 0 -101 34.5t-40 105.5v332l-71 1v18h172v-325q0 -107 88 -107
q66 0 124 69v344l-71 1v18h173v-462z" />
    <glyph glyph-name="Wcircumflex" unicode="&#x174;" horiz-adv-x="1069" 
d="M528 817l-161 -69l-4 6l162 153h7l162 -153l-4 -6zM1070 715v-18l-87 -3l-254 -701h-15l-177 466l-181 -466h-15l-257 701l-81 3v18h281v-18l-88 -3l199 -545l131 338l-78 207l-81 3v18h282v-18l-89 -3l204 -547l197 547l-106 3v18h215z" />
    <glyph glyph-name="wcircumflex" unicode="&#x175;" horiz-adv-x="816" 
d="M406 638l-119 -82l-5 5l121 178h7l122 -178l-5 -4zM812 481v-18l-70 -1l-190 -466h-15l-127 314l-138 -314h-14l-190 466l-65 1v18h247v-18l-76 -1l133 -337l92 212l-51 125l-66 1v18h247v-18l-76 -1l132 -333l134 333l-81 1v18h174z" />
    <glyph glyph-name="Ycircumflex" unicode="&#x176;" horiz-adv-x="686" 
d="M213 748l-4 6l162 153h7l162 -153l-4 -6l-162 69zM207 0v18l85 3v296l-230 377l-79 3v18h289v-18l-91 -3l209 -342l206 342l-92 3v18h204v-18l-88 -3l-221 -366v-307l85 -3v-18h-277z" />
    <glyph glyph-name="ycircumflex" unicode="&#x177;" horiz-adv-x="546" 
d="M165 556l-5 5l121 178h7l122 -178l-5 -4l-121 81zM147 -206q-36 0 -66 15l-6 122h4q53 -51 74 -66t36 -15q26 0 37 26l34 89l-191 497l-66 1v18h246v-18l-75 -1l136 -368l139 368l-81 1v18h174v-18l-70 -1l-230 -603q-13 -33 -40 -49t-55 -16z" />
    <glyph glyph-name="Ydieresis" unicode="&#x178;" horiz-adv-x="686" 
d="M280 761q-25 0 -42 17.5t-17 41.5t17 41.5t42 17.5q24 0 41 -17.5t17 -41.5t-17 -41.5t-41 -17.5zM470 761q-24 0 -41.5 17.5t-17.5 41.5t17.5 41.5t41.5 17.5t41.5 -17.5t17.5 -41.5t-17.5 -41.5t-41.5 -17.5zM207 0v18l85 3v296l-230 377l-79 3v18h289v-18l-91 -3
l209 -342l206 342l-92 3v18h204v-18l-88 -3l-221 -366v-307l85 -3v-18h-277z" />
    <glyph glyph-name="Zacute" unicode="&#x179;" horiz-adv-x="620" 
d="M236 744l-4 8l172 135l58 -79zM53 0v14l404 680h-225q-31 0 -56 -28t-92 -130h-8l19 179h478v-13l-404 -681h244q32 0 59.5 29t93.5 134h9l-20 -184h-502z" />
    <glyph glyph-name="zacute" unicode="&#x17a;" horiz-adv-x="469" 
d="M184 543l-6 4l119 189l80 -59zM41 0v11l274 449h-127q-22 0 -44 -22.5t-83 -103.5h-4l13 147h361v-11l-277 -449h148q23 0 45 23.5t79 108.5h5l-13 -153h-377z" />
    <glyph glyph-name="Zdotaccent" unicode="&#x17b;" horiz-adv-x="620" 
d="M323 761q-24 0 -41.5 17t-17.5 42t17.5 42.5t41.5 17.5q25 0 42.5 -17.5t17.5 -42.5t-17.5 -42t-42.5 -17zM53 0v14l404 680h-225q-31 0 -56 -28t-92 -130h-8l19 179h478v-13l-404 -681h244q32 0 59.5 29t93.5 134h9l-20 -184h-502z" />
    <glyph glyph-name="zdotaccent" unicode="&#x17c;" horiz-adv-x="469" 
d="M245 570q-25 0 -43.5 17.5t-18.5 42.5q0 24 18.5 42t43.5 18t43.5 -18t18.5 -42q0 -25 -18.5 -42.5t-43.5 -17.5zM41 0v11l274 449h-127q-22 0 -44 -22.5t-83 -103.5h-4l13 147h361v-11l-277 -449h148q23 0 45 23.5t79 108.5h5l-13 -153h-377z" />
    <glyph glyph-name="Zcaron" unicode="&#x17d;" horiz-adv-x="620" 
d="M161 904l162 -69l161 69l5 -5l-163 -154h-6l-162 154zM53 0v14l404 680h-225q-31 0 -56 -28t-92 -130h-8l19 179h478v-13l-404 -681h244q32 0 59.5 29t93.5 134h9l-20 -184h-502z" />
    <glyph glyph-name="zcaron" unicode="&#x17e;" horiz-adv-x="469" 
d="M126 740l118 -82l121 81l6 -4l-122 -178h-7l-122 178zM41 0v11l274 449h-127q-22 0 -44 -22.5t-83 -103.5h-4l13 147h361v-11l-277 -449h148q23 0 45 23.5t79 108.5h5l-13 -153h-377z" />
    <glyph glyph-name="Aringacute" unicode="&#x1fa;" horiz-adv-x="752" 
d="M266 920l-4 8l172 135l58 -79zM354 738q-35 0 -61.5 25.5t-26.5 60.5q0 34 26.5 59t61.5 25q36 0 62 -25t26 -59q0 -36 -26 -61t-62 -25zM354 754q29 0 49.5 21t20.5 49t-20.5 48t-49.5 20t-49.5 -20t-20.5 -48t20.5 -49t49.5 -21zM12 0v18l87 3l222 588l-45 106h113
l269 -694l81 -3v-18h-282v18l89 3l-86 228h-253l-86 -228l88 -3v-18h-197zM216 270h236l-118 309h-1z" />
    <glyph glyph-name="aringacute" unicode="&#x1fb;" horiz-adv-x="508" 
d="M191 726l-6 4l119 189l80 -59zM252 542q-36 0 -63 25.5t-27 61.5q0 35 27 60t63 25q37 0 63.5 -25t26.5 -60q0 -36 -26.5 -61.5t-63.5 -25.5zM252 560q29 0 49.5 20.5t20.5 48.5t-20.5 47.5t-49.5 19.5t-49.5 -19.5t-20.5 -47.5t21 -48.5t49 -20.5zM164 -10
q-56 0 -95.5 31.5t-39.5 87.5q0 43 25.5 78t69.5 58t91.5 38t102.5 24v80q0 86 -62 86q-19 0 -43 -20t-100 -97h-4l-51 78q137 59 213 59q69 0 108 -36.5t39 -98.5l-1 -276q0 -13 13 -23.5t58 -31.5v-6l-168 -30v87h-1q-24 -39 -65 -63.5t-90 -24.5zM211 41q59 0 107 60v186
q-83 -20 -136.5 -63.5t-53.5 -98.5q0 -38 24 -61t59 -23z" />
    <glyph glyph-name="AEacute" unicode="&#x1fc;" horiz-adv-x="987" 
d="M587 744l-4 8l172 135l58 -79zM-29 0v18l86 3l396 673l-85 3v18h518l19 -179h-7q-68 102 -93 130t-56 28h-166v-312h165q18 0 35 19t51 68h9v-194h-9q-24 34 -34.5 48t-25 26t-26.5 12h-165v-340h192q33 0 59 28.5t94 134.5h8l-19 -184h-527v18l85 3v267h-236l-157 -267
l89 -3v-18h-200zM251 309h224v381h-1z" />
    <glyph glyph-name="aeacute" unicode="&#x1fd;" horiz-adv-x="768" 
d="M324 535l-6 4l119 189l80 -59zM167 -10q-58 0 -98 32t-40 87q0 57 46.5 100.5t109.5 65t133 26.5v92q0 41 -17 60t-43 19q-22 0 -48 -21.5t-95 -96.5h-6l-51 80q135 59 213 59q83 0 114 -67q51 67 146 67q86 0 140.5 -60t54.5 -144v-12h-321q1 -104 50 -157t118 -53
q100 0 150 86l11 -3q-12 -68 -67 -114t-130 -46q-60 0 -109.5 28.5t-78.5 76.5q-23 -43 -73 -74t-109 -31zM404 298h222q-2 69 -29.5 121.5t-72.5 52.5t-79.5 -49.5t-40.5 -124.5zM217 43q35 0 69 18.5t54 50.5q-23 48 -23 127q0 28 1 41q-83 -13 -136.5 -54.5t-53.5 -95.5
q0 -41 25.5 -64t63.5 -23z" />
    <glyph glyph-name="Oslashacute" unicode="&#x1fe;" horiz-adv-x="767" 
d="M522 808l-226 -64l-4 8l172 135zM590 658q62 -49 96.5 -126.5t34.5 -173.5q0 -163 -95 -266.5t-242 -103.5q-108 0 -191 58l-76 -117h-25l84 130q-62 49 -96 126t-34 173q0 163 95 266t243 103q107 0 189 -56l70 108h25zM162 356q0 -140 55 -235l320 495q-62 90 -154 90
q-93 0 -157 -97t-64 -253zM385 9q93 0 157 96.5t64 252.5q0 144 -56 238l-321 -494q62 -93 156 -93z" />
    <glyph glyph-name="oslashacute" unicode="&#x1ff;" horiz-adv-x="555" 
d="M413 677l-193 -134l-6 4l119 189zM419 452q49 -34 75.5 -89.5t26.5 -121.5q0 -106 -65.5 -178.5t-178.5 -72.5q-72 0 -126 31l-64 -102h-23l70 113q-48 33 -74 88.5t-26 120.5q0 107 65.5 179.5t177.5 72.5q72 0 126 -31l56 90h23zM142 241q0 -92 28 -151l204 326
q-36 56 -97 56q-56 0 -95.5 -59t-39.5 -172zM277 11q58 0 97 58t39 172q0 94 -28 155l-204 -326q38 -59 96 -59z" />
    <glyph glyph-name="uni0218" unicode="&#x218;" horiz-adv-x="541" 
d="M349 394q154 -69 154 -209q0 -95 -66 -146t-156 -51q-93 0 -220 54l-13 140h7q97 -112 137.5 -142.5t90.5 -30.5q59 0 97.5 37.5t38.5 98.5q0 97 -119 149l-109 50q-136 61 -136 190q0 90 61 141.5t152 51.5q86 0 175 -31l12 -124h-8q-74 79 -112 106.5t-69 27.5
q-49 0 -90 -31t-41 -92q0 -92 118 -145zM280 -32q23 0 40 -15.5t17 -40.5q0 -30 -23.5 -63t-75.5 -88l-10 7q41 55 57 98h-4q-26 0 -42.5 14.5t-16.5 36.5t17 36.5t41 14.5z" />
    <glyph glyph-name="uni0219" unicode="&#x219;" horiz-adv-x="430" 
d="M278 271q116 -49 116 -145q0 -61 -50.5 -98.5t-126.5 -37.5q-80 0 -162 35l-12 116h4q84 -87 112 -108.5t61 -21.5q40 0 66.5 23t26.5 59q0 60 -84 95l-70 30q-116 48 -116 143q0 64 50 98t116 34q59 0 145 -20l11 -105h-4q-79 67 -107 85.5t-50 18.5q-33 0 -57 -21
t-24 -56q0 -33 21 -54.5t62 -38.5zM223 -30q23 0 40 -15.5t17 -40.5q0 -30 -23.5 -63t-75.5 -88l-10 7q41 55 57 98h-4q-26 0 -42.5 14.5t-16.5 36.5t17 36.5t41 14.5z" />
    <glyph glyph-name="uni021A" unicode="&#x21a;" horiz-adv-x="671" 
d="M623 715l19 -179h-9q-67 102 -91.5 130t-54.5 28h-96v-673l85 -3v-18h-278v18l85 3v673h-97q-30 0 -54.5 -28t-91.5 -130h-7l19 179h571zM339 -27q23 0 40 -15.5t17 -40.5q0 -30 -23.5 -63t-75.5 -88l-10 7q41 55 57 98h-4q-26 0 -42.5 14.5t-16.5 36.5t17 36.5t41 14.5z
" />
    <glyph glyph-name="uni021B" unicode="&#x21b;" horiz-adv-x="334" 
d="M324 460h-143v-327q0 -50 21.5 -72.5t53.5 -22.5q27 0 59 16l5 -6q-44 -58 -121 -58q-50 0 -85 31.5t-35 96.5v342h-69v21h69v58l100 88h2v-146h143v-21zM185 -32q23 0 40 -15.5t17 -40.5q0 -30 -23.5 -63t-75.5 -88l-10 7q41 55 57 98h-4q-26 0 -42.5 14.5t-16.5 36.5
t17 36.5t41 14.5z" />
    <glyph glyph-name="uni0237" unicode="&#x237;" horiz-adv-x="297" 
d="M7 -218l-3 12q52 28 73.5 66.5t21.5 112.5v419l-72 55v6l173 45v-474q0 -104 -49.5 -161t-143.5 -81z" />
    <glyph glyph-name="circumflex" unicode="&#x2c6;" horiz-adv-x="357" 
d="M60 555l-5 5l121 178h7l122 -178l-5 -4l-121 81z" />
    <glyph glyph-name="caron" unicode="&#x2c7;" horiz-adv-x="357" 
d="M60 739l119 -82l121 81l5 -4l-122 -178h-7l-121 178z" />
    <glyph glyph-name="breve" unicode="&#x2d8;" horiz-adv-x="350" 
d="M178 562q-109 0 -123 153h9q11 -40 43.5 -62t70.5 -22q37 0 69 22t42 62h10q-16 -153 -121 -153z" />
    <glyph glyph-name="dotaccent" unicode="&#x2d9;" horiz-adv-x="231" 
d="M117 570q-25 0 -43.5 17.5t-18.5 42.5q0 24 18.5 42t43.5 18t44 -18t19 -42q0 -25 -18.5 -42.5t-44.5 -17.5z" />
    <glyph glyph-name="ring" unicode="&#x2da;" horiz-adv-x="287" 
d="M145 538q-36 0 -63 25.5t-27 61.5q0 35 27 60t63 25q37 0 63.5 -25t26.5 -60q0 -36 -26.5 -61.5t-63.5 -25.5zM145 556q30 0 50 20.5t20 48.5t-20 47.5t-50 19.5q-28 0 -48.5 -19.5t-20.5 -47.5t20.5 -48.5t48.5 -20.5z" />
    <glyph glyph-name="ogonek" unicode="&#x2db;" horiz-adv-x="312" 
d="M133 -226q-33 0 -55.5 19t-22.5 49q0 37 38 80.5t92 79.5h21q-29 -26 -51 -60.5t-22 -64.5q0 -24 13 -36t33 -12q35 0 74 37l7 -6q-19 -36 -54 -61t-73 -25z" />
    <glyph glyph-name="tilde" unicode="&#x2dc;" horiz-adv-x="374" 
d="M238 586q-24 0 -61 15q-44 16 -65 16q-24 0 -50 -29l-7 3q15 90 83 90q27 0 62 -16q39 -16 64 -16q28 0 50 29l8 -3q-14 -89 -84 -89z" />
    <glyph glyph-name="hungarumlaut" unicode="&#x2dd;" horiz-adv-x="448" 
d="M236 543l-6 4l81 206l87 -45zM60 543l-6 3l81 206l87 -44z" />
    <glyph glyph-name="Wgrave" unicode="&#x1e80;" horiz-adv-x="1069" 
d="M609 752l-5 -8l-227 64l59 79zM1070 715v-18l-87 -3l-254 -701h-15l-177 466l-181 -466h-15l-257 701l-81 3v18h281v-18l-88 -3l199 -545l131 338l-78 207l-81 3v18h282v-18l-89 -3l204 -547l197 547l-106 3v18h215z" />
    <glyph glyph-name="wgrave" unicode="&#x1e81;" horiz-adv-x="816" 
d="M466 547l-6 -4l-193 134l80 59zM812 481v-18l-70 -1l-190 -466h-15l-127 314l-138 -314h-14l-190 466l-65 1v18h247v-18l-76 -1l133 -337l92 212l-51 125l-66 1v18h247v-18l-76 -1l132 -333l134 333l-81 1v18h174z" />
    <glyph glyph-name="Wacute" unicode="&#x1e82;" horiz-adv-x="1069" 
d="M667 808l-226 -64l-4 8l172 135zM1070 715v-18l-87 -3l-254 -701h-15l-177 466l-181 -466h-15l-257 701l-81 3v18h281v-18l-88 -3l199 -545l131 338l-78 207l-81 3v18h282v-18l-89 -3l204 -547l197 547l-106 3v18h215z" />
    <glyph glyph-name="wacute" unicode="&#x1e83;" horiz-adv-x="816" 
d="M538 677l-193 -134l-6 4l119 189zM812 481v-18l-70 -1l-190 -466h-15l-127 314l-138 -314h-14l-190 466l-65 1v18h247v-18l-76 -1l133 -337l92 212l-51 125l-66 1v18h247v-18l-76 -1l132 -333l134 333l-81 1v18h174z" />
    <glyph glyph-name="Wdieresis" unicode="&#x1e84;" horiz-adv-x="1069" 
d="M434 761q-25 0 -42 17.5t-17 41.5t17 41.5t42 17.5q24 0 41 -17.5t17 -41.5t-17 -41.5t-41 -17.5zM624 761q-24 0 -41.5 17.5t-17.5 41.5t17.5 41.5t41.5 17.5t41.5 -17.5t17.5 -41.5t-17.5 -41.5t-41.5 -17.5zM1070 715v-18l-87 -3l-254 -701h-15l-177 466l-181 -466
h-15l-257 701l-81 3v18h281v-18l-88 -3l199 -545l131 338l-78 207l-81 3v18h282v-18l-89 -3l204 -547l197 547l-106 3v18h215z" />
    <glyph glyph-name="wdieresis" unicode="&#x1e85;" horiz-adv-x="816" 
d="M313 574q-23 0 -39 16t-16 39t16.5 39.5t38.5 16.5q23 0 39.5 -16.5t16.5 -39.5q0 -22 -16.5 -38.5t-39.5 -16.5zM497 574q-23 0 -39 16t-16 39t16.5 39.5t38.5 16.5q23 0 39.5 -16.5t16.5 -39.5q0 -22 -16.5 -38.5t-39.5 -16.5zM812 481v-18l-70 -1l-190 -466h-15
l-127 314l-138 -314h-14l-190 466l-65 1v18h247v-18l-76 -1l133 -337l92 212l-51 125l-66 1v18h247v-18l-76 -1l132 -333l134 333l-81 1v18h174z" />
    <glyph glyph-name="uni1E8A" unicode="&#x1e8a;" horiz-adv-x="755" 
d="M379 761q-24 0 -41.5 17t-17.5 42t17.5 42.5t41.5 17.5q25 0 42.5 -17.5t17.5 -42.5t-17.5 -42t-42.5 -17zM28 0v18l86 3l218 319l-222 354l-81 3v18h289v-18l-89 -3l176 -285l200 285l-100 3v18h212v-18l-86 -3l-214 -302l232 -371l81 -3v-18h-289v18l90 3l-186 301
l-206 -301l100 -3v-18h-211z" />
    <glyph glyph-name="uni1E8B" unicode="&#x1e8b;" horiz-adv-x="560" 
d="M278 570q-25 0 -43.5 17.5t-18.5 42.5q0 24 18.5 42t43.5 18t43.5 -18t18.5 -42q0 -25 -18.5 -42.5t-43.5 -17.5zM7 0v18l76 1l151 203l-159 240l-68 1v18h258v-18l-74 -1l115 -178l130 178l-83 1v18h184v-18l-75 -1l-145 -194l165 -249l68 -1v-18h-259v18l74 1l-120 186
l-136 -186l82 -1v-18h-184z" />
    <glyph glyph-name="Ygrave" unicode="&#x1ef2;" horiz-adv-x="686" 
d="M451 744l-227 64l59 79l173 -135zM207 0v18l85 3v296l-230 377l-79 3v18h289v-18l-91 -3l209 -342l206 342l-92 3v18h204v-18l-88 -3l-221 -366v-307l85 -3v-18h-277z" />
    <glyph glyph-name="ygrave" unicode="&#x1ef3;" horiz-adv-x="546" 
d="M338 543l-193 134l80 59l119 -189zM147 -206q-36 0 -66 15l-6 122h4q53 -51 74 -66t36 -15q26 0 37 26l34 89l-191 497l-66 1v18h246v-18l-75 -1l136 -368l139 368l-81 1v18h174v-18l-70 -1l-230 -603q-13 -33 -40 -49t-55 -16z" />
    <glyph glyph-name="endash" unicode="&#x2013;" horiz-adv-x="515" 
d="M45 248v24h428v-24h-428z" />
    <glyph glyph-name="emdash" unicode="&#x2014;" horiz-adv-x="943" 
d="M45 248v23h856v-23h-856z" />
    <glyph glyph-name="quoteleft" unicode="&#x2018;" horiz-adv-x="220" 
d="M156 745l11 -7q-44 -64 -63 -120h7q25 0 42 -16t17 -40q0 -23 -18 -39.5t-43 -16.5q-24 0 -40 16.5t-16 46.5q0 22 13 49t27 46t48 62q10 12 15 19z" />
    <glyph glyph-name="quoteright" unicode="&#x2019;" horiz-adv-x="208" 
d="M61 488l-11 7q46 67 62 121h-6q-26 0 -42.5 15.5t-16.5 40.5q0 23 17.5 39t43.5 16q24 0 40 -16.5t16 -45.5q0 -23 -13 -50t-27 -46t-48 -62q-10 -13 -15 -19z" />
    <glyph glyph-name="quotesinglbase" unicode="&#x201a;" horiz-adv-x="256" 
d="M81 -138l-12 8q48 67 67 127h-7q-28 0 -46 17t-18 44q0 26 19.5 43.5t47.5 17.5q27 0 44.5 -18t17.5 -50q0 -26 -18 -59.5t-34 -54t-61 -75.5z" />
    <glyph glyph-name="quotedblleft" unicode="&#x201c;" horiz-adv-x="363" 
d="M156 745l11 -7q-45 -65 -62 -120h6q25 0 42 -16t17 -40q0 -23 -18 -39.5t-43 -16.5q-24 0 -40 16.5t-16 46.5q0 22 13 49t27 46t48 62q10 12 15 19zM299 745l11 -7q-44 -65 -62 -120h7q25 0 42 -16t17 -40q0 -23 -18 -39.5t-44 -16.5q-23 0 -39.5 16.5t-16.5 46.5
q0 22 13 49t27 46t48 62q10 12 15 19z" />
    <glyph glyph-name="quotedblright" unicode="&#x201d;" horiz-adv-x="351" 
d="M61 488l-11 7q46 67 62 121h-6q-26 0 -42.5 15.5t-16.5 40.5q0 23 17.5 39t43.5 16q24 0 40 -16.5t16 -45.5q0 -23 -13 -50t-27 -46t-48 -62q-10 -13 -15 -19zM205 488l-11 7q45 68 62 121h-7q-25 0 -42 16t-17 40q0 23 18 39t44 16q24 0 40 -16.5t16 -45.5
q0 -23 -13 -50t-27 -46t-48 -62q-10 -13 -15 -19z" />
    <glyph glyph-name="quotedblbase" unicode="&#x201e;" horiz-adv-x="410" 
d="M81 -138l-12 8q48 67 67 127h-7q-28 0 -46 17t-18 44q0 26 19.5 43.5t47.5 17.5q27 0 44.5 -18t17.5 -50q0 -26 -18 -59.5t-34 -54t-61 -75.5zM236 -138l-12 8q47 67 67 127h-8q-27 0 -45.5 17t-18.5 44q0 26 19.5 43.5t48.5 17.5q27 0 44.5 -18t17.5 -50
q0 -26 -18 -59.5t-34 -54t-61 -75.5z" />
    <glyph glyph-name="dagger" unicode="&#x2020;" horiz-adv-x="468" 
d="M232 0l-43 454l38 117l-140 -42h-4v92h4l140 -42l-38 132v4h93v-4l-39 -132l141 42h4v-92h-4l-141 42l39 -117l-44 -454h-6z" />
    <glyph glyph-name="daggerdbl" unicode="&#x2021;" horiz-adv-x="468" 
d="M388 529h-4l-141 42l39 -87l-43 -126l43 -126l-39 -88l141 43h4v-93h-4l-141 43l39 -133v-4h-93v4l38 133l-140 -43h-4v93h4l140 -43l-38 88l42 126l-42 126l38 87l-140 -42h-4v92h4l140 -42l-38 132v4h93v-4l-39 -132l141 42h4v-92z" />
    <glyph glyph-name="bullet" unicode="&#x2022;" horiz-adv-x="379" 
d="M191 170q-49 0 -85.5 36t-36.5 86q0 49 36.5 85.5t85.5 36.5t85.5 -36.5t36.5 -85.5q0 -50 -36.5 -86t-85.5 -36z" />
    <glyph glyph-name="ellipsis" unicode="&#x2026;" horiz-adv-x="685" 
d="M130 -5q-26 0 -45.5 18.5t-19.5 43.5t19.5 44t45.5 19q25 0 44.5 -19t19.5 -44t-19.5 -43.5t-44.5 -18.5zM344 -5q-26 0 -45 18.5t-19 43.5t19 44t45 19t45.5 -19t19.5 -44t-19.5 -43.5t-45.5 -18.5zM559 -5q-26 0 -45.5 18.5t-19.5 43.5t19.5 44t45.5 19q25 0 44.5 -19
t19.5 -44t-19 -43.5t-45 -18.5z" />
    <glyph glyph-name="perthousand" unicode="&#x2030;" horiz-adv-x="1156" 
d="M152 -14l-18 11l487 733l17 -11zM208 369q-77 0 -122 50.5t-45 127.5q0 78 45 128t122 50t121.5 -50.5t44.5 -127.5t-45 -127.5t-121 -50.5zM208 387q34 0 56.5 39.5t22.5 120.5q0 84 -22 122.5t-57 38.5q-34 0 -57 -40t-23 -121q0 -80 23 -120t57 -40zM563 -10
q-76 0 -121.5 50.5t-45.5 127.5t45.5 127.5t121.5 50.5q77 0 122 -50.5t45 -127.5q0 -78 -45 -128t-122 -50zM953 -10q-77 0 -122 50.5t-45 127.5q0 78 45 128t122 50t121.5 -50.5t44.5 -127.5t-45 -127.5t-121 -50.5zM563 8q35 0 57 39.5t22 120.5q0 84 -22 122.5t-57 38.5
q-34 0 -56.5 -40.5t-22.5 -120.5t22.5 -120t56.5 -40zM953 8q34 0 56.5 39.5t22.5 120.5q0 84 -22 122.5t-57 38.5q-34 0 -57 -40t-23 -121q0 -80 23 -120t57 -40z" />
    <glyph glyph-name="guilsinglleft" unicode="&#x2039;" horiz-adv-x="336" 
d="M263 44l-228 218v9l228 219h13l-139 -223l139 -223h-13z" />
    <glyph glyph-name="guilsinglright" unicode="&#x203a;" horiz-adv-x="336" 
d="M48 44h-13l139 223l-139 223h13l228 -219v-9z" />
    <glyph glyph-name="fraction" unicode="&#x2044;" horiz-adv-x="223" 
d="M-126 0l493 715h25l-493 -715h-25z" />
    <glyph glyph-name="Euro" unicode="&#x20ac;" horiz-adv-x="725" 
d="M454 -12q-130 0 -222 78.5t-112 222.5h-97v21h94q-2 32 -2 49q0 16 2 42h-94v21h96q20 139 112.5 222t221.5 83q93 0 214 -37l12 -133h-6q-101 97 -137.5 123t-81.5 26q-83 0 -145 -73t-75 -211h321v-21h-323q-1 -13 -1 -42q0 -17 2 -49h291v-21h-289
q14 -133 76.5 -206.5t144.5 -73.5q39 0 75 25t141 123h7l-12 -131q-122 -38 -213 -38z" />
    <glyph glyph-name="trademark" unicode="&#x2122;" horiz-adv-x="898" 
d="M142 357v7l37 6q5 2 5 6v327h-47q-15 0 -27 -13.5t-46 -65.5h-5l10 91h285l10 -91h-4q-33 51 -45.5 65t-27.5 14h-48v-327q0 -4 6 -6l36 -6v-7h-139zM404 357v7l48 1v315l-47 29v6h99l123 -278l112 278h104v-8l-43 -1v-341l43 -1v-7h-140v7l42 1v332l-137 -340h-5
l-139 313v-305l48 -1v-7h-108z" />
    <glyph glyph-name="oneeighth" unicode="&#x215b;" horiz-adv-x="739" 
d="M27 400v12l49 1v241l-48 19v4l107 43v-307l49 -1v-12h-157zM104 0l493 715h25l-493 -715h-25zM591 -6q-50 0 -84.5 23t-34.5 60q0 54 79 79q-66 36 -66 84q0 38 31 59t75 21q41 0 72 -19t31 -49q0 -44 -70 -73l12 -7q73 -40 73 -90q0 -37 -33 -62.5t-85 -25.5zM612 186
q38 22 38 63q0 26 -17 41.5t-42 15.5q-23 0 -38 -13.5t-15 -31.5q0 -23 18.5 -39t55.5 -36zM591 9q29 0 47 15t18 35q0 17 -12 32.5t-23 23t-33 20.5l-25 14q-18 -8 -30.5 -26t-12.5 -44q0 -31 19.5 -50.5t51.5 -19.5z" />
    <glyph glyph-name="threeeighths" unicode="&#x215c;" horiz-adv-x="780" 
d="M130 394q-44 0 -99 19l11 71h3q38 -49 52.5 -62t32.5 -13q25 0 43 20t18 55q1 41 -19.5 63.5t-50.5 22.5q-15 0 -33 -8l-10 13l98 85h-134l20 55h181v-13l-142 -122v-2q20 11 51 11q39 0 70 -26t30 -70q0 -45 -37.5 -72t-84.5 -27zM146 0l493 715h25l-493 -715h-25z
M632 -6q-50 0 -84.5 23t-34.5 60q0 54 79 79q-66 36 -66 84q0 38 31 59t75 21q41 0 72 -19t31 -49q0 -44 -70 -73l12 -7q73 -40 73 -90q0 -37 -33 -62.5t-85 -25.5zM653 186q38 22 38 63q0 26 -17 41.5t-42 15.5q-23 0 -38 -13.5t-15 -31.5q0 -23 18.5 -39t55.5 -36zM632 9
q29 0 47 15t18 35q0 17 -12 32.5t-23 23t-33 20.5l-25 14q-18 -8 -30.5 -26t-12.5 -44q0 -31 19.5 -50.5t51.5 -19.5z" />
    <glyph glyph-name="fiveeighths" unicode="&#x215d;" horiz-adv-x="783" 
d="M131 394q-47 0 -102 21l15 70h4q36 -49 51 -63t33 -14q23 0 43 20.5t20 55.5q0 47 -22.5 67.5t-54.5 20.5q-34 0 -66 -22l-11 3l28 162h178l-19 -55h-154l-16 -93q43 32 88 32q43 0 76 -26.5t33 -74.5q0 -49 -37 -76.5t-87 -27.5zM148 0l493 715h25l-493 -715h-25z
M635 -6q-50 0 -84.5 23t-34.5 60q0 54 79 79q-66 36 -66 84q0 38 31 59t75 21q41 0 72 -19t31 -49q0 -44 -70 -73l12 -7q73 -40 73 -90q0 -37 -33 -62.5t-85 -25.5zM656 186q38 22 38 63q0 26 -17 41.5t-42 15.5q-23 0 -38 -13.5t-15 -31.5q0 -23 18.5 -39t55.5 -36zM635 9
q29 0 47 15t18 35q0 17 -12 32.5t-23 23t-33 20.5l-25 14q-18 -8 -30.5 -26t-12.5 -44q0 -31 19.5 -50.5t51.5 -19.5z" />
    <glyph glyph-name="seveneighths" unicode="&#x215e;" horiz-adv-x="716" 
d="M59 398l147 257h-182l21 60h206v-6l-170 -311h-22zM81 0l493 715h25l-493 -715h-25zM568 -6q-50 0 -84.5 23t-34.5 60q0 54 79 79q-66 36 -66 84q0 38 31 59t75 21q41 0 72 -19t31 -49q0 -44 -70 -73l12 -7q73 -40 73 -90q0 -37 -33 -62.5t-85 -25.5zM589 186
q38 22 38 63q0 26 -17 41.5t-42 15.5q-23 0 -38 -13.5t-15 -31.5q0 -23 18.5 -39t55.5 -36zM568 9q29 0 47 15t18 35q0 17 -12 32.5t-23 23t-33 20.5l-25 14q-18 -8 -30.5 -26t-12.5 -44q0 -31 19.5 -50.5t51.5 -19.5z" />
    <glyph glyph-name="arrowleft" unicode="&#x2190;" horiz-adv-x="554" 
d="M508 294v-20h-384l149 -199h-16l-208 208v2l208 209h16l-150 -200h385z" />
    <glyph glyph-name="arrowup" unicode="&#x2191;" horiz-adv-x="513" 
d="M468 261v-16l-199 149v-384h-21v384l-199 -149v16l208 208h2z" />
    <glyph glyph-name="arrowright" unicode="&#x2192;" horiz-adv-x="554" 
d="M300 494l208 -209v-2l-208 -208h-16l149 199h-384v20h385l-150 200h16z" />
    <glyph glyph-name="arrowdown" unicode="&#x2193;" horiz-adv-x="513" 
d="M268 94l200 150v-16l-209 -208h-2l-208 208v16l199 -149v384h20v-385z" />
    <glyph glyph-name="uni2196" unicode="&#x2196;" horiz-adv-x="434" 
d="M386 88l-14 -15l-273 273l-35 -248l-11 12v294l2 2h294l12 -11l-247 -35z" />
    <glyph glyph-name="uni2197" unicode="&#x2197;" horiz-adv-x="435" 
d="M385 404v-294l-12 -12l-35 246l-272 -272l-14 15l272 272l-247 35l12 12h294z" />
    <glyph glyph-name="uni2198" unicode="&#x2198;" horiz-adv-x="434" 
d="M373 391l11 -12v-295l-1 -1h-295l-11 11l246 35l-272 272l15 15l272 -272z" />
    <glyph glyph-name="uni2199" unicode="&#x2199;" horiz-adv-x="434" 
d="M386 401l-272 -272l247 -35l-12 -11h-294l-2 2v294l11 12l35 -248l273 273z" />
    <glyph glyph-name="minus" unicode="&#x2212;" horiz-adv-x="460" 
d="M59 331v21h345v-21h-345z" />
    <glyph glyph-name="uniF8FF" unicode="&#xf8ff;" horiz-adv-x="1087" 
d="M169 342v10l44 1v351h-50q-16 0 -29 -15t-47 -68h-4l10 94h297l10 -94h-4q-45 68 -58 77q-9 6 -18 6h-51v-351l45 -1v-10h-145zM402 342v10l44 1v351l-44 1v10h155q83 0 134 -51.5t51 -134.5q0 -84 -51 -135.5t-135 -51.5h-154zM737 342v10l44 1v351l-44 1v10h260l10 -94
h-5q-35 54 -48 68.5t-29 14.5h-88v-163h89q10 0 19 10t27 35h4v-101h-4q-18 25 -27 35t-19 10h-89v-177l58 -1v-10h-158zM502 353h51q64 0 96 47t32 128t-32 128.5t-95 47.5h-52v-351z" />
    <glyph glyph-name="uni00A40301" horiz-adv-x="516" 
d="M268 744l-4 8l172 135l58 -79zM222 -10q-84 0 -158 46l15 145h7q55 -108 79.5 -139t56.5 -31q79 0 79 128v555l-85 3v18h278v-18l-85 -3v-534q0 -87 -56.5 -128.5t-130.5 -41.5z" />
    <glyph glyph-name="i.loclTRK" horiz-adv-x="287" 
d="M132 570q-26 0 -44 17.5t-18 42.5q0 24 18.5 42t43.5 18t43.5 -18t18.5 -42q0 -25 -18.5 -42.5t-43.5 -17.5zM24 0v18l71 1v375l-72 54v5l173 45v-479l71 -1v-18h-243z" />
    <glyph glyph-name="uni006A0301" horiz-adv-x="297" 
d="M76 543l-6 4l119 189l80 -59zM7 -218l-3 12q52 28 73.5 66.5t21.5 112.5v419l-72 55v6l173 45v-474q0 -104 -49.5 -161t-143.5 -81z" />
    <glyph glyph-name="f.calt" horiz-adv-x="354" 
d="M19 0v18l70 1v440h-70v22h70v37q0 104 50 162.5t134 58.5q56 0 128 -19l-43 -91h-7q-82 87 -102 87q-9 0 -18 -5.5t-18.5 -18.5t-15.5 -40.5t-6 -65.5v-105h137v-2l-8 -20h-129v-440l87 -1v-18h-259z" />
    <glyph glyph-name="germandbls.calt" horiz-adv-x="734" 
d="M481 -12q-81 0 -169 39l-17 130h6q87 -97 117.5 -122.5t65.5 -25.5q57 0 95 36.5t38 94.5q0 33 -13.5 61t-38.5 49t-47 34.5t-51 27.5l-101 50l-10 11l175 321h-303v-694h-193v18l85 3v673l-85 3v18h597v-16l-202 -249l102 -49q165 -77 165 -218q0 -89 -65 -142t-151 -53
z" />
    <glyph glyph-name="f_f.calt" horiz-adv-x="686" 
d="M23 0v18l71 1v441h-71v21h71v31q0 65 16.5 111.5t43.5 69.5t53.5 33t53.5 10q80 0 145 -15l-50 -80h-7q-38 46 -55.5 60t-31.5 14q-67 0 -67 -135v-99h226v37q0 104 50 162.5t133 58.5q58 0 128 -19l-42 -91h-6q-83 87 -103 87q-9 0 -18 -5.5t-18.5 -18.5t-15.5 -40.5
t-6 -65.5v-105h137v-3l-8 -18h-129v-441l75 -1v-18h-248v18l71 1v441h-226v-441l83 -1v-18h-255z" />
    <glyph glyph-name="zero.numrsuperior" horiz-adv-x="319" 
d="M159 475q-53 0 -91.5 43t-38.5 119q0 74 39 118.5t91 44.5q53 0 92 -44.5t39 -118.5q0 -76 -38 -119t-93 -43zM160 490q28 0 47 37t19 110t-19 110.5t-48 37.5t-48 -37.5t-19 -110.5t19 -110t49 -37z" />
    <glyph glyph-name="one.numrsuperior" horiz-adv-x="204" 
d="M27 480v13l49 1v240l-48 19v4l107 43v-306l49 -1v-13h-157z" />
    <glyph glyph-name="two.numrsuperior" horiz-adv-x="270" 
d="M24 480v13l42 43q41 42 59 62.5t36.5 57t18.5 71.5q0 59 -40 59q-15 0 -32.5 -15t-63.5 -66h-3l6 73q53 22 94 22q42 0 69.5 -18.5t27.5 -56.5q0 -37 -34.5 -77.5t-121.5 -111.5v-1h165l-19 -55h-204z" />
    <glyph glyph-name="three.numrsuperior" horiz-adv-x="282" 
d="M130 474q-44 0 -99 19l11 71h3q38 -49 52.5 -62t32.5 -13q25 0 43 20t18 55q1 41 -19.5 63.5t-50.5 22.5q-15 0 -33 -8l-10 13l98 85h-134l20 55h181v-13l-142 -122v-2q20 11 51 11q39 0 70 -26t30 -70q0 -45 -37.5 -72t-84.5 -27z" />
    <glyph glyph-name="four.numrsuperior" horiz-adv-x="295" 
d="M170 480v89h-147v8l113 218h83v-3l-181 -210h132v83l59 17v-100h46v-13h-46v-89h-59z" />
    <glyph glyph-name="five.numrsuperior" horiz-adv-x="284" 
d="M131 474q-47 0 -102 21l15 70h4q36 -49 51 -63t33 -14q23 0 43 20.5t20 56.5q0 46 -22.5 66.5t-54.5 20.5q-34 0 -66 -22l-11 3l28 162h178l-19 -55h-154l-16 -93q43 32 88 32q43 0 76 -26.5t33 -74.5q0 -49 -37 -76.5t-87 -27.5z" />
    <glyph glyph-name="six.numrsuperior" horiz-adv-x="329" 
d="M249 800l2 -9q-113 -49 -138 -145q31 27 73 27t73.5 -25.5t31.5 -69.5q0 -45 -36 -74t-88 -29q-53 0 -87 31t-34 89q0 80 58.5 134.5t144.5 70.5zM164 648q-35 0 -55 -21q-3 -39 -3 -41q0 -41 16 -69t46 -28q27 0 44.5 23t17.5 59q0 34 -17 55.5t-49 21.5z" />
    <glyph glyph-name="seven.numrsuperior" horiz-adv-x="267" 
d="M59 478l147 257h-182l21 60h206v-6l-170 -311h-22z" />
    <glyph glyph-name="eight.numrsuperior" horiz-adv-x="296" 
d="M148 474q-50 0 -84.5 23t-34.5 60q0 54 79 79q-66 36 -66 84q0 38 31 59t75 21q41 0 72 -19t31 -49q0 -44 -70 -73l12 -7q73 -36 73 -90q0 -37 -33 -62.5t-85 -25.5zM169 666q38 22 38 63q0 26 -17 41.5t-42 15.5q-23 0 -38 -13.5t-15 -31.5q0 -23 18.5 -39t55.5 -36z
M148 489q29 0 47 15t18 35q0 17 -12 32.5t-23.5 23.5t-32.5 20l-25 14q-18 -8 -30.5 -26t-12.5 -44q0 -31 19.5 -50.5t51.5 -19.5z" />
    <glyph glyph-name="nine.numrsuperior" horiz-adv-x="299" 
d="M67 475l-2 9q112 49 137 145q-29 -27 -73 -27q-41 0 -72.5 25.5t-31.5 69.5q0 45 35.5 74t88.5 29t87 -31t34 -89q0 -80 -58.5 -134.5t-144.5 -70.5zM151 627q36 0 55 21q4 26 4 41q0 41 -16 69t-46 28q-27 0 -44.5 -23t-17.5 -59q0 -34 17 -55.5t48 -21.5z" />
    <glyph glyph-name="zero.numrsuperior.zero" horiz-adv-x="319" 
d="M159 474q-53 0 -91.5 43.5t-38.5 118.5q0 74 38.5 118.5t91.5 44.5t92 -44.5t39 -118.5q0 -75 -38 -118.5t-93 -43.5zM106 539l103 202q-20 44 -50 44q-29 0 -48 -38t-19 -111q0 -55 14 -97zM160 489q28 0 47 37t19 110q0 53 -11 89l-103 -201q19 -35 48 -35z" />
    <glyph glyph-name="zero.osf" horiz-adv-x="588" 
d="M295 -12q-112 0 -186.5 72t-74.5 178t75 180.5t186 74.5t185 -75t74 -180t-73.5 -177.5t-185.5 -72.5zM294 9q62 0 105.5 56.5t43.5 171.5q0 114 -44 174.5t-104 60.5t-105 -60t-45 -175t44.5 -171.5t104.5 -56.5z" />
    <glyph glyph-name="one.osf" horiz-adv-x="376" 
d="M32 0v18l105 1v359l-102 28v8l197 84v-479l105 -1v-18h-305z" />
    <glyph glyph-name="two.osf" horiz-adv-x="451" 
d="M33 0v19l85 72q46 39 69.5 61t53 55.5t42 65.5t12.5 66q0 49 -26 74t-66 25q-75 0 -135 -73l-9 2q26 60 78.5 95t110.5 35q59 0 99 -35t40 -90q0 -28 -13.5 -57t-30.5 -51.5t-54.5 -56.5t-63.5 -55t-80 -63v-2h280l-30 -87h-362z" />
    <glyph glyph-name="three.osf" horiz-adv-x="466" 
d="M212 -227q-86 0 -184 41l18 121h6q73 -93 99.5 -117.5t61.5 -24.5q50 0 86 49t37 135q1 89 -40 141t-99 52q-36 0 -65 -16l-17 23l203 210h-266l32 95h340v-18l-267 -272l3 -2q41 17 89 17q74 0 132 -59.5t57 -151.5q-2 -104 -72.5 -163.5t-153.5 -59.5z" />
    <glyph glyph-name="four.osf" horiz-adv-x="534" 
d="M325 -214v214h-293v18l228 463h137v-5l-341 -455h269v190l95 30v-220h83v-21h-83v-201z" />
    <glyph glyph-name="five.osf" horiz-adv-x="481" 
d="M221 -227q-90 0 -190 50l25 120h7q68 -98 95.5 -124t63.5 -26q47 0 87.5 48t40.5 138q0 103 -43.5 150t-103.5 47q-70 0 -131 -53l-18 6l52 353h331l-33 -95h-294l-32 -231q74 69 168 69q80 0 142 -59.5t62 -165.5q0 -100 -69 -163.5t-160 -63.5z" />
    <glyph glyph-name="six.osf" horiz-adv-x="521" 
d="M290 422q78 0 137.5 -58t59.5 -148q0 -95 -66 -161.5t-164 -66.5q-95 0 -159 64t-64 201q0 169 104.5 287t268.5 167l4 -15q-222 -110 -268 -340q26 32 65.5 51t81.5 19zM261 8q54 0 89 53t35 138q0 83 -33 135t-95 52q-72 0 -118 -61q-6 -41 -6 -84q0 -100 33.5 -166.5
t94.5 -66.5z" />
    <glyph glyph-name="seven.osf" horiz-adv-x="471" 
d="M106 -220l281 598h-354l36 103h386v-13l-318 -688h-31z" />
    <glyph glyph-name="eight.osf" horiz-adv-x="505" 
d="M334 373q26 -17 44 -31.5t42.5 -39.5t38 -56.5t13.5 -67.5q0 -79 -61.5 -134.5t-157.5 -55.5q-93 0 -156 50.5t-63 133.5q0 69 43 114.5t110 68.5l-13 8q-21 14 -36 26.5t-36 34.5t-32 52t-11 64q0 79 57.5 125t136.5 46q76 0 133.5 -42.5t57.5 -110.5q0 -57 -43.5 -102
t-92.5 -66zM144 574q0 -27 10 -51t31 -44t36.5 -31.5t42.5 -28.5l26 -17q80 58 80 153q0 64 -34 100t-83 36q-48 0 -78.5 -33.5t-30.5 -83.5zM254 8q59 0 95.5 38t36.5 92q0 29 -10.5 54.5t-33.5 48.5t-41 37t-50 35l-46 30q-37 -19 -63.5 -62.5t-26.5 -105.5
q0 -72 39 -119.5t100 -47.5z" />
    <glyph glyph-name="nine.osf" horiz-adv-x="521" 
d="M263 493q96 0 160 -64t64 -201q0 -169 -104.5 -287t-268.5 -168l-4 16q221 109 267 340q-57 -70 -146 -70q-79 0 -138 58t-59 148q0 95 66 161.5t163 66.5zM264 95q71 0 117 60q6 40 6 85q0 101 -33 167t-94 66q-54 0 -89 -53t-35 -138q0 -83 33 -135t95 -52z" />
    <glyph glyph-name="zero.osf.zero" horiz-adv-x="588" 
d="M295 493q111 0 185 -75t74 -180t-73.5 -177.5t-185.5 -72.5t-186.5 72t-74.5 178t75 180.5t186 74.5zM295 472q-60 0 -105 -60t-45 -175q0 -91 32 -152l221 327q-41 60 -103 60zM294 9q62 0 105.5 56.5t43.5 171.5q0 91 -32 155l-222 -326q41 -57 105 -57z" />
    <glyph glyph-name="zero.tf" 
d="M264 -12q-96 0 -164 99.5t-68 263.5q0 163 68.5 264t163.5 101t163.5 -102t68.5 -263q0 -166 -67 -264.5t-165 -98.5zM267 9q54 0 91 89t37 253q0 166 -38 255t-95 89q-56 0 -92.5 -89t-36.5 -255q0 -167 37.5 -254.5t96.5 -87.5z" />
    <glyph glyph-name="one.tf" 
d="M110 0v18l107 1v571l-102 32v7l202 87v-697l107 -1v-18h-314z" />
    <glyph glyph-name="two.tf" 
d="M46 0v25l74 81q46 50 57 62t49.5 56.5t50 62.5t36.5 58t33.5 67.5t17 66t8.5 76.5q0 140 -91 140q-36 0 -71 -30t-121 -133h-6l10 131q110 53 190 53q81 0 134.5 -41.5t53.5 -120.5q0 -78 -71 -176t-260 -279v-2h347l-35 -97h-406z" />
    <glyph glyph-name="three.tf" 
d="M246 -12q-94 0 -196 41l19 124h6q77 -94 105 -119t67 -25q54 0 94 49.5t41 135.5q1 85 -42 140t-110 55q-35 0 -69 -17l-18 24l218 211h-285l34 97h363v-18l-285 -274l2 -2q43 16 93 16q80 0 142.5 -60.5t61.5 -151.5q-1 -71 -40 -124.5t-92.5 -77.5t-108.5 -24z" />
    <glyph glyph-name="four.tf" 
d="M313 0v200h-295v14l232 490h141v-5l-349 -478h271v198l100 30v-228h91v-21h-91v-200h-100z" />
    <glyph glyph-name="five.tf" 
d="M245 -12q-98 0 -203 50l27 123h7q72 -99 101.5 -125.5t68.5 -26.5q51 0 95.5 48t44.5 138q0 103 -47 152t-112 49q-74 0 -141 -54l-18 6l56 356h351l-34 -97h-313l-35 -233q79 71 178 71q84 0 151 -61t67 -167q0 -101 -73 -165t-171 -64z" />
    <glyph glyph-name="six.tf" 
d="M418 728l3 -16q-230 -116 -274 -346q58 74 150 74q81 0 142 -59t61 -151q0 -96 -68 -163t-167 -67q-98 0 -164 65.5t-66 203.5q0 170 107.5 290.5t275.5 168.5zM264 403q-30 0 -63.5 -15.5t-57.5 -48.5q-7 -35 -7 -83q0 -101 34.5 -168t97.5 -67q56 0 92.5 53t36.5 139
q0 84 -34.5 137t-98.5 53z" />
    <glyph glyph-name="seven.tf" 
d="M129 -4l305 601h-382l38 107h415v-14l-343 -694h-33z" />
    <glyph glyph-name="eight.tf" 
d="M263 -12q-96 0 -163.5 51t-67.5 134q0 68 45.5 114t117.5 70l-15 10q-23 15 -38.5 27t-37.5 34t-33.5 51.5t-11.5 63.5q0 80 61.5 126.5t143.5 46.5q79 0 140.5 -42.5t61.5 -111.5q0 -59 -47.5 -104t-98.5 -64l29 -18q147 -89 147 -196q0 -79 -65.5 -135.5t-167.5 -56.5z
M301 406q88 55 88 152q0 64 -36.5 100.5t-88.5 36.5q-51 0 -84 -34t-33 -82q0 -28 10.5 -51.5t33 -44t38.5 -31.5t45 -29zM265 9q64 0 103 37.5t39 90.5q0 31 -12 58t-37.5 50.5t-44 37t-50.5 33.5l-48 30q-39 -19 -68.5 -63t-29.5 -107q0 -71 41.5 -119t106.5 -48z" />
    <glyph glyph-name="nine.tf" 
d="M109 -12l-3 16q229 115 275 346q-27 -34 -67 -54t-83 -20q-82 0 -143 59t-61 151q0 96 68 163t168 67q97 0 163 -65.5t66 -202.5q0 -171 -107.5 -291.5t-275.5 -168.5zM263 313q74 0 122 64q7 45 7 83q0 101 -34.5 168t-97.5 67q-56 0 -92.5 -53.5t-36.5 -138.5
t34 -137.5t98 -52.5z" />
    <glyph glyph-name="zero.tf.zero" 
d="M264 716q95 0 163.5 -102t68.5 -263q0 -166 -67 -264.5t-165 -98.5q-96 0 -164 99.5t-68 263.5q0 163 68.5 264t163.5 101zM262 695q-56 0 -92.5 -89t-36.5 -255q0 -127 24 -213l207 448q-37 109 -102 109zM267 9q54 0 91 89t37 253q0 127 -23 208l-207 -448
q37 -102 102 -102z" />
    <glyph glyph-name="zero.tosf" 
d="M265 -12q-102 0 -171 72.5t-69 177.5t69 180.5t171 75.5q101 0 169 -75t68 -181q0 -105 -67.5 -177.5t-169.5 -72.5zM264 9q55 0 94.5 56.5t39.5 171.5q0 114 -40 175t-93 61q-54 0 -95 -60.5t-41 -175.5q0 -114 40 -171t95 -57z" />
    <glyph glyph-name="one.tosf" 
d="M110 0v18l105 1v360l-102 28v8l197 84v-480l105 -1v-18h-305z" />
    <glyph glyph-name="two.tosf" 
d="M63 0v19l87 72q102 84 134 120q56 64 56 129q0 49 -28 74t-70 25q-36 0 -74 -19.5t-68 -53.5l-10 2q28 59 83.5 94.5t115.5 35.5q61 0 102 -35t41 -90q0 -35 -17 -68t-58.5 -72t-76 -66t-103.5 -78v-2h296l-31 -87h-379z" />
    <glyph glyph-name="three.tosf" 
d="M242 -227q-91 0 -187 41l18 121h6q73 -93 100 -117.5t64 -24.5q52 0 89 49t38 135q1 89 -41 141t-102 52q-37 0 -66 -16l-17 23l208 211h-272l32 95h347v-18l-273 -273l3 -2q39 17 90 17q76 0 135 -59.5t58 -151.5q-1 -70 -38 -123t-88 -76.5t-104 -23.5z" />
    <glyph glyph-name="four.tosf" 
d="M321 -214v214h-292v18l227 464h137v-5l-340 -456h268v190l95 30v-220h83v-21h-83v-201z" />
    <glyph glyph-name="five.tosf" 
d="M244 -227q-95 0 -193 50l26 120h7q68 -98 95.5 -124t65.5 -26q48 0 89.5 48t41.5 138q0 103 -44 150t-106 47q-70 0 -134 -53l-17 6l53 354h335l-33 -95h-298l-33 -232q75 69 170 69q81 0 144.5 -59.5t63.5 -165.5q0 -100 -70 -163.5t-163 -63.5z" />
    <glyph glyph-name="six.tosf" 
d="M293 423q79 0 138.5 -58.5t59.5 -148.5q0 -95 -66.5 -161.5t-164.5 -66.5q-94 0 -158.5 64t-64.5 201q0 169 105 287.5t269 167.5l4 -15q-107 -53 -176 -139.5t-92 -201.5q26 32 64.5 51.5t81.5 19.5zM263 8q55 0 90.5 53t35.5 138q0 83 -33.5 135.5t-95.5 52.5
q-72 0 -118 -62q-6 -41 -6 -84q0 -100 33.5 -166.5t93.5 -66.5z" />
    <glyph glyph-name="seven.tosf" 
d="M131 -220l288 599h-362l36 103h395v-13l-325 -689h-32z" />
    <glyph glyph-name="eight.tosf" 
d="M345 374q139 -90 139 -196q0 -79 -62 -134.5t-159 -55.5q-93 0 -156.5 50.5t-63.5 133.5q0 69 43 114.5t111 69.5l-13 8q-22 15 -36 26.5t-35.5 34t-33 52.5t-11.5 64q0 79 58.5 125t137.5 46q75 0 133 -42.5t58 -110.5q0 -57 -43 -101.5t-93 -66.5zM153 575
q0 -28 10 -51.5t32 -43.5t36.5 -31t42.5 -29l26 -17q81 58 81 153q0 64 -34 100t-83 36q-48 0 -79.5 -34t-31.5 -83zM264 8q60 0 97 38.5t37 91.5q0 30 -11.5 56.5t-37 50.5t-41 35.5t-47.5 33.5l-46 30q-36 -18 -63.5 -62.5t-27.5 -106.5q0 -71 39 -119t101 -48z" />
    <glyph glyph-name="nine.tosf" 
d="M266 494q96 0 160.5 -64.5t64.5 -201.5q0 -169 -105.5 -287.5t-268.5 -167.5l-4 16q222 111 268 340q-26 -32 -65.5 -51t-81.5 -19q-79 0 -138 58.5t-59 148.5q0 95 66 161.5t163 66.5zM267 95q72 0 118 61q6 40 6 84q0 101 -33.5 167.5t-94.5 66.5q-54 0 -89.5 -53
t-35.5 -138q0 -83 33.5 -135.5t95.5 -52.5z" />
    <glyph glyph-name="zero.tosf.zero" 
d="M265 494q101 0 169 -75t68 -181q0 -105 -67.5 -177.5t-169.5 -72.5t-171 72.5t-69 177.5t69 180.5t171 75.5zM265 473q-54 0 -95 -60.5t-41 -175.5q0 -85 24 -141l210 308q-38 69 -98 69zM264 9q55 0 94.5 56.5t39.5 171.5q0 83 -25 145l-209 -308q38 -65 100 -65z" />
    <glyph glyph-name="zero.zero" horiz-adv-x="604" 
d="M301 715q106 0 181.5 -101.5t75.5 -262.5q0 -166 -74 -264.5t-183 -98.5q-106 0 -180.5 99t-74.5 264q0 162 75 263t180 101zM300 694q-63 0 -104.5 -88.5t-41.5 -254.5q0 -151 36 -239l223 482q-43 100 -113 100zM305 9q61 0 103.5 88.5t42.5 253.5q0 129 -29 218
l-222 -480q40 -80 105 -80z" />
    <glyph glyph-name="zero.subs" horiz-adv-x="319" 
d="M159 -125q-53 0 -91.5 43t-38.5 119q0 74 39 118.5t91 44.5q53 0 92 -44.5t39 -118.5q0 -76 -38 -119t-93 -43zM160 -110q29 0 47.5 36.5t18.5 110.5q0 73 -19 110.5t-48 37.5t-48 -37.5t-19 -110.5t19 -110t49 -37z" />
    <glyph glyph-name="one.subs" horiz-adv-x="204" 
d="M27 -120v13l49 1v240l-48 19v4l107 43v-306l49 -1v-13h-157z" />
    <glyph glyph-name="two.subs" horiz-adv-x="270" 
d="M24 -120v13l42 43q41 42 59 62.5t36.5 57t18.5 71.5q0 59 -40 59q-15 0 -32.5 -15t-63.5 -66h-3l6 73q53 22 94 22q42 0 69.5 -18.5t27.5 -56.5q0 -37 -34.5 -77.5t-121.5 -111.5v-1h165l-19 -55h-204z" />
    <glyph glyph-name="three.subs" horiz-adv-x="282" 
d="M130 -126q-44 0 -99 19l11 71h3q38 -49 52.5 -62t32.5 -13q25 0 43 20t18 55q1 41 -19.5 63.5t-50.5 22.5q-15 0 -33 -8l-10 13l98 85h-134l20 55h181v-13l-142 -122v-2q20 11 51 11q39 0 70 -26t30 -70q0 -45 -37.5 -72t-84.5 -27z" />
    <glyph glyph-name="four.subs" horiz-adv-x="295" 
d="M170 -120v89h-147v8l113 218h83v-3l-181 -210h132v83l59 17v-100h46v-13h-46v-89h-59z" />
    <glyph glyph-name="five.subs" horiz-adv-x="284" 
d="M131 -126q-47 0 -102 21l15 70h4q36 -49 51 -63t33 -14q23 0 43 20.5t20 55.5q0 47 -22.5 67.5t-54.5 20.5q-34 0 -66 -22l-11 3l28 162h178l-19 -55h-154l-16 -93q43 32 88 32q43 0 76 -26.5t33 -74.5q0 -49 -37 -76.5t-87 -27.5z" />
    <glyph glyph-name="six.subs" horiz-adv-x="299" 
d="M228 200l2 -9q-113 -49 -138 -145q31 27 74 27q41 0 72.5 -25.5t31.5 -69.5q0 -45 -36 -74t-88 -29q-53 0 -87 31t-34 89q0 80 58.5 134.5t144.5 70.5zM143 48q-35 0 -55 -21q-3 -39 -3 -41q0 -41 16 -69t46 -28q27 0 44.5 23t17.5 59q0 34 -17 55.5t-49 21.5z" />
    <glyph glyph-name="seven.subs" horiz-adv-x="267" 
d="M59 -122l147 257h-182l21 60h206v-6l-170 -311h-22z" />
    <glyph glyph-name="eight.subs" horiz-adv-x="296" 
d="M148 -126q-50 0 -84.5 23t-34.5 60q0 54 79 79q-66 36 -66 84q0 38 31 59t75 21q41 0 72 -19t31 -49q0 -44 -70 -73l12 -7q73 -36 73 -90q0 -37 -33 -62.5t-85 -25.5zM169 66q38 22 38 63q0 26 -17 41.5t-42 15.5q-23 0 -38 -13.5t-15 -31.5q0 -23 18.5 -39t55.5 -36z
M148 -111q29 0 47 15t18 35q0 17 -12 32.5t-23.5 23.5t-32.5 20l-25 14q-18 -8 -30.5 -26t-12.5 -44q0 -31 19.5 -50.5t51.5 -19.5z" />
    <glyph glyph-name="nine.subs" horiz-adv-x="299" 
d="M67 -125l-2 9q112 49 137 145q-29 -27 -73 -27q-41 0 -72.5 25.5t-31.5 69.5q0 45 35.5 74t88.5 29t87 -31t34 -89q0 -80 -58.5 -134.5t-144.5 -70.5zM151 27q36 0 55 21q4 26 4 41q0 41 -16 69t-46 28q-27 0 -44.5 -23t-17.5 -59q0 -34 17 -55.5t48 -21.5z" />
    <glyph glyph-name="zero.dnom" horiz-adv-x="315" 
d="M159 -5q-53 0 -91.5 43t-38.5 119q0 74 39 118.5t91 44.5q53 0 92 -44.5t39 -118.5q0 -76 -38 -119t-93 -43zM160 10q28 0 47 37t19 110t-19 110.5t-48 37.5t-48 -37.5t-19 -110.5t19 -110t49 -37z" />
    <glyph glyph-name="one.dnom" horiz-adv-x="204" 
d="M27 0v13l49 1v240l-48 19v4l107 43v-306l49 -1v-13h-157z" />
    <glyph glyph-name="two.dnom" horiz-adv-x="270" 
d="M24 0v13l42 43q41 42 59 62.5t36.5 57t18.5 71.5q0 59 -40 59q-15 0 -32.5 -15t-63.5 -66h-3l6 73q53 22 94 22q42 0 69.5 -18.5t27.5 -56.5q0 -37 -34.5 -77.5t-121.5 -111.5v-1h165l-19 -55h-204z" />
    <glyph glyph-name="three.dnom" horiz-adv-x="282" 
d="M130 -6q-44 0 -99 19l11 71h3q38 -49 52.5 -62t32.5 -13q25 0 43 20t18 55q1 41 -19.5 63t-50.5 22q-16 0 -32 -8l-12 14l97 85h-132l20 55h181v-13l-142 -122v-2q20 11 51 11q39 0 70 -26t30 -70q0 -45 -37.5 -72t-84.5 -27z" />
    <glyph glyph-name="four.dnom" horiz-adv-x="295" 
d="M170 0v89h-147v8l113 218h83v-3l-181 -210h132v83l59 17v-100h46v-13h-46v-89h-59z" />
    <glyph glyph-name="five.dnom" horiz-adv-x="284" 
d="M131 -6q-47 0 -102 21l15 70h4q36 -49 51 -63t33 -14q23 0 43 20.5t20 56.5q0 45 -22.5 66t-54.5 21q-34 0 -66 -22l-11 3l28 162h178l-19 -55h-154l-16 -93q43 32 88 32q43 0 76 -26.5t33 -74.5q0 -49 -37 -76.5t-87 -27.5z" />
    <glyph glyph-name="six.dnom" horiz-adv-x="299" 
d="M228 320l2 -9q-113 -49 -138 -145q31 27 74 27q41 0 72.5 -25.5t31.5 -69.5q0 -45 -36 -74t-88 -29q-53 0 -87 31t-34 89q0 80 58.5 134.5t144.5 70.5zM143 168q-35 0 -55 -21q-3 -39 -3 -41q0 -41 16 -69t46 -28q27 0 44.5 23t17.5 59q0 34 -17 55.5t-49 21.5z" />
    <glyph glyph-name="seven.dnom" horiz-adv-x="267" 
d="M59 -2l147 257h-182l21 60h206v-6l-170 -311h-22z" />
    <glyph glyph-name="eight.dnom" horiz-adv-x="296" 
d="M148 -6q-50 0 -84.5 23t-34.5 60q0 54 79 79q-66 36 -66 84q0 38 31 59t75 21q41 0 72 -19t31 -49q0 -44 -70 -73l12 -7q73 -40 73 -90q0 -37 -33 -62.5t-85 -25.5zM169 186q38 22 38 63q0 26 -17 41.5t-42 15.5q-23 0 -38 -13.5t-15 -31.5q0 -23 18.5 -39t55.5 -36z
M148 9q29 0 47 15t18 35q0 17 -12 32.5t-23 23t-33 20.5l-25 14q-18 -8 -30.5 -26t-12.5 -44q0 -31 19.5 -50.5t51.5 -19.5z" />
    <glyph glyph-name="nine.dnom" horiz-adv-x="299" 
d="M67 -5l-2 9q112 49 137 145q-29 -27 -73 -27q-41 0 -72.5 25.5t-31.5 69.5q0 45 35.5 74t88.5 29t87 -31t34 -89q0 -80 -58.5 -134.5t-144.5 -70.5zM151 147q36 0 55 21q4 26 4 41q0 41 -16 69t-46 28q-27 0 -44.5 -23t-17.5 -59q0 -34 17 -55.5t48 -21.5z" />
    <glyph glyph-name="zero.numr" horiz-adv-x="319" 
d="M159 395q-53 0 -91.5 43t-38.5 119q0 74 39 118.5t91 44.5q53 0 92 -44.5t39 -118.5q0 -76 -38 -119t-93 -43zM160 410q28 0 47 37t19 110t-19 110.5t-48 37.5t-48 -37.5t-19 -110.5t19 -110t49 -37z" />
    <glyph glyph-name="one.numr" horiz-adv-x="204" 
d="M27 400v12l49 1v241l-48 19v4l107 43v-307l49 -1v-12h-157z" />
    <glyph glyph-name="two.numr" horiz-adv-x="270" 
d="M24 400v13l42 43q41 42 59 62.5t36.5 57t18.5 71.5q0 59 -40 59q-15 0 -32.5 -15t-63.5 -66h-3l6 73q53 22 94 22q42 0 69.5 -18.5t27.5 -56.5q0 -37 -34.5 -77.5t-121.5 -111.5v-1h165l-19 -55h-204z" />
    <glyph glyph-name="three.numr" horiz-adv-x="282" 
d="M130 394q-44 0 -99 19l11 71h3q38 -49 52.5 -62t32.5 -13q25 0 43 20t18 55q1 41 -19.5 63.5t-50.5 22.5q-15 0 -33 -8l-10 13l98 85h-134l20 55h181v-13l-142 -122v-2q20 11 51 11q39 0 70 -26t30 -70q0 -45 -37.5 -72t-84.5 -27z" />
    <glyph glyph-name="four.numr" horiz-adv-x="295" 
d="M170 400v89h-147v8l113 218h83v-3l-181 -210h132v83l59 17v-100h46v-13h-46v-89h-59z" />
    <glyph glyph-name="five.numr" horiz-adv-x="284" 
d="M131 394q-47 0 -102 21l15 70h4q36 -49 51 -63t33 -14q23 0 43 20.5t20 55.5q0 47 -22.5 67.5t-54.5 20.5q-34 0 -66 -22l-11 3l28 162h178l-19 -55h-154l-16 -93q43 32 88 32q43 0 76 -26.5t33 -74.5q0 -49 -37 -76.5t-87 -27.5z" />
    <glyph glyph-name="six.numr" horiz-adv-x="299" 
d="M228 720l2 -9q-113 -49 -138 -145q31 27 74 27q41 0 72.5 -25.5t31.5 -69.5q0 -45 -36 -74t-88 -29q-53 0 -87 31t-34 89q0 80 58.5 134.5t144.5 70.5zM143 568q-35 0 -55 -21q-3 -39 -3 -41q0 -41 16 -69t46 -28q27 0 44.5 23t17.5 59q0 34 -17 55.5t-49 21.5z" />
    <glyph glyph-name="seven.numr" horiz-adv-x="267" 
d="M59 398l147 257h-182l21 60h206v-6l-170 -311h-22z" />
    <glyph glyph-name="eight.numr" horiz-adv-x="296" 
d="M148 394q-50 0 -84.5 23t-34.5 60q0 54 79 79q-66 36 -66 84q0 38 31 59t75 21q41 0 72 -19t31 -49q0 -44 -70 -73l12 -7q73 -38 73 -90q0 -37 -33 -62.5t-85 -25.5zM169 586q38 22 38 63q0 26 -17 41.5t-42 15.5q-23 0 -38 -13.5t-15 -31.5q0 -23 18.5 -39t55.5 -36z
M148 409q29 0 47 15t18 35q0 17 -12 32.5t-23 23t-33 20.5l-25 14q-18 -8 -30.5 -26t-12.5 -44q0 -31 19.5 -50.5t51.5 -19.5z" />
    <glyph glyph-name="nine.numr" horiz-adv-x="299" 
d="M67 395l-2 9q112 49 137 145q-29 -27 -73 -27q-41 0 -72.5 25.5t-31.5 69.5q0 45 35.5 74t88.5 29t87 -31t34 -89q0 -80 -58.5 -134.5t-144.5 -70.5zM151 547q36 0 55 21q4 26 4 41q0 41 -16 69t-46 28q-27 0 -44.5 -23t-17.5 -59q0 -34 17 -55.5t48 -21.5z" />
    <glyph glyph-name="zero.subs.zero" horiz-adv-x="319" 
d="M159 -125q-53 0 -91.5 43t-38.5 119q0 74 39 118.5t91 44.5q53 0 92 -44.5t39 -118.5q0 -76 -38 -119t-93 -43zM106 -60l103 202q-19 43 -50 43q-29 0 -48 -37.5t-19 -110.5q0 -55 14 -97zM160 -110q29 0 47.5 36.5t18.5 110.5q0 51 -11 89l-103 -201q19 -35 48 -35z" />
    <glyph glyph-name="zero.dnom.zero" horiz-adv-x="315" 
d="M159 -5q-53 0 -91.5 43t-38.5 119q0 74 39 118.5t91 44.5q53 0 92 -44.5t39 -118.5q0 -76 -38 -119t-93 -43zM106 60l103 202q-19 43 -50 43q-29 0 -48 -37.5t-19 -110.5q0 -55 14 -97zM160 10q28 0 47 37t19 110q0 51 -11 89l-103 -201q19 -35 48 -35z" />
    <glyph glyph-name="zero.numr.zero" horiz-adv-x="319" 
d="M159 392q-53 0 -91.5 43.5t-38.5 119.5q0 74 38.5 118t91.5 44t92 -44.5t39 -117.5q0 -76 -38 -119.5t-93 -43.5zM106 458l103 201q-19 44 -50 44q-29 0 -48 -37.5t-19 -110.5q0 -57 14 -97zM160 407q28 0 47 37t19 111q0 52 -11 88l-103 -201q19 -35 48 -35z" />
    <glyph glyph-name="colon.case" horiz-adv-x="244" 
d="M124 395q-26 0 -45.5 19.5t-19.5 45.5t19.5 45.5t45.5 19.5t45.5 -19.5t19.5 -45.5t-19.5 -45.5t-45.5 -19.5zM124 49q-26 0 -45.5 19t-19.5 45t19.5 45.5t45.5 19.5t45.5 -19.5t19.5 -45.5t-19.5 -45t-45.5 -19z" />
    <glyph glyph-name="exclamdown.case" horiz-adv-x="207" 
d="M105 721q26 0 45.5 -19t19.5 -45q0 -25 -19.5 -44t-45.5 -19t-45.5 19t-19.5 44q0 26 19.5 45t45.5 19zM98 522h12l56 -518v-4h-123v4z" />
    <glyph glyph-name="questiondown.case" horiz-adv-x="483" 
d="M297 721q26 0 45.5 -19t19.5 -45q0 -25 -19.5 -44t-45.5 -19t-45.5 19t-19.5 44q0 26 19.5 45t45.5 19zM293 521l67 -172q-31 -11 -53 -20t-55 -28.5t-53.5 -40.5t-36 -54t-15.5 -72q0 -54 27 -89.5t65 -35.5q28 0 55 22t99 101h7l33 -96q-113 -48 -196 -48
q-76 0 -130 44.5t-54 123.5q0 43 18.5 81.5t44.5 65.5t62 50.5t63.5 36.5t57.5 24l-16 105z" />
    <glyph glyph-name="slash.case" horiz-adv-x="363" 
d="M20 -63l289 889h22l-289 -889h-22z" />
    <glyph glyph-name="backslash.case" horiz-adv-x="356" 
d="M346 -63h-22l-289 889h22z" />
    <glyph glyph-name="parenleft.case" horiz-adv-x="344" 
d="M312 -144q-104 71 -174.5 194t-70.5 296t70.5 296t174.5 194l8 -12q-70 -66 -119 -186t-49 -292t49 -292.5t119 -185.5z" />
    <glyph glyph-name="parenright.case" horiz-adv-x="334" 
d="M43 -144l-8 12q70 65 119 185.5t49 292.5t-49 292t-119 186l8 12q104 -71 174.5 -194t70.5 -296t-70.5 -296t-174.5 -194z" />
    <glyph glyph-name="braceleft.case" horiz-adv-x="371" 
d="M315 -148q-84 14 -129 69.5t-45 182.5v139q0 42 -24 67.5t-54 31.5v12q30 6 54 31.5t24 67.5v139q0 127 45 182.5t129 69.5l4 -11q-57 -16 -81 -72t-24 -163v-143q0 -49 -32.5 -78t-82.5 -29q50 0 82.5 -29t32.5 -78v-143q0 -107 24 -163t81 -72z" />
    <glyph glyph-name="braceright.case" horiz-adv-x="371" 
d="M55 -148l-3 11q57 16 81 72t24 163v143q0 49 32 78t83 29q-51 0 -83 29t-32 78v143q0 107 -24 163t-81 72l3 11q85 -14 130 -69.5t45 -182.5v-139q0 -42 24 -67.5t54 -31.5v-12q-30 -6 -54 -31.5t-24 -67.5v-139q0 -127 -45 -182.5t-130 -69.5z" />
    <glyph glyph-name="bracketleft.case" horiz-adv-x="338" 
d="M103 -132v961h183v-20h-111v-921h111v-20h-183z" />
    <glyph glyph-name="bracketright.case" horiz-adv-x="338" 
d="M235 -132h-183v20h110v921h-110v20h183v-961z" />
    <glyph glyph-name="hyphen.case" horiz-adv-x="372" 
d="M45 321v36h286v-36h-286z" />
    <glyph glyph-name="endash.case" horiz-adv-x="515" 
d="M45 326v24h428v-24h-428z" />
    <glyph glyph-name="emdash.case" horiz-adv-x="943" 
d="M45 326v23h856v-23h-856z" />
    <glyph glyph-name="guillemotleft.case" horiz-adv-x="523" 
d="M263 98l-228 218v9l228 220h13l-139 -224l139 -223h-13zM450 98l-228 218v9l228 220h14l-140 -224l140 -223h-14z" />
    <glyph glyph-name="guillemotright.case" horiz-adv-x="523" 
d="M48 98h-13l139 223l-139 224h13l228 -220v-9zM235 98h-13l139 223l-139 224h13l228 -220v-9z" />
    <glyph glyph-name="guilsinglleft.case" horiz-adv-x="336" 
d="M263 98l-228 218v9l228 220h13l-139 -224l139 -223h-13z" />
    <glyph glyph-name="guilsinglright.case" horiz-adv-x="336" 
d="M48 98h-13l139 223l-139 224h13l228 -220v-9z" />
    <glyph glyph-name="cent.osf" horiz-adv-x="467" 
d="M431 150l8 -2q-9 -60 -60 -109t-133 -49q-11 0 -31 2l-13 -108h-19l14 112q-71 19 -117 85t-46 160q0 111 64 181.5t152 70.5h7l11 93h19l-11 -94q62 -8 132 -37l-14 -103h-5q-95 92 -117 107l-46 -378q30 -14 62 -14q94 0 143 83zM127 282q0 -135 81 -191l46 377
q-9 3 -18 3q-41 0 -75 -51t-34 -138z" />
    <glyph glyph-name="dollar.osf" horiz-adv-x="531" 
d="M342 386q150 -67 150 -205q0 -93 -64.5 -143t-150.5 -50q-22 0 -43 3l-14 -116h-19l14 118q-66 11 -152 48l-14 138h8q64 -75 99.5 -110t61.5 -48l34 285l-63 30q-133 61 -133 186q0 88 59.5 138.5t147.5 50.5q13 0 37 -2l11 89h20l-11 -91q59 -7 114 -26l12 -122h-9
q-75 82 -121 113l-31 -259zM249 429l17 -8l31 261q-17 8 -36 8q-47 0 -86 -30t-39 -89q0 -90 113 -142zM278 9q56 0 94 37t38 95q0 93 -116 146l-23 11l-34 -284q16 -5 41 -5z" />
    <glyph glyph-name="Euro.osf" horiz-adv-x="666" 
d="M411 -12q-116 0 -201 76.5t-102 218.5h-87v20h85q-2 32 -2 48q0 29 1 41h-84v21h87q16 135 101 216.5t202 81.5q79 0 194 -36l12 -131h-7q-93 95 -125.5 120.5t-72.5 25.5q-72 0 -126 -71.5t-65 -205.5h284v-21h-285q-1 -12 -1 -41q0 -34 1 -48h258v-20h-257
q13 -132 67.5 -203t124.5 -71q35 0 67 24.5t130 121.5h6l-12 -130q-120 -37 -193 -37z" />
    <glyph glyph-name="sterling.osf" horiz-adv-x="534" 
d="M42 0v17l53 71q21 26 32 43t21.5 47.5t10.5 64.5q0 28 -7 65h-111v21h107l-13.5 54t-15 69t-4.5 54q0 92 55 148.5t138 56.5q60 0 157 -27l11 -123h-6q-78 81 -108 105t-59 24q-47 0 -76 -31.5t-29 -87.5q0 -41 25 -119.5t25 -116.5q0 -4 -1 -6h154v-21h-153
q-4 -59 -31.5 -107.5t-93.5 -106.5h363l-34 -94h-410z" />
    <glyph glyph-name="yen.osf" horiz-adv-x="674" 
d="M697 701v-18l-88 -3l-209 -347h127v-20h-134v-85h135v-21h-135v-186l85 -3v-18h-277v18l85 3v186h-140v21h140v82l-2 3h-139v20h127l-211 347l-79 3v18h289v-18l-91 -3l204 -335l201 335l-92 3v18h204z" />
    <glyph glyph-name="cent.tf" 
d="M467 150l8 -2q-9 -60 -62 -109t-137 -49q-11 0 -31 2l-14 -108h-19l14 112q-73 19 -120 84.5t-47 160.5q0 111 65 182t156 71h7l12 93h20l-12 -94q65 -7 136 -36l-14 -104h-5q-93 89 -121 107l-47 -379q30 -14 62 -14q97 0 149 83zM152 282q0 -135 86 -191l46 378
q-9 3 -17 3q-43 0 -79 -51.5t-36 -138.5z" />
    <glyph glyph-name="dollar.tf" 
d="M340 389q151 -66 151 -206q0 -94 -65 -144.5t-152 -50.5q-21 0 -42 3l-14 -117h-21l14 119q-60 10 -152 48l-14 139h8q64 -75 99.5 -110t62.5 -48l34 287l-64 29q-133 62 -133 188q0 89 60 140t149 51q12 0 36 -2l11 90h21l-11 -92q65 -8 115 -27l11 -123h-8
q-81 88 -122 115l-31 -263zM246 432l17 -8l31 265q-17 8 -35 8q-47 0 -87 -31t-40 -90q0 -92 114 -144zM276 9q57 0 95 37t38 96q0 95 -117 147l-23 11l-34 -286q16 -5 41 -5z" />
    <glyph glyph-name="Euro.tf" 
d="M334 -12q-101 0 -176 77.5t-90 218.5h-74v21h72q-1 16 -1 48q0 30 1 42h-72v21h74q15 138 90 219t177 81q73 0 170 -37l11 -131h-5q-80 94 -110.5 120.5t-64.5 26.5q-60 0 -106 -72t-55 -207h245v-21h-246q-1 -12 -1 -42t1 -48h222v-21h-221q11 -129 56.5 -202t104.5 -73
q30 0 58.5 24.5t115.5 122.5h6l-11 -131q-108 -37 -171 -37z" />
    <glyph glyph-name="sterling.tf" 
d="M41 0v17l53 71q63 78 63 157q0 28 -7 65h-110v21h106q-3 15 -10 43.5t-11.5 46.5t-8 43t-3.5 46q0 92 55 149t137 57q63 0 155 -28l11 -123h-6q-78 82 -107.5 106t-57.5 24q-46 0 -74.5 -32t-28.5 -88q0 -41 25 -120t25 -118q0 -4 -1 -6h151v-21h-150q-5 -59 -33 -108.5
t-92 -106.5h359l-34 -95h-406z" />
    <glyph glyph-name="yen.tf" 
d="M584 704v-18l-88 -3l-175 -348h106v-21h-112v-86h113v-20h-113v-187l85 -3v-18h-268v18l85 3v187h-117v20h117v83l-2 3h-116v21h106l-179 348l-80 3v18h280v-18l-90 -3l171 -337l168 337l-91 3v18h200z" />
    <glyph glyph-name="cent.tosf" 
d="M461 150l11 -3q-9 -61 -61 -110t-135 -49q-16 0 -33 3l-13 -107h-20l14 111q-72 19 -118 85t-46 160q0 112 64.5 183t155.5 71h5l12 96h20l-12 -97q65 -8 135 -36l-14 -104h-7q-92 90 -118 107l-47 -381q31 -14 64 -14q41 0 80 21t63 64zM153 281q0 -134 82 -191l47 380
q-10 2 -16 2q-42 0 -77.5 -52t-35.5 -139z" />
    <glyph glyph-name="dollar.tosf" 
d="M340 394q151 -69 151 -209q0 -95 -65 -146t-152 -51q-21 0 -42 3l-14 -119h-21l14 122q-69 12 -152 48l-14 140h8q115 -136 162 -160l34 292l-64 30q-58 27 -95.5 75.5t-37.5 116.5q0 89 60 141t149 52q12 0 36 -2l11 91h21l-11 -93q58 -7 115 -27l11 -124h-8
q-81 88 -122 115l-32 -268zM246 438l17 -8l31 270q-17 8 -35 8q-47 0 -87 -31t-40 -92q0 -94 114 -147zM276 9q56 0 94.5 38t38.5 98q0 96 -117 149l-23 11l-34 -291q16 -5 41 -5z" />
    <glyph glyph-name="Euro.tosf" 
d="M331 -12q-100 0 -176.5 77t-92.5 218h-73v20h72q-2 30 -2 48t2 42h-72v21h73q16 135 91 216.5t180 81.5q65 0 171 -36l12 -131h-7q-83 94 -113 120t-63 26q-59 0 -104 -71.5t-54 -205.5h244v-21h-245q-1 -12 -1 -42q0 -20 2 -48h219v-20h-219q11 -131 55.5 -202.5
t102.5 -71.5q30 0 59 24.5t117 121.5h5l-11 -130q-111 -37 -172 -37z" />
    <glyph glyph-name="sterling.tosf" 
d="M39 0v17l53 71q31 38 47.5 72.5t16.5 82.5q0 28 -7 65h-111v21h107q-3 14 -13.5 55t-15 68.5t-4.5 54.5q0 91 55 148t138 57q58 0 158 -27l11 -123h-7q-77 81 -107.5 105t-59.5 24q-47 0 -76 -32t-29 -87q0 -40 25 -119.5t25 -117.5q0 -4 -1 -6h155v-21h-153
q-5 -58 -32.5 -107t-92.5 -107h362l-33 -94h-411z" />
    <glyph glyph-name="yen.tosf" 
d="M588 702v-18l-87 -3l-180 -348h110v-20h-116v-85h116v-21h-116v-186l85 -3v-18h-269v18l85 3v186h-120v21h120v82l-2 3h-119v20h109l-182 348l-80 3v18h281v-18l-90 -3l174 -336l172 336l-92 3v18h201z" />
    <glyph glyph-name="at.case" horiz-adv-x="906" 
d="M387 -44q-148 0 -244.5 80t-96.5 220q0 120 72 225.5t185.5 166t236.5 60.5q80 0 143.5 -27.5t100.5 -71.5t56.5 -94t19.5 -100q0 -80 -46.5 -149.5t-116 -108t-141.5 -38.5q-76 0 -77 58q0 25 27 85q-39 -64 -92 -102t-105 -38q-47 0 -75.5 27t-28.5 75q0 67 53.5 141
t136 124.5t159.5 50.5q33 0 58 -11l97 18l-138 -358q-7 -12 -7 -25q0 -20 25 -20q21 0 42 7q28 8 59 27.5t62 50.5t51.5 79t20.5 103q0 49 -15.5 96t-46.5 89t-87.5 68t-130.5 26q-116 0 -221.5 -58.5t-170.5 -158.5t-65 -213q0 -133 85.5 -210t219.5 -77q143 0 280 92h41
q-168 -109 -326 -109zM368 180q71 0 152 123l80 209q-19 10 -44 10q-89 0 -171 -94.5t-82 -174.5q0 -34 17 -53.5t48 -19.5z" />
    <glyph glyph-name="bar.case" horiz-adv-x="209" 
d="M95 -63v889h22v-889h-22z" />
    </font>
</defs>
</svg>
