<?xml version="1.0" encoding="utf-8"?>
<!-- Generator: Adobe Illustrator 25.0.0, SVG Export Plug-In . SVG Version: 6.00 Build 0)  -->
<svg version="1.1" id="Layer_1" xmlns="http://www.w3.org/2000/svg" xmlns:xlink="http://www.w3.org/1999/xlink" x="0px" y="0px"
	 viewBox="0 0 37.4 28.2" style="enable-background:new 0 0 37.4 28.2;" xml:space="preserve">
<style type="text/css">
	.st0{fill:#FDB913;}
	.st1{fill:#FFFFFF;}
</style>
<g>
	<g>
		<g>
			<path class="st0" d="M19.9,22.5l12.6-1.8c0.9,0,1.8-0.4,2.5-0.9c0.7-0.6,1.1-1.3,1.1-2.2V14v-3.6c0-0.3,0-0.5-0.1-0.8
				s-0.2-0.5-0.3-0.7c0.4-0.4,0.7-0.8,0.9-1.3c0.2-0.5,0.2-1,0.2-1.5c-0.1-1-1-2.1-2.6-3c-1.6-0.9-3.7-1.5-6.1-1.5L11.8,0.8"/>
			<path d="M19.9,23.2c-0.3,0-0.6-0.2-0.6-0.5c0-0.3,0.2-0.7,0.5-0.7l12.6-1.8c0.8,0,1.6-0.3,2.2-0.8c0.6-0.5,0.9-1.1,0.9-1.7v-7.2
				c0-0.2,0-0.4-0.1-0.6c-0.1-0.2-0.1-0.4-0.2-0.6l-0.3-0.4l0.4-0.4c0.3-0.3,0.6-0.7,0.7-1.1c0.1-0.4,0.2-0.8,0.2-1.2
				c0-0.7-0.9-1.7-2.3-2.5c-1.6-0.9-3.7-1.5-5.8-1.5L11.8,1.4c-0.4,0-0.6-0.3-0.6-0.7c0-0.4,0.4-0.6,0.7-0.6l16.3,0.8c0,0,0,0,0,0
				c2.3,0,4.6,0.6,6.4,1.6c1.8,1,2.8,2.3,2.9,3.5c0,0.6,0,1.2-0.2,1.7C37,8.2,36.8,8.6,36.4,9c0.1,0.1,0.1,0.3,0.2,0.4
				c0.1,0.3,0.1,0.6,0.1,1v7.2c0,1-0.5,2-1.3,2.7c-0.8,0.7-1.9,1.1-2.9,1.1L19.9,23.2C19.9,23.2,19.9,23.2,19.9,23.2z"/>
		</g>
		<path d="M20.6,9.7c-0.3,0-0.6-0.2-0.6-0.5c-0.1-0.3,0.2-0.7,0.5-0.7c3.1-0.5,6.3-0.6,9.4-0.5c1,0,2,0.1,3.1,0.2
			c0.3,0,0.6,0.4,0.6,0.7c0,0.3-0.4,0.6-0.7,0.6c-1-0.1-2-0.2-3-0.2C26.8,9.1,23.7,9.2,20.6,9.7C20.7,9.7,20.6,9.7,20.6,9.7z"/>
		<g>
			<path class="st1" d="M21.5,6.2c-0.1-2.3-4.6-5.5-10.4-5.5S0.6,3.6,0.7,6.2C0.8,7.4,1,8.4,2,9.3c-0.4,0.6-0.6,1.3-0.6,2v8.7
				c0,2.1,2.1,3.8,4.3,3.8h8.3c0.2,0.5,0.3,1,0.2,1.6c-0.5,1.4-2.3,2-2.3,2s2.6,0.5,4.2-0.9c0.9-0.9,1.6-2,1.9-2.9
				c1.5-0.6,2.8-1.9,2.8-3.5v-8.7c0-0.7-0.2-1.3-0.5-1.8C21.2,8.6,21.5,7.4,21.5,6.2z"/>
			<path d="M13,28.2c-0.7,0-1.2-0.1-1.3-0.1c-0.3-0.1-0.5-0.3-0.6-0.6s0.2-0.6,0.5-0.7c0.4-0.1,1.5-0.7,1.8-1.6
				c0.1-0.2,0.1-0.4,0-0.6H5.6c-2.7,0-5-2.1-5-4.5v-8.7c0-0.6,0.2-1.3,0.5-1.9C0.2,8.4,0.1,7.3,0,6.2c0-0.9,0.4-1.9,1.2-2.7
				C3.2,1.4,7.2,0,11.1,0C17.1,0,22,3.3,22.2,6.1l0,0c0.1,1.4-0.3,2.6-1.2,3.5c0.2,0.5,0.3,1.1,0.3,1.7v8.7c0,1.7-1.2,3.3-2.9,4
				c-0.4,1.1-1.1,2.1-1.9,2.9C15.4,28,14,28.2,13,28.2z M11.1,1.4c-4.1,0-7.4,1.5-8.9,3C1.7,5,1.4,5.6,1.4,6.1
				c0.1,1.1,0.2,1.9,1.1,2.7c0.2,0.2,0.3,0.6,0.1,0.9c-0.3,0.5-0.5,1.1-0.5,1.6v8.7c0,1.6,1.7,3.1,3.6,3.1h8.3
				c0.3,0,0.5,0.2,0.6,0.4c0.2,0.5,0.4,1.2,0.2,2c-0.1,0.4-0.4,0.8-0.6,1.1c0.5-0.1,1-0.3,1.4-0.7c0.8-0.7,1.4-1.7,1.7-2.6
				c0.1-0.2,0.2-0.4,0.4-0.4c1.4-0.5,2.3-1.6,2.3-2.8v-8.7c0-0.5-0.1-1-0.4-1.5c-0.2-0.3-0.1-0.7,0.1-0.9c0.8-0.7,1.2-1.6,1.1-2.8
				C20.7,4.3,16.5,1.4,11.1,1.4z"/>
		</g>
	</g>
</g>
</svg>
